<svg xmlns="http://www.w3.org/2000/svg" width="32" height="32" fill="none" viewBox="0 0 32 32">
  <path fill="#00BE14" d="M5.8 16.516c0-3.378 1.653-6.375 4.191-8.234l-.673-2.285a12.446 12.446 0 0 0-5.782 10.519c0 4.683 2.585 8.76 6.402 10.892l.78-2.172c-2.945-1.792-4.917-5.03-4.917-8.72ZM22.683 5.997l-.673 2.292a10.191 10.191 0 0 1 4.19 8.234c0 3.69-1.972 6.928-4.916 8.72l.78 2.172c3.816-2.132 6.401-6.21 6.401-10.892a12.45 12.45 0 0 0-5.782-10.526Z"/>
  <path fill="#fff" d="m11.283 29 .853-2.338h7.734L20.723 29h-9.44Zm1.926-15.782s.852 3.091 1.272 5.736c.273 0 .746.013.746.013s-1.472-9.14-5.076-15.708c.4-.193 1.206-.58 2.471-.88.174.853 3.358 16.588 3.358 16.588h.746l-3.384-16.74s1.052-.22 2.385-.227c-.053 1.905.113 10.299 1.752 16.96h.753S16.38 12.227 16.452 2c.734.013 1.853.133 2.392.253l-.014.066c-.218 1.022-2.476 11.56.694 23.21h-7.042s1.846-5.462.727-12.31Z"/>
  <path fill="#fff" d="M21.805 3.36c-.418.94-2.788 6.275-3.287 12.203l-.009-.196c-.064-1.42-.32-7.048.968-12.98l.108.029c.433.118 1.393.379 2.27.83l-.05.113Z"/>
</svg>
