<svg xmlns="http://www.w3.org/2000/svg" width="32" height="32" fill="none" viewBox="0 0 32 32">
  <path fill="#fff" d="M3.982 18.658H1.364v2.704H0v-6.619h4.31v1.105H1.364v1.71h2.619v1.1Zm5.896-3.915v4.36c0 .724-.227 1.297-.68 1.718-.453.422-1.072.632-1.857.632-.773 0-1.386-.205-1.841-.613-.455-.41-.687-.972-.696-1.687v-4.41h1.364v4.369c0 .433.104.75.312.947.207.2.494.298.86.298.768 0 1.157-.403 1.17-1.21v-4.404h1.368Zm5.868 1.105h-2.028v5.514h-1.364v-5.514h-2v-1.105h5.392v1.105Zm3.904 3.778c0-.258-.09-.456-.272-.594-.182-.137-.51-.283-.983-.436a7.015 7.015 0 0 1-1.122-.452c-.752-.406-1.128-.954-1.128-1.641 0-.358.101-.677.303-.957.201-.28.49-.5.868-.657.377-.158.8-.237 1.27-.237.473 0 .895.086 1.264.257.37.172.657.413.861.725.205.312.308.667.308 1.064h-1.364c0-.303-.096-.539-.287-.707-.19-.168-.459-.252-.804-.252-.334 0-.593.07-.777.211a.667.667 0 0 0-.278.557c0 .215.108.396.325.54.217.147.535.283.957.41.776.233 1.34.523 1.695.869.355.345.533.775.533 1.29 0 .573-.217 1.023-.65 1.349-.434.326-1.017.489-1.751.489a3.37 3.37 0 0 1-1.391-.28c-.418-.186-.737-.442-.957-.766a1.96 1.96 0 0 1-.33-1.128h1.37c0 .731.436 1.096 1.308 1.096.324 0 .578-.066.76-.198a.643.643 0 0 0 .272-.552Zm5.796.372h-2.392l-.454 1.364h-1.45l2.463-6.619h1.264l2.478 6.62h-1.45l-.46-1.364Zm-2.023-1.104h1.655l-.832-2.478-.823 2.478Zm5.681 1.373H32v1.096h-4.26v-6.62h1.365v5.524ZM7.007 25.623l.401-2.119h.612l-.66 2.98h-.62l-.484-1.993-.485 1.992h-.618l-.661-2.978h.612l.403 2.115.49-2.115h.52l.49 2.118Zm3.686-.562c0 .293-.051.55-.155.771a1.168 1.168 0 0 1-1.109.692 1.182 1.182 0 0 1-1.111-.686 1.753 1.753 0 0 1-.161-.76v-.148c0-.293.053-.551.158-.774.106-.223.255-.394.448-.514.2-.12.429-.183.662-.179a1.179 1.179 0 0 1 1.11.693c.106.223.158.48.158.772v.133Zm-.622-.135c0-.312-.056-.55-.167-.712a.547.547 0 0 0-.479-.243.547.547 0 0 0-.477.24c-.111.16-.168.395-.17.705v.145c0 .304.056.54.168.708a.546.546 0 0 0 .483.251.54.54 0 0 0 .475-.242c.11-.162.166-.397.168-.707v-.145Zm2.066.466h-.489v1.091h-.614v-2.978h1.107c.352 0 .624.078.815.235.19.157.286.378.286.665a.916.916 0 0 1-.132.508.902.902 0 0 1-.4.325l.645 1.216v.03h-.66l-.558-1.092Zm-.489-.497h.495a.512.512 0 0 0 .359-.117.422.422 0 0 0 .126-.324.45.45 0 0 0-.12-.332c-.08-.08-.202-.12-.367-.12h-.492v.893Zm2.57 1.094h1.303v.494h-1.917v-2.978h.613v2.485Zm1.55.494v-2.978h.917a1.39 1.39 0 0 1 .702.177c.207.117.368.285.484.503.116.217.174.465.174.742v.136c0 .277-.057.524-.171.74a1.226 1.226 0 0 1-.482.5 1.4 1.4 0 0 1-.701.18h-.923Zm.613-2.481v1.988h.297c.24 0 .424-.078.55-.235.127-.157.192-.381.195-.673v-.158c0-.302-.063-.532-.189-.688-.125-.156-.308-.235-.55-.235l-.303.001Zm5.282 1.49c-.023.32-.142.572-.355.756-.213.184-.495.276-.844.276-.381 0-.682-.128-.901-.385-.219-.258-.328-.61-.328-1.06v-.18c0-.288.05-.54.151-.758.101-.218.245-.386.433-.503.187-.116.405-.174.653-.174.344 0 .62.092.83.276.211.184.332.442.365.775h-.614c-.015-.192-.068-.331-.16-.418-.092-.087-.232-.13-.42-.13-.206 0-.358.073-.46.22-.102.146-.154.374-.156.682v.225c0 .322.048.557.146.706.098.149.251.223.46.223.19 0 .332-.043.426-.13.093-.087.146-.22.16-.402h.614Zm2.552-1.987v1.962c0 .325-.102.583-.305.773-.204.19-.483.284-.836.284-.348 0-.624-.092-.829-.276-.204-.184-.308-.437-.313-.759v-1.984h.614v1.966c0 .195.047.337.14.426.094.09.223.134.388.134.345 0 .52-.181.526-.544v-1.982h.615Zm1.013 1.929v1.05h-.614v-2.98h1.162c.224 0 .42.041.59.123.17.082.3.199.392.35.091.15.137.322.137.514 0 .292-.1.522-.3.69-.2.169-.476.253-.829.253h-.538Zm0-.497h.548c.162 0 .286-.038.371-.115.086-.076.128-.185.128-.327a.49.49 0 0 0-.129-.354.482.482 0 0 0-.356-.14h-.562v.936ZM5.618 6.02h5.028l-.53 1.412h-2.43V8.75h1.997l-.56 1.42H7.687v2.346H5.62V6.021Zm5.66 0h2.041v6.496h-2.044l.003-6.496Zm11.946 0 2.36 6.496h-2.036l-.266-.873h-2.304l-.254.873h-1.976l2.354-6.496h2.123Zm-1.882 4.374h1.604L22.13 7.69l-.788 2.705Zm-6.61-4.374h5.03l-.534 1.412h-2.43V8.75h1.998l-.563 1.42h-1.435v2.346H14.73V6.021Zm10.44 1.717a.885.885 0 0 1-.8-.533.828.828 0 0 1-.07-.337.876.876 0 0 1 .53-.8.828.828 0 0 1 .34-.068.876.876 0 0 1 .869.868.872.872 0 0 1-.53.8.833.833 0 0 1-.34.07Zm0-.17a.65.65 0 0 0 .255-.05.647.647 0 0 0 .209-.147.737.737 0 0 0 .142-.223.777.777 0 0 0 .05-.28.773.773 0 0 0-.05-.281.722.722 0 0 0-.142-.222.633.633 0 0 0-.465-.197.638.638 0 0 0-.466.198.722.722 0 0 0-.193.502.76.76 0 0 0 .052.28c.035.087.082.16.141.223a.636.636 0 0 0 .466.198Zm-.338-1.196h.368c.12 0 .21.022.272.066.06.044.092.119.092.223 0 .084-.022.147-.067.19a.331.331 0 0 1-.19.074l.264.432h-.188l-.255-.425h-.11v.425h-.186v-.985Zm.186.421h.162a.496.496 0 0 0 .076-.006.208.208 0 0 0 .064-.018.104.104 0 0 0 .044-.045.154.154 0 0 0 .017-.078.126.126 0 0 0-.018-.07.114.114 0 0 0-.046-.04.184.184 0 0 0-.066-.02.65.65 0 0 0-.07-.004h-.163v.281Z"/>
</svg>
