<svg xmlns="http://www.w3.org/2000/svg" width="32" height="32" fill="none" viewBox="0 0 32 32">
  <path fill="#C6C8CA" d="M15.49 8.806a11.634 11.634 0 0 1-1.49 1.58c-.422.399-1.503 1.317-1.616 1.843-.005.025-.005.055-.005.08a4.71 4.71 0 0 0 .153 1.36c.13.495.333.97.557 1.43.231.474.486.936.748 1.395.217.382.447.771.67 1.152a5.3 5.3 0 0 1 .388.747c.285.686.411 1.43.42 2.17a7.352 7.352 0 0 1-.112 1.356v.003c-.014.08-.132.067-.13-.014.002-.046.003-.09.003-.136.014-1.084-.144-2.198-.633-3.172a4.845 4.845 0 0 0-.4-.655 26.898 26.898 0 0 1-1.176-1.818c-.369-.636-.712-1.3-.931-2.01a5.01 5.01 0 0 1-.215-1.873c.006-.112.037-.23.078-.33.146-.344.413-.637.684-.898l.15-.141c.537-.488 1.127-.898 1.692-1.344.394-.313.78-.64 1.141-.992.084-.08.166-.164.247-.248l.01-.01a6.146 6.146 0 0 0 .144-.157l.005-.005.049-.054.007-.01.022-.025.016-.019a2.97 2.97 0 0 0 .088-.108l.011-.015c-.149.33-.36.63-.576.918Zm.644-4.907h-.018c-1.218.002-2.234.22-2.968.442a.654.654 0 0 0-.432.424c-.142.435-.274.904-.389 1.404-.24 1.049-.467 2.495-.408 3.996l-.269.187a4.443 4.443 0 0 0-.196.143 2.537 2.537 0 0 0-.46.451v-.002l-.001.002.426-.885.002-.005.003-.006.002-.004.002-.003s-.108-.659-.499-.891c-.147-.088-.365-.172-.572-.024-.325.231-.44.453-.439.652.002.437.565.76.682.823a9.731 9.731 0 0 0-.04.672v.003a10.423 10.423 0 0 0-.004.158v.005l-.001.052v.171a.992.992 0 0 1 0 .065v.079a150.083 150.083 0 0 1 .002.057v.051l.002.025v.033l.001.025.002.05v.028l.002.03a71.489 71.489 0 0 1 .003.063l.002.047.001.029.002.033.002.026c0 .02.002.039.003.058l.002.025.002.036.002.024.006.083v.003l.003.04.002.02a5.556 5.556 0 0 0 .012.133l.002.018a6.285 6.285 0 0 0 .015.142v.01l.006.046.002.014.018.145.001.013a10.526 10.526 0 0 0 .057.373v.003l.03.162.001.004a8.977 8.977 0 0 0 .033.166c.11.521.27 1.055.503 1.563.192.418.432.82.732 1.183.958 1.16 1.586 2.157 1.993 2.992.446.916.627 1.637.687 2.166v.004a14.3 14.3 0 0 0 .004.036l.003.03v.003l.003.033.001.008.002.022.001.014.001.016.001.016.001.012c.01.157.01.293.003.41a.738.738 0 0 1-.02.135c-1.115.094-1.892.293-1.922.524l-.332 1.608.002.001c-.036.176.07.35.244.399.865.243 2.041.476 3.444.477h.012V3.9Z"/>
  <path fill="#fff" fill-rule="evenodd" d="M16.111 25.475h-.006V3.9h.018c1.218.002 2.234.22 2.968.442.204.062.366.22.432.424.142.435.274.904.388 1.404.24 1.049.467 2.495.409 3.996l.075.052.193.135a4.5 4.5 0 0 1 .197.143 2.529 2.529 0 0 1 .46.451v-.002l.001.002-.3-.621-.126-.264-.003-.005-.003-.006-.002-.004-.001-.003s.107-.659.499-.891c.147-.088.365-.172.572-.024.325.231.44.453.438.652-.002.437-.565.76-.681.823a10.233 10.233 0 0 1 .04.674v.001l.003.103v.035l.001.02v.065l.001.044v.242l-.001.02v.038l-.001.02-.001.05v.025l-.002.033v.025l-.002.05v.014l-.001.014-.001.03-.002.03v.022l-.001.011-.002.047-.002.029-.002.033v.018l-.001.008v.004l-.004.054v.013l-.001.012-.003.036-.001.024a13.244 13.244 0 0 1-.007.086l-.003.04v.01l-.002.01c0 .014-.002.027-.003.04v.008a8.572 8.572 0 0 1-.008.085l-.001.01-.001.008a6.285 6.285 0 0 1-.004.043l-.002.012-.009.087-.001.01-.004.031-.001.015-.002.01v.004l-.018.145-.002.013-.02.15-.002.009a9.251 9.251 0 0 1-.025.157v.004l-.01.053v.003l-.03.162v.004c-.01.054-.021.109-.033.163v.003a7.39 7.39 0 0 1-.504 1.563 5.29 5.29 0 0 1-.732 1.183c-.958 1.16-1.585 2.157-1.992 2.992-.446.916-.627 1.637-.687 2.166v.004a14.3 14.3 0 0 1-.004.03v.006l-.003.03v.003l-.004.033v.008l-.001.008-.001.014-.001.014-.002.016v.016l-.001.012a3.34 3.34 0 0 0-.003.41c.002.046.01.091.02.135 1.115.094 1.892.293 1.922.524l.332 1.608-.002.001a.343.343 0 0 1-.244.399 12.77 12.77 0 0 1-3.444.477h-.006Zm.073-17.572-.012-.015c.15.33.36.63.577.918.438.577.952 1.096 1.489 1.58.06.058.135.126.219.202.495.454 1.3 1.19 1.397 1.64.004.023.004.047.005.07v.01a4.71 4.71 0 0 1-.153 1.362 7.95 7.95 0 0 1-.557 1.43c-.232.473-.487.935-.748 1.394-.213.374-.437.754-.656 1.127l-.015.025a5.29 5.29 0 0 0-.387.747c-.286.686-.412 1.43-.42 2.17a7.363 7.363 0 0 0 .112 1.359c.014.08.132.067.13-.014a10.24 10.24 0 0 1-.004-.136c-.013-1.084.145-2.198.634-3.172a4.85 4.85 0 0 1 .4-.655c.413-.591.811-1.195 1.176-1.818.368-.636.712-1.3.93-2.01a5.01 5.01 0 0 0 .216-1.873 1.034 1.034 0 0 0-.078-.33c-.147-.344-.413-.637-.684-.898l-.15-.141a16.58 16.58 0 0 0-1.156-.932c-.18-.136-.36-.272-.536-.412a14.94 14.94 0 0 1-1.142-.992 10.377 10.377 0 0 1-.25-.253c-.003-.001-.004-.003-.006-.005a6.146 6.146 0 0 1-.145-.157l-.004-.005a4.436 4.436 0 0 1-.049-.054l-.008-.01a3.353 3.353 0 0 1-.022-.025l-.015-.019a2.97 2.97 0 0 1-.029-.034l-.02-.026-.002-.002a1.894 1.894 0 0 1-.028-.035l-.009-.011Z" clip-rule="evenodd"/>
  <path fill="#fff" d="M27.8 13.491c-.28-3.583-2.025-6.818-4.341-9.502 3.107 1.938 5.141 5.844 4.34 9.502ZM15.248 27.616a12.39 12.39 0 0 1-1.926-.052c-5.229-.526-10.282-4.17-11.652-9.366 2.496 5.275 7.891 8.629 13.578 9.418Z"/>
  <path fill="#fff" d="M13.813 26.715C5.17 24.297 2.309 12.14 8.66 5.928c.158-.161.336-.328.502-.478.155-.137.33-.283.492-.41-5.545 6.998-3.645 17.265 4.159 21.675Z"/>
  <path fill="#fff" d="M4.353 13.491c-.8-3.658 1.235-7.564 4.341-9.502-2.315 2.684-4.061 5.919-4.34 9.502Z"/>
  <path fill="#fff" d="M8.208 24.1c-3.71-2.11-6.16-6.364-5.851-10.654a10.24 10.24 0 0 1 1.49-4.72c.137-.219.287-.439.444-.645-2.178 6.036-.394 11.49 3.917 16.02Zm22.282-5.902c-2.496 5.275-7.891 8.63-13.578 9.418a13.034 13.034 0 0 0 3.022-.21c4.808-.876 9.287-4.38 10.556-9.207Z"/>
  <path fill="#fff" d="M18.437 26.738c6.162-3.389 9.077-11.35 6.332-17.865-.542-1.368-1.288-2.633-2.173-3.809 7.51 5.767 4.996 19.134-4.16 21.674Z"/>
  <path fill="#fff" d="M23.995 24.087c3.12-3.265 5.332-7.634 4.777-12.247-.124-1.287-.45-2.547-.86-3.772 3.915 5.242 1.613 12.93-3.917 16.019Z"/>
</svg>
