<svg xmlns="http://www.w3.org/2000/svg" width="32" height="32" fill="none" viewBox="0 0 32 32">
  <path fill="#BDD1DF" d="M15.572 8.806a11.635 11.635 0 0 1-1.49 1.58c-.421.399-1.503 1.317-1.615 1.843-.005.025-.005.055-.005.08a4.71 4.71 0 0 0 .152 1.36c.131.495.334.97.558 1.43.23.474.486.936.747 1.395.218.382.447.771.672 1.152.145.239.282.49.387.747.285.686.411 1.43.42 2.17a7.352 7.352 0 0 1-.112 1.356v.003c-.015.08-.133.067-.13-.014l.003-.136c.013-1.084-.144-2.198-.633-3.172a4.835 4.835 0 0 0-.4-.655 26.935 26.935 0 0 1-1.176-1.818c-.369-.636-.712-1.3-.931-2.01a5.008 5.008 0 0 1-.215-1.873c.006-.112.037-.23.078-.33.146-.344.413-.637.684-.898l.15-.141c.537-.488 1.126-.898 1.692-1.344.394-.313.78-.64 1.141-.992.084-.08.166-.164.247-.248l.01-.01a6.872 6.872 0 0 0 .144-.157l.005-.005.048-.054.008-.01.022-.025.016-.019a2.218 2.218 0 0 0 .05-.06l.016-.021.021-.027.012-.015c-.15.33-.36.63-.576.918Zm.643-4.907h-.017a10.31 10.31 0 0 0-2.968.442.654.654 0 0 0-.433.424c-.141.435-.273.904-.388 1.404-.24 1.049-.467 2.495-.409 3.996l-.268.187a4.443 4.443 0 0 0-.196.143 2.548 2.548 0 0 0-.461.451l.001-.002s0 .002-.002.002c.018-.035.367-.76.427-.885l.002-.005.003-.006.002-.004.002-.003s-.108-.659-.5-.891c-.146-.088-.365-.172-.572-.024-.325.231-.44.453-.438.652.002.437.565.76.682.823a9.731 9.731 0 0 0-.04.672v.003a1.745 1.745 0 0 0-.003.103v.007l-.002.048v.228a.992.992 0 0 1 0 .065v.079a150.083 150.083 0 0 1 .002.057v.051l.001.025.001.033v.025l.003.05v.028l.002.03.001.03.002.033.002.047.001.029.002.033.002.026c0 .02.002.039.003.058l.002.025.002.036.002.024.006.083v.003l.003.04.002.02.003.04.001.008.008.085.002.018a6.285 6.285 0 0 0 .014.142l.002.01.005.046.001.014a9.892 9.892 0 0 0 .041.307l.002.01.024.157.001.004.009.053v.003l.03.162v.004a8.977 8.977 0 0 0 .034.166c.11.521.27 1.055.503 1.563.192.418.432.82.732 1.183.958 1.16 1.586 2.157 1.993 2.992.446.916.627 1.637.687 2.166v.004a14.3 14.3 0 0 0 .004.036l.003.03v.003l.003.033v.008l.003.022v.014l.002.016.001.016v.012c.011.157.01.293.004.41a.73.73 0 0 1-.021.135c-1.114.094-1.891.293-1.922.524l-.332 1.608.003.001c-.036.176.07.35.243.399a12.77 12.77 0 0 0 3.444.477h.012V3.9Z"/>
  <path fill="#DD900A" d="M27.8 13.491c-.28-3.583-2.025-6.818-4.341-9.502 3.107 1.938 5.141 5.844 4.34 9.502ZM15.248 27.616a12.39 12.39 0 0 1-1.926-.052c-5.229-.526-10.282-4.17-11.652-9.366 2.496 5.275 7.891 8.629 13.578 9.418Z"/>
  <path fill="#DD900A" d="M13.813 26.715C5.17 24.297 2.309 12.14 8.66 5.928c.158-.161.336-.328.502-.478.155-.137.33-.283.492-.41-5.545 6.998-3.645 17.265 4.159 21.675Z"/>
  <path fill="#DD900A" d="M4.353 13.491c-.8-3.658 1.235-7.564 4.341-9.502-2.315 2.684-4.061 5.919-4.34 9.502Z"/>
  <path fill="#DD900A" d="M8.208 24.1c-3.71-2.11-6.16-6.364-5.851-10.654a10.24 10.24 0 0 1 1.49-4.72c.137-.219.287-.439.444-.645-2.178 6.036-.394 11.49 3.917 16.02Zm22.282-5.902c-2.496 5.275-7.891 8.63-13.578 9.418a13.034 13.034 0 0 0 3.022-.21c4.808-.876 9.287-4.38 10.556-9.207Z"/>
  <path fill="#DD900A" d="M18.437 26.738c6.162-3.389 9.077-11.35 6.332-17.865-.542-1.368-1.288-2.633-2.173-3.809 7.51 5.767 4.996 19.134-4.16 21.674Z"/>
  <path fill="#DD900A" d="M23.995 24.087c3.12-3.265 5.332-7.634 4.777-12.247-.124-1.287-.45-2.547-.86-3.772 3.915 5.242 1.613 12.93-3.917 16.019Z"/>
  <path fill="#DBEFFD" d="M16.857 8.806c.438.577.952 1.096 1.489 1.58.422.399 1.503 1.317 1.616 1.843.004.025.004.055.005.08a4.71 4.71 0 0 1-.153 1.36 7.95 7.95 0 0 1-.557 1.43c-.231.474-.487.936-.748 1.395-.217.382-.447.771-.671 1.152a5.3 5.3 0 0 0-.387.747 5.823 5.823 0 0 0-.42 2.17 7.352 7.352 0 0 0 .111 1.356v.003c.015.08.133.067.13-.014a10.24 10.24 0 0 1-.003-.136c-.013-1.084.145-2.198.634-3.172.114-.228.252-.449.4-.655.413-.591.811-1.195 1.176-1.818.369-.636.712-1.3.93-2.01a5.01 5.01 0 0 0 .216-1.873 1.031 1.031 0 0 0-.078-.33c-.147-.344-.413-.637-.684-.898a11.3 11.3 0 0 0-.15-.141c-.537-.488-1.127-.898-1.692-1.344-.394-.313-.78-.64-1.141-.992a10.197 10.197 0 0 1-.247-.248l-.01-.01a6.146 6.146 0 0 1-.145-.157l-.004-.005a4.436 4.436 0 0 1-.049-.054l-.007-.01a3.353 3.353 0 0 1-.023-.025l-.015-.019a2.97 2.97 0 0 1-.088-.108l-.011-.015c.149.33.359.63.576.918ZM16.213 3.9h.018c1.218.002 2.234.22 2.968.442.204.062.366.22.432.424.142.435.274.904.388 1.404.241 1.049.467 2.495.41 3.996l.267.187c.067.046.133.094.197.143a2.537 2.537 0 0 1 .46.451v-.002l.001.002-.426-.885-.003-.005-.002-.006-.002-.004-.002-.003s.107-.659.499-.891c.147-.088.365-.172.572-.024.325.231.44.453.439.652-.003.437-.566.76-.682.823.014.143.032.376.04.672v.003c.002.034.002.068.003.103v.007l.001.048v.066l.001.043a.48.48 0 0 0 0 .012v.25a150.083 150.083 0 0 0-.002.057l-.001.051v.025l-.002.033v.025l-.002.05-.001.028-.001.03-.002.03-.001.033a7.77 7.77 0 0 1-.006.109l-.001.026-.003.058-.002.025-.003.036-.001.024-.006.083v.003l-.004.04-.001.02a5.556 5.556 0 0 1-.004.04v.008a8.572 8.572 0 0 1-.008.085l-.002.018a6.285 6.285 0 0 1-.015.142l-.001.01-.005.046a9.892 9.892 0 0 1-.02.159l-.002.013-.02.15-.002.009a10.384 10.384 0 0 1-.026.161l-.008.053v.003l-.03.162-.001.004a8.977 8.977 0 0 1-.033.166 7.39 7.39 0 0 1-.504 1.563 5.29 5.29 0 0 1-.732 1.183c-.957 1.16-1.585 2.157-1.992 2.992-.446.916-.627 1.637-.687 2.166v.004a14.3 14.3 0 0 1-.004.036l-.003.03v.003l-.004.033v.008l-.002.022-.001.014-.001.016-.002.016v.012a3.34 3.34 0 0 0-.003.41c.003.046.01.091.02.135 1.115.094 1.892.293 1.922.524l.332 1.608-.002.001a.343.343 0 0 1-.244.399 12.77 12.77 0 0 1-3.444.477h-.012V3.9Z"/>
</svg>
