<svg width="132" height="28" viewBox="0 0 132 28" fill="none" xmlns="http://www.w3.org/2000/svg">
<path d="M119.358 0.0578785C120.953 0.0578785 121.482 0.893961 121.825 1.86278L132 27.8226L126.187 27.8246L124.184 22.7177H117.559L119.37 17.6051H122.181L118.617 8.51659L111.78 27.8246L106.359 27.8226L115.553 1.86278C115.895 0.894957 116.424 0.0578785 118.021 0.0578785H119.358ZM94.2235 16.4507H106.78V11.4164H94.2227L94.2235 8.78123C94.2235 5.87478 95.2356 5.15982 97.8439 5.15982H107.943V0.0502453H97.538C92.7169 0.0502453 88.808 2.21387 88.808 8.19918V25.7811C88.808 27.0741 89.6603 27.8188 90.8445 27.8188H94.2331L94.2235 16.4507ZM85.0547 5.15982V0.0497494H67.9562C66.7729 0.0497494 65.9185 0.794907 65.9185 2.08595V19.6697C65.9185 25.656 69.8275 27.8188 74.6497 27.8188H85.0547V22.7081H74.9545C72.3473 22.7081 71.335 21.9943 71.335 19.0886V16.4507H83.8905V11.4164H71.335V5.15982H85.0547ZM44.5368 20.8127C43.1688 19.4177 42.7301 18.0228 42.7357 15.0767L42.7319 0.0497494H37.3154V16.4852C37.321 19.9181 38.3313 22.5753 40.4045 24.6016C42.7433 26.8933 45.6105 27.9652 49.3011 27.9746C52.9897 27.9652 55.8588 26.8933 58.1977 24.6016C60.2709 22.5753 61.2803 19.9181 61.285 16.4833V0.0497494H55.8694L55.8665 15.0767C55.8723 18.0228 55.4336 19.4177 54.0644 20.8127C52.9476 21.9674 51.1802 22.6024 49.3011 22.5984C47.4212 22.6004 45.6548 21.9674 44.5368 20.8127Z" fill="#001B58"/>
<path d="M30.6739 -0.000875473H27.3603L26.6699 1.94838H26.6632L24.1308 9.09879L21.6633 3.13621L20.434 -0.000875473L16.8625 0.000286102L22.3712 14.0551L20.0205 20.6919H20.0202L19.8362 21.2021H21.2092H21.9515H22.0314C23.0106 21.2021 23.3355 20.6881 23.5459 20.0935L26.539 11.643C26.5448 11.6271 26.5536 11.6132 26.5594 11.5971L27.2229 9.72349C27.2328 9.69744 27.247 9.67421 27.2564 9.64766L30.6739 -0.000875473Z" fill="#001B58"/>
<path d="M13.4228 -0.000875473H11.1687V0.00459862L11.1611 -0.000875473L9.31122 5.22186H9.3069L7.23885 11.0607L5.17096 5.22186H5.16648L3.31662 -0.000875473L3.30583 0.00708771V-0.000875473H1.05162C0.470888 -0.000875473 0 0.469845 0 1.05057V21.2021H3.30583V9.32295L3.42049 9.64766C3.42662 9.66492 3.43608 9.67969 3.44239 9.69678L5.27483 14.8704C5.27516 14.8719 5.27599 14.8729 5.27649 14.8742L5.73493 16.1687C6.23652 17.5845 8.2387 17.5849 8.74078 16.1691L9.19524 14.8877C9.1974 14.8818 9.20088 14.8765 9.20287 14.8704L11.0353 9.69678C11.0416 9.67969 11.0511 9.66492 11.0572 9.64766L11.1687 9.33191V21.2021H14.4744V1.05057C14.4744 0.469845 14.0037 -0.000875473 13.4228 -0.000875473Z" fill="#001B58"/>
<path d="M0 24.6686V27.9746H29.5481L30.7192 24.6686H0Z" fill="#001B58"/>
</svg>
