<?xml version="1.0" encoding="UTF-8"?>
<svg width="396px" height="288px" viewBox="0 0 396 288" version="1.1" xmlns="http://www.w3.org/2000/svg" xmlns:xlink="http://www.w3.org/1999/xlink">
    <!-- Generator: sketchtool 50.2 (55047) - http://www.bohemiancoding.com/sketch -->
    <title>7FBF8762-126D-4896-8FAA-56F7395D09B4</title>
    <desc>Created with sketchtool.</desc>
    <defs></defs>
    <g id="Symbols" stroke="none" stroke-width="1" fill="none" fill-rule="evenodd" opacity="0.08">
        <g id="Branding-/-UCL-/-Background-/-Graphic-Generic" fill="#1D1D1B">
            <path d="M259.568485,134.578902 C251.500652,157.2414 243.156369,175.669664 235.829339,190.072111 C233.72248,180.969747 231.049761,170.368501 228.443995,161.069598 C225.846868,151.768535 221.871806,138.584201 219.660198,131.794954 C214.811507,131.83275 171.443264,132.412649 171.443264,132.412649 C171.145216,132.416969 170.900081,132.59083 170.895762,132.802488 C170.890362,133.013066 171.127937,133.199886 171.425986,133.218244 L216.549045,136.034589 C219.389146,144.704998 222.149336,153.397004 224.742144,162.134366 C227.482896,171.341479 231.187987,184.767708 233.474107,194.623832 C225.569337,209.485231 215.155991,227.336835 203.580688,241.677728 C193.976177,239.817084 170.172238,235.19301 139.939734,221.916885 C134.645051,214.911661 129.807159,207.571672 125.498412,199.928235 C120.892696,191.778331 116.881997,183.297982 113.280576,174.637292 C127.339618,156.711176 137.052118,146.767581 154.45125,131.184818 C172.263978,115.230574 195.527974,98.7774233 207.26742,90.8845326 C204.587142,82.743268 200.929566,72.5210621 197.627273,64.2534508 C194.854124,57.3108603 192.402782,51.8066786 190.543217,47.8974894 C198.059228,50.975166 205.426214,54.4156845 212.625817,58.1726097 C220.69041,62.3982057 232.191201,69.3256779 237.242911,72.6582077 C240.417777,71.0437773 248.217797,66.8948533 256.132286,63.2297184 C263.193664,59.9609018 270.372749,57.1445578 274.018446,55.8033387 C274.033565,59.9555024 273.882381,67.5211875 273.177215,75.0523161 C272.395377,83.3933597 270.993684,91.7462821 269.726977,96.5755346 C277.60259,104.03863 295.770601,125.001388 305.620246,138.260235 C291.908927,136.68468 281.040949,135.818611 259.568485,134.578902 M91.7055226,196.664818 C88.4788216,200.474658 82.6009992,210.411774 78.0028423,223.817485 C74.9046479,215.460243 72.6358063,206.812512 71.3032263,198.024395 C69.9036933,188.884236 69.5084549,179.581013 69.55489,170.084491 C66.1986026,164.490679 62.5442666,157.113974 59.9503792,148.756732 C57.2841393,140.164075 56.9850107,135.586436 56.7927909,130.543366 C62.1673862,131.06927 66.9502037,131.434272 73.7988441,131.977455 C75.7145628,125.341552 79.0060569,115.012437 83.3990353,104.643367 C87.856807,94.1241922 93.3307518,84.1503602 95.5315605,80.3675177 C94.6881692,87.8954067 94.1212287,94.2472993 94.651453,105.834482 C95.1957158,117.711074 97.3986844,129.783125 97.8166004,132.532517 C101.779784,132.447205 127.854724,132.453685 127.854724,132.453685 C128.153853,132.453685 128.400067,132.280903 128.406546,132.070325 C128.413026,131.858667 128.17761,131.666448 127.879562,131.64161 C127.879562,131.64161 105.522671,129.749649 100.629705,129.302576 C99.972054,125.804823 98.2280372,117.205687 97.2723376,105.554791 C96.241046,92.9730332 97.2723376,82.4722165 97.9461868,76.2855466 C102.731164,68.5082037 107.996691,61.0019125 114.09589,54.2288641 C118.907864,48.8845057 126.442233,41.1471187 135.369655,35.0705971 C142.240973,34.8729779 147.528097,35.1407898 158.179018,37.4269095 C169.717606,39.9041693 181.95488,44.5185244 186.068168,46.1102772 C188.254938,50.8434198 191.342333,58.2978766 194.047449,65.6475843 C197.037655,73.7704908 199.575388,81.6536625 201.874467,89.0282077 C188.609141,98.2990335 169.10531,112.710119 152.134893,128.247527 C134.742241,144.171534 121.859194,157.781344 109.770944,174.1859 C112.625084,180.967587 118.127106,192.849579 123.003874,201.346126 C126.609615,207.645104 130.570639,213.741064 134.84267,219.604848 C120.366791,212.933309 102.882348,203.234848 91.7055226,196.664818 M328.925277,88.7118009 C328.80325,88.4396695 328.565675,88.2766066 328.370216,88.3575981 C328.174756,88.4385896 328.100244,88.730159 328.203913,89.0098496 C332.119582,99.5571014 335.334404,110.743646 336.379734,119.308226 C337.502816,128.515339 337.409946,137.497835 336.543877,142.377842 C330.589382,141.508533 321.158733,140.241826 309.86204,138.734305 C309.850161,138.718107 309.838283,138.700828 309.826404,138.68355 C297.189572,121.303856 283.520368,104.832347 274.36401,95.277511 C275.541086,87.2593535 276.247332,81.4344456 276.561579,75.4875104 C276.874746,69.5405753 276.795915,63.471613 276.400676,54.9653467 C286.020305,51.7375659 292.556859,50.2084466 303.845992,48.6663686 C300.314763,43.0941541 297.927134,39.9894803 292.435911,34.6883173 C287.704928,30.1193174 282.17159,26.9314923 280.73966,26.0837814 C280.482647,25.9325973 280.184599,25.9649939 280.07985,26.1485746 C279.975101,26.3321553 280.096048,26.6086063 280.345502,26.7716691 C282.149992,27.9465857 287.218979,31.4367789 291.150846,35.4885132 C295.864551,40.344763 298.177668,43.856554 300.05991,46.8294816 C290.609823,48.0411143 284.446911,49.2981022 276.156622,51.8099183 C275.781901,47.5476061 275.235479,43.3014923 274.449321,39.0985739 C273.32192,32.9993748 271.681572,26.9941257 269.468884,21.214573 C269.361976,20.9359623 269.113602,20.7696598 268.914903,20.8430921 C268.717283,20.9165243 268.634132,21.204854 268.727002,21.4888642 C270.6492,27.3105325 271.98826,33.3060625 272.816533,39.364226 C273.423429,43.7269676 273.776552,48.1188661 273.938535,52.517244 C268.742121,54.2655803 261.722858,56.8724263 254.151774,60.0613313 C248.443494,62.4662386 242.19419,65.3192988 237.449169,67.725286 C229.949357,63.0666555 222.253006,58.7287513 214.363355,54.7774465 C206.102223,50.6587592 196.03552,46.2409434 188.509791,43.5099104 C183.454842,33.0663277 180.258378,26.5891683 179.376111,24.8948263 C177.145065,20.6087567 175.19587,16.941462 172.586864,12.1500055 C178.179596,9.7407786 185.313327,6.88339883 195.040945,4.87157022 C204.637896,2.88781866 213.637671,2.60920794 219.108376,2.72583568 C223.791844,2.82626513 225.217294,2.99580731 225.217294,2.99580731 C225.217294,2.99580731 224.441936,2.81546626 219.217445,1.89108339 C213.257551,0.837114134 207.238263,0.253975406 201.204937,0.0671550359 C194.931876,-0.12722454 188.644777,0.107110838 182.393314,0.68269036 C169.951941,1.87056555 157.644474,4.6491136 145.919066,9.02265406 C134.215256,13.4447894 123.105383,19.4791954 113.118593,27.0157235 C108.142475,30.8028855 103.405013,34.9042946 98.9958365,39.3329093 C94.7324445,43.6502956 90.7433437,48.2311743 87.0425725,53.0291102 C86.8611516,53.2645254 86.8492728,53.5614942 87.0166552,53.6910806 C87.1829578,53.820667 87.4702076,53.7364359 87.6570279,53.5042603 C91.4225923,48.8251119 95.460288,44.3662604 99.7560767,40.1806202 C104.208449,35.842716 108.937272,31.797461 113.928508,28.1010094 C123.883981,20.7405028 134.857788,14.7741297 146.45685,10.4545836 C158.033233,6.07024427 170.212194,3.32841237 182.5283,2.02714909 C188.687972,1.3694982 194.89192,1.09952656 201.089389,1.19563646 C204.755604,1.25287045 208.432618,1.43861093 212.088034,1.77877519 C208.0255,1.8500477 201.523504,2.24744595 194.641387,3.40400442 C187.016308,4.68690963 177.889107,7.30131492 169.443314,11.0765982 C171.413027,14.9868674 174.190496,20.5353244 176.916129,26.1723321 C179.687118,31.9043698 182.407352,37.7292778 184.294994,41.9980692 C180.663336,40.7205635 169.541584,36.9312416 158.499744,34.7520306 C147.848823,32.6494915 141.613559,32.2553329 134.615894,32.825513 C124.922832,39.2897138 117.796661,46.5983859 112.372391,52.7116235 C106.665191,59.1455875 102.86939,64.4294723 98.7453029,70.7316901 C99.238811,67.715567 99.7981922,64.7091629 100.474201,61.7243565 C102.133987,54.3573706 104.325077,47.1070124 106.894127,39.9873205 C106.994556,39.70655 106.916804,39.4193002 106.719185,39.3437081 C106.522646,39.269196 106.273192,39.4322588 106.164123,39.7097897 C103.387735,46.7819666 100.979588,54.010727 99.0973459,61.3939113 C97.9947817,65.6994189 97.1600294,69.9077367 96.4386652,74.3007151 C91.6666466,82.1784874 86.9367436,90.7895026 81.1334334,104.028911 C76.2480267,115.17442 73.0332045,126.335048 72.0969429,129.638421 C66.8843306,129.756128 60.3099814,129.773406 56.0357905,129.716172 C55.8856862,135.558359 56.1124624,140.518277 58.5972813,149.234042 C61.0129875,157.712231 64.4977813,165.463656 67.2633708,170.678428 C67.4393923,179.914698 68.1423984,189.171485 69.7946248,198.277089 C71.449011,207.477722 73.3150549,214.271288 77.9985228,226.05825 C80.8796601,218.779814 85.2683189,208.565168 92.2573446,199.651784 C107.127382,208.482016 122.319226,216.791743 138.132004,223.922234 C145.100512,233.077512 160.485656,250.489602 179.065103,266.722457 C176.509012,268.538826 173.749902,270.193212 170.937877,271.651059 C167.698218,273.329203 164.326812,274.753573 160.857137,275.857217 C157.387461,276.952222 153.811957,277.717862 150.196497,277.992153 C146.826171,278.259965 143.40941,278.146576 140.126555,277.372298 C136.454941,276.505149 133.759544,275.561328 133.759544,275.561328 C133.759544,275.561328 136.635282,277.1628 139.534777,278.49214 C149.981599,283.282517 160.166009,285.976834 170.907641,287.242461 C181.721624,288.531845 192.717029,288.167923 203.408986,286.20685 C203.702715,286.152855 203.910053,285.939038 203.871177,285.731699 C203.833381,285.523281 203.564489,285.398015 203.26968,285.447689 C192.631718,287.271618 181.733503,287.503793 171.049106,286.10318 C162.340901,284.974699 153.796838,282.763091 145.581062,279.686495 C147.156616,279.784764 148.73865,279.808522 150.312045,279.710252 C154.087328,279.488875 157.811857,278.755632 161.418678,277.686545 C165.025499,276.607738 168.523251,275.198486 171.888178,273.528982 C175.258503,271.848678 179.927933,268.981579 182.71188,266.930875 C161.618457,247.454041 154.593795,240.244719 143.348936,226.270987 C156.322693,232.107774 177.38588,239.595707 204.704849,245.012418 C211.607484,237.346303 225.849028,216.682675 234.751612,199.958472 C238.381111,215.324177 244.48571,244.335329 245.142281,247.268301 C247.99858,247.314736 254.963849,246.765074 259.32983,246.235929 C263.51871,245.724063 267.682752,245.106368 271.839235,244.448717 C272.134044,244.402282 272.351102,244.194944 272.324104,243.985446 C272.297107,243.774868 272.035775,243.628003 271.738806,243.655001 C267.556405,244.04484 263.370765,244.394723 259.187285,244.635538 C255.159308,244.863394 251.14105,244.970302 247.14439,244.829917 C243.928488,228.410242 240.744983,211.975449 237.089567,195.615168 C246.19733,178.619914 254.915254,159.249989 262.497137,139.046392 C281.427548,139.723481 292.052552,140.468603 308.353439,141.905932 C310.488374,144.808667 316.90398,153.377566 322.52047,163.233691 C326.703951,170.576919 330.633658,179.261367 332.085025,184.592766 C332.971612,187.847544 332.70704,188.977106 332.466225,189.812938 C332.22541,190.64877 331.46517,193.12603 330.877712,194.765298 C330.257857,196.426163 329.611005,198.079469 328.919878,199.714418 C327.540863,202.987554 326.056019,206.219654 324.42647,209.378322 C322.792602,212.533751 321.044265,215.630865 319.143665,218.63403 C317.302458,221.457933 315.328426,224.194365 313.183771,226.792572 C312.993711,227.022588 312.967794,227.320637 313.127617,227.458862 C313.28744,227.596008 313.57469,227.525815 313.76691,227.297959 C318.288395,221.949281 322.062598,216.025024 325.395128,209.888029 C327.103509,206.73692 328.666104,203.510219 330.125031,200.234923 C330.857194,198.597815 331.544002,196.940189 332.207052,195.270684 C332.848505,193.563384 333.600106,191.281584 333.954309,190.160661 C334.308512,189.039739 334.80418,187.50954 333.951069,183.904879 C332.980251,179.79807 330.524589,172.597387 324.586293,161.831998 C319.802396,153.157269 314.426721,145.298935 312.33714,142.273093 C319.428755,142.881069 330.409041,144.159655 338.427199,144.924215 C339.853729,135.663108 339.409896,129.193507 337.962848,119.148403 C336.69938,110.378644 332.950014,97.7223741 328.925277,88.7118009" id="Fill-1"></path>
        </g>
    </g>
</svg>