<svg xmlns="http://www.w3.org/2000/svg" width="32" height="32" fill="none" viewBox="0 0 32 32">
  <path fill="#fff" d="m23.363 10.199.303.89 2.06-.213-1.795.969.264.77 4.173-2.217 2.549-.77h.026l-6.577 3.505.067.199L32 9.296l-8.637.903ZM19.969 9.11 19.4 7.451l-1.836 1.925-1.387.146 3.58-3.704 1.109 3.2-.898.092Zm-2.166 9.28 2.549-1.355.383.425-2.113 1.181.264.173 2.086-1.049.383.425-1.901 1.009.33.199 1.783-.956.37.425-1.625.863.33.199 1.519-.81.37.425-1.347.717.303.186 1.268-.65.37.424-1.096.558 2.43 1.5-2.14-6.28.185-.105 2.338 6.862-7.04-4.367Z"/>
  <path fill="#fff" d="m26.123 24.243-2.998-8.681-.198.093 2.8 8.097-8.453-5.084-.21.12 9.059 5.455Zm-22.121-.916 6.458-6.783.198.106-4.636 4.872 6.696-3.624.713.425-9.43 5.004Z"/>
  <path fill="#fff" d="m14.184 18.787-.211-.132L1.07 25.518l8.928-9.266-.185-.106L0 26.327l14.184-7.54Zm-4.609-4.5L5.85 12.044l6.524-.69-.938.982-2.562.265 1.453.903-.146.16-1.941-1.208-1.73-.253 3.21 1.925-.146.16Zm5.943 3.638 3.685-1.965-.132 1.102-3.513 1.871-2.444-1.473.013-.982 2.391 1.447Z"/>
  <path fill="#fff" d="m23.244 11.885-.78.08.37 1.088-3.75.385a.843.843 0 0 0-.198-.425 1.255 1.255 0 0 0-.45-.319 2.04 2.04 0 0 0-.607-.159 3.237 3.237 0 0 0-.713.013c-.251.04-.489.093-.726.173-.238.08-.463.186-.66.305a3.43 3.43 0 0 0-.542.412 1.782 1.782 0 0 0-.344.438l-3.182.318 1.188-1.234-1.307.133-2.074 2.163 2.404 1.447 1.056-.358-2.1-1.274.555-.585 3.341-.345a.856.856 0 0 0-.026.478c.04.173.132.332.277.465.146.146.344.252.595.318.25.067.554.107.885.08.33-.026.66-.093.977-.212.317-.106.607-.266.845-.438.251-.173.436-.372.581-.571.12-.186.198-.372.225-.558l3.843-.398.198.57-3.579 1.912 1.189.385 3.367-1.792-.858-2.495Zm-.898-.265.607-.598-.541-1.58-3.368.359-.832.969 1.15-.12s-.027.186-.04.24a.481.481 0 0 1-.238.225c-.198.106-.37.16-.66.186l-.365.033a90.29 90.29 0 0 1-.943.086c-.185.013-.317 0-.396-.013-.251-.053-.251-.173-.238-.213l.08-.239 1.175-.119-.37-.85-3.183.332-1.81 1.899.74.464 1.453-1.513 1.717-.186s-.04.12-.066.186a.238.238 0 0 0 0 .212c.04.08.119.16.277.226.159.066.423.093.647.066a60.63 60.63 0 0 1 1.308-.12 2.35 2.35 0 0 0 .594-.132c.198-.08.317-.16.423-.252a.454.454 0 0 0 .119-.252l.04-.292 2.297-.24.423 1.235Zm4.292 11.973h-.515v.066h.224v.571h.08v-.57h.211v-.067Zm.436.385.211-.385h.093l.04.637h-.08l-.026-.558-.212.372h-.066l-.211-.358-.026.544h-.08l.04-.637h.092l.225.385Z"/>
</svg>
