<svg xmlns="http://www.w3.org/2000/svg" width="32" height="32" fill="none" viewBox="0 0 32 32">
  <g clip-path="url(#a)">
    <path fill="#EC6408" d="M3.742 16.243c0 6.974 5.655 12.629 12.629 12.629 6.974 0 12.629-5.655 12.629-12.63C29 9.27 23.345 3.615 16.37 3.615c-6.973 0-12.628 5.655-12.628 12.629Zm3.27-.1c0-5.88 4.9-10.649 10.944-10.649C24 5.494 28.9 10.262 28.9 16.143c0 5.88-4.9 10.648-10.944 10.648-6.044 0-10.944-4.768-10.944-10.648Z"/>
    <path fill="#F39118" d="M17.13 18.007a14.317 14.317 0 0 0-.516-.12c-4.12-.858-7.74-.069-9 1.75a10.513 10.513 0 0 0 1.553 2.852c-.384-.76-.6-1.503-.439-2.146.578-2.315 3.87-3.298 7.72-2.338.216.055.425.114.635.177l.022-.095c.005-.012.02-.064.025-.08Z"/>
    <path fill="#F39118" d="m17.376 18.073-.016.08c.17.123.318.19.466.286h-.002c.214.08.423.164.625.253 1.992.88 3.481 2.207 3.989 3.585.031.09.061.178.084.267l.002.006c.016.057.03.116.04.173v.005c.008.027.012.057.017.084l.002.009a1.936 1.936 0 0 1 .025.18l.007.081v.012c.002.027.005.054.005.082v.002l.002.082v.104c0 .025-.003.05-.005.075v.01l-.007.08c0 .004 0 .01-.002.015-.002.027-.007.052-.009.08v.007c-.005.024-.007.05-.011.075l-.003.013-.015.078-.003.015-.018.08-.016.061c-.002.005-.002.012-.005.016l-.013.048c-.002.005-.002.01-.005.016-.013.04-.027.084-.043.125 0 .002-.002.002-.002.005-.01.02-.016.043-.025.063-.248.594-.755 1.162-1.442 1.653a8.13 8.13 0 0 1-1.642.821c-4.702 1.788-10.093 1.31-13.352 0C2.748 25.393 2 24.7 2 24.7c4.698 5.231 14.63 6.032 19.305 3.171 1.426-.873 2.135-1.807 2.431-2.683a.017.017 0 0 1 .01-.005c.006-.018.013-.036.017-.054.933-2.82-2.123-5.905-6.387-7.056Zm.58-12.577c-2.827 0-5.4 1.042-7.343 2.752 1.922-1.35 4.896-2.144 7.45-1.903 5.675.534 11.29 5.4 10.778 10.919.038-.369.059-.741.059-1.121 0-5.88-4.9-10.647-10.944-10.647Z"/>
    <path fill="#F39118" d="M22.872 21.52a1.221 1.221 0 1 0 0-2.442 1.221 1.221 0 0 0 0 2.442Z"/>
    <path fill="#EC6408" d="M22.872 21.518a.985.985 0 1 0 0-1.969.985.985 0 0 0 0 1.97Z"/>
    <path fill="#F39118" d="M14.286 16.27c-.027.04-.052.08-.08.12a2.542 2.542 0 0 0-.839-.423c-.107-.029-.314-.07-.88-.113-.964-.075-1.125-.041-1.316-.207-.219-.189-.175-.378-.405-.507-.241-.137-.537-.07-.74 0-.083-.048-.433-.237-.818-.107-.257.086-.582.337-.536.564.025.123.152.22.268.255.134.038.252-.01.31-.028.174-.052.459-.02.94.364a1.02 1.02 0 0 0 .566.014c.46.123.813.268 1.05.375 1.434.662 2.243 1.223 2.243 1.223.087.06.282.198.537.189a.37.37 0 0 0 .086-.016c.26-.061.116-.059.444-.32.114-.091.09-.064.361-.269.13-.098.478-.35.558-.414a4.762 4.762 0 0 1 1.039 1.285c.025-.148.127-.634.563-1.005.278-.236.569-.32.726-.355a1.659 1.659 0 0 0-1.003 1.258c.314.225.56.264.848.639.03.036.057.084.084.138.169.326.223.937.232 1.015.028.277.226.564.619 1.134.593.862.92.944.903 1.342a1.38 1.38 0 0 1-.007.075 1.929 1.929 0 0 0-.01.31c.005.115.008.174.042.222a.27.27 0 0 0 .12.086c.134.062.303.139.555.153.082.004.107-.003.182.009.068.011.116.034.127.038.073.032.348.082.671.05.227-.022.384-.038.439-.15.038-.077.009-.161.007-.168-.037-.1-.137-.13-.282-.198 0 0-.235-.109-.476-.277-.13-.091-.259-.198-.322-.25a2.818 2.818 0 0 1-.132-.114c-.078-.073-.114-.116-.17-.161-.04-.03-.05-.028-.092-.06a.8.8 0 0 1-.109-.102 1.499 1.499 0 0 1-.155-.207c-.145-.245-.532-1.369-.627-1.648-.262-.776-.325-1.13-.339-1.294a1.14 1.14 0 0 1-.005-.157c.003-.07.01-.236-.045-.444a1.635 1.635 0 0 0-.339-.632 7.422 7.422 0 0 1-.257-.343s-.08-.111-.148-.218c-.19-.294-.282-.516-.516-.98a31.567 31.567 0 0 0-.204-.396 2.15 2.15 0 0 1-.098-.602c-.01-.41.104-.767.17-.98.055-.173.13-.369.187-.67.009-.045.02-.122.036-.224.02-.134.037-.298.041-.51-.007.264.016.303.173.41a.42.42 0 0 0 .189.068c.182.218.384.443.604.67.45.467.712.685.712.685.169.155.239.212.323.337.168.252.102.348.241.59.169.292.5.556.691.479.06-.026.091-.078.114-.114.1-.166.041-.387-.048-.516-.082-.123-.159-.128-.309-.235-.148-.109-.245-.252-.43-.536a7.41 7.41 0 0 1-.416-.719c-.22-.439-.216-.548-.395-.818a2.433 2.433 0 0 0-.364-.43 1.132 1.132 0 0 0-.698.396c0-.023.002-.305.24-.471a.565.565 0 0 1 .58-.032 2.724 2.724 0 0 1-.347-.443c-.341-.537-.31-.892-.655-1.278a1.7 1.7 0 0 0-.457-.357c.032-.012.084-.05.145-.15a.37.37 0 0 0 .057-.198c.03-.003.096-.012.125-.06.007-.01.014-.031.01-.11-.012-.133-.037-.171-.017-.233a.27.27 0 0 1 .05-.077c.078-.096.153-.152.166-.164.064-.05.114-.19.05-.593a.147.147 0 0 0 .055-.057c.089-.168-.198-.528-.468-.723-.335-.241-.785-.337-1.158-.223-.182.057-.339.16-.332.18.005.013.098-.025.189.018a.235.235 0 0 1 .098.088.643.643 0 0 0-.51.293c.014-.01.094-.079.198-.063.039.007.07.023.089.037a.839.839 0 0 0-.134.295c-.043.182-.034.407.025.512a.222.222 0 0 1 .03.082.247.247 0 0 1-.03.138c-.08.166-.1.237-.134.282 0 .003-.003.003-.003.003.03.09.134.386.432.598.34.238.732.177.73.197-.002.025-.5.137-.97-.113a1.373 1.373 0 0 1-.556-.56 3.996 3.996 0 0 1-.416.241 4.76 4.76 0 0 1-2.205.498 1.948 1.948 0 0 0 .484.807 1.258 1.258 0 0 1-.637-.632 2.64 2.64 0 0 1-.493.073c-.182.01-.316-.004-.466-.018-.316-.03-.337-.07-.537-.08-.177-.009-.204.019-.6.073-.22.03-.389.043-.726.073-.511.043-.6.032-.698 0a5.636 5.636 0 0 1-.375-.143c-.198-.084-.2-.098-.25-.098-.286-.002-.466.475-.493.546-.044.111-.037.154-.019.18.053.065.246.05.36-.046.043-.037.052-.066.088-.073.069-.009.103.08.198.152.182.14.425.087.448.08a.552.552 0 0 0 .232-.116c.537.11.955.212 1.244.287.257.066.443.12.716.116.325-.005.51-.091.753-.153.282-.07.696-.125 1.255-.025.064.048.13.096.193.141a.612.612 0 0 1 .662-.111c.168.23.482.723.577 1.428a3.165 3.165 0 0 1-.23 1.669 1.81 1.81 0 0 1 .99-.191c.89.09 1.357.852 1.414.948-.12-.146-.54-.612-1.223-.698-.12-.016-.741-.082-1.114.25a1.228 1.228 0 0 0-.257.327c-.082.16-.087.262-.12.362-.053.152-.198.35-.617.514a4.617 4.617 0 0 0 1.19 1.078 1.931 1.931 0 0 1-.87-.43 2.2 2.2 0 0 1-.347-.423Z"/>
    <path fill="#EC6408" d="M17.214 7.995a1.167 1.167 0 0 0-.493.12.376.376 0 0 1 .232-.004c.014.005.09.03.09.062 0 .022-.045.032-.1.061-.083.043-.129.11-.165.162-.141.202-.046.502-.03.545.005.012.018.037.03.075.016.055.014.094.016.144 0 0 .004.063.025.154.043.187.18.216.168.316-.011.093-.134.1-.161.194-.02.07.018.186.259.377.066.034.166.075.293.098.168.03.323.016.323.032 0 .004-.011.011-.068.022a.601.601 0 0 0 .116-.02c.066-.018.204-.066.202-.111-.004-.055-.2-.069-.198-.1.003-.023.119-.04.184-.044.057-.002.096-.002.162-.013.045-.007.09-.025.09-.037-.001-.016-.106.01-.188-.052-.007-.005-.08-.061-.075-.139.007-.088.107-.159.18-.143.022.004.059.023.066.052.011.046-.05.087-.037.107.01.014.046.005.087-.004.04-.01.063-.014.07-.023.046-.052-.08-.182-.036-.3a.385.385 0 0 1 .038-.075c.01-.012.028-.041.06-.07l.052-.044c.027-.023.04-.034.039-.039-.005-.032-.214.018-.264-.063-.025-.041-.003-.105.007-.13.018-.057.043-.055.052-.091.023-.093-.118-.15-.123-.284 0-.012-.002-.082.039-.13.104-.118.368.034.416-.032.066-.09-.277-.611-.832-.786a1.408 1.408 0 0 0-.75-.02.74.74 0 0 1 .534.136c.08.061.132.131.166.186a1.167 1.167 0 0 0-.476-.089Zm-8.317 3.209a.388.388 0 0 0 .202-.082c.043-.037.052-.066.089-.073.068-.009.102.08.197.152.182.14.426.087.448.08a.552.552 0 0 0 .232-.116c.537.11.955.212 1.244.287.257.066.444.12.716.116.326-.005.51-.091.753-.153a2.94 2.94 0 0 1 1.255-.025 7.9 7.9 0 0 0 .194.141.613.613 0 0 1 .662-.111c.068.09.156.227.247.398a1.168 1.168 0 0 1 .944 1.064 1.167 1.167 0 0 0-.464-.31c.211.248.234.42.207.533-.03.122-.125.213-.087.275.034.054.135.002.241.052.105.048.157.16.185.25a.91.91 0 0 0-.335.12.936.936 0 0 0-.363.424c.102-.039.259-.084.452-.094.407-.02.71.137.891.232.635.337.949.921 1.06 1.16a6.476 6.476 0 0 0-.214-1.125c-.166-.587-.384-1.046-.32-1.083.072-.04.45.56.548.507.034-.018.011-.107.011-.15-.007-.405-.243-.534-.366-.987a1.855 1.855 0 0 1-.02-.855c.02.264.095.448.163.569.093.17.191.252.266.457.053.145.066.277.07.366.058-.11.135-.275.194-.489.132-.473.091-.873.068-1.078-.04-.364-.095-.307-.125-.646-.016-.177-.018-.311-.116-.438a.525.525 0 0 0-.213-.155 1.005 1.005 0 0 0-.228-.066 1.44 1.44 0 0 1-.853-.148c-.018-.009-.036-.022-.054-.032-.203-.04-.407-.084-.61-.125-.348.146-.645.257-.873.337-.807.284-1.119.32-1.416.216a1.16 1.16 0 0 1-.18-.08c.016.039.032.08.052.123.116.246.264.428.387.55a1.223 1.223 0 0 1-.36-.238 1.703 1.703 0 0 0-.12-.025s-.698-.14-1.38-.075c-.212.02-.169.034-.482.075-1.046.143-1.576.216-2.001-.05-.12-.078-.296-.219-.469-.164-.116.036-.19.145-.227.202a.583.583 0 0 0-.102.287Zm9.423-.121c.154.314.186.571.184.753-.003.296-.098.985-.034 1.032a.58.58 0 0 0 .03.018c.113.035.502.164.727.55.086.15.125.294.14.401.38.384.599.569.599.569.168.154.239.21.323.336.168.252.102.348.24.591.126.214.335.412.515.47.068-.06.118-.14.109-.217-.007-.069-.087-.19-.087-.19-.115-.113-.136-.12-.136-.12-.091-.03-.148.062-.223.034-.068-.024-.09-.122-.102-.172-.048-.191-.166-.362-.223-.55-.1-.328-.262-.292-.482-.774-.237-.52-.211-.81-.516-1.048-.134-.105-.278-.161-.35-.216a1.156 1.156 0 0 0-.357.284.669.669 0 0 1 .24-.47.618.618 0 0 1 .18-.094 2.437 2.437 0 0 1-.334-.439c-.26-.443-.314-.882-.389-.87-.016 0-.036.022-.054.122Z"/>
    <path fill="#EC6408" d="M22.133 22.985c.013.09-.01.134-.027.157-.105.125-.471.052-.658-.162-.059-.066-.038-.073-.097-.166-.171-.261-.54-.448-.819-.495-.039-.007-.102-.014-.15-.064-.077-.08-.066-.218-.043-.32-.043-.03-.084-.062-.128-.092a6.64 6.64 0 0 0-.53-1.296c-.072-.134-.509-.998-.516-1.462 0-.032.035-.337-.025-.723-.036-.236-.08-.325-.136-.396-.027-.034-.11-.134-.437-.254-.382-.141-.532-.107-.573-.196-.04-.089.041-.268.532-.664a88.726 88.726 0 0 1-.434-.673l-.3-.473a1.492 1.492 0 0 0-.02-.109c-.01-.034-.021-.082-.041-.134 0 0-.04-.102-.103-.205-.134-.159-.548-.598-1.207-.682-.043-.005-.152-.018-.293-.016-.078.007-.5.045-.74.387-.22.311-.181.725-.047 1.002.22.455.58.494 1.114 1.049.282.293.46.58.56.764.04-.105.213-.519.666-.742.28-.136.54-.138.673-.13l.006-.002s-.002 0-.002.003l.025-.002a.938.938 0 0 0-.061.018 1.653 1.653 0 0 0-.61.459c-.257.312-.33.632-.354.78.314.225.559.264.848.639.03.036.057.084.084.139.168.325.223.936.232 1.014.027.277.225.564.618 1.134.594.862.921.944.903 1.342a1.29 1.29 0 0 1-.007.075 1.94 1.94 0 0 0-.009.31c.005.115.007.174.041.222.03.041.068.064.12.087.135.061.303.138.556.152.081.005.106-.002.181.009.069.011.116.034.128.039.072.032.348.082.67.05.267-.025.396-.055.44-.15.036-.073.002-.164-.03-.223Z"/>
    <path fill="#EC6408" d="M16.02 16.977a1.515 1.515 0 0 1-.656-.345 1.278 1.278 0 0 1-.355-.508 1.162 1.162 0 0 1-.066-.281c-.068.054-.168.12-.298.172a1.228 1.228 0 0 1-.282.08 4.622 4.622 0 0 0 1.135 1.014 1.93 1.93 0 0 1-.869-.43c-.054-.047-.1-.095-.146-.143-.131.139-.122.177-.297.348-.682-.675-1.233-.819-1.617-.816-.225 0-1.026.052-1.367-.155-.082-.05-.168-.102-.223-.207-.063-.118-.036-.214-.12-.343a.554.554 0 0 0-.13-.139c.007.011.103.166.037.273-.057.09-.198.089-.275.089-.266-.005-.328-.169-.564-.164-.019 0-.112.03-.3.089-.33.102-.385.122-.49.125-.065.002-.306.006-.35-.1-.04-.103.116-.257.205-.346a.93.93 0 0 1 .202-.152c-.256.09-.57.334-.525.559.025.123.153.22.269.255.134.038.252-.01.309-.028.175-.052.46-.02.941.364a1.021 1.021 0 0 0 .566.014c.46.123.812.268 1.049.375 1.434.662 2.244 1.223 2.244 1.223.086.06.282.198.537.19a.37.37 0 0 0 .086-.017c.26-.061.116-.059.443-.32.114-.091.091-.064.362-.269.125-.098.455-.334.546-.407Z"/>
  </g>
  <defs>
    <clipPath id="a">
      <path fill="#fff" d="M2 3h27v27H2z"/>
    </clipPath>
  </defs>
</svg>
