<svg xmlns="http://www.w3.org/2000/svg" width="32" height="32" fill="none" viewBox="0 0 32 32">
  <path fill="#00A2E5" d="M28.778 16.486c-.043 6.843-5.651 12.36-12.537 12.333-6.886-.028-12.449-5.591-12.435-12.435C3.82 9.541 9.406 4 16.292 4c6.915.026 12.503 5.613 12.486 12.486Z"/>
  <path fill="#9BCD65" d="M27.01 22.895c-1.5-1.454-4.887-3.898-10.75-3.93h-.088a16.674 16.674 0 0 0-10.617 3.93 11.26 11.26 0 0 0 2.473 3.07 11.983 11.983 0 0 0 3.36 2.082c1.578.642 3.27.966 4.975.953h.142a12.114 12.114 0 0 0 4.709-.98 12.46 12.46 0 0 0 3.273-2.082 12.45 12.45 0 0 0 2.536-3.006l-.014-.037Z"/>
  <path fill="#fff" d="M10.206 19.783s.466-.201 1.108-.39l-.06.372-.582 3.163c1.833.406 3.705.615 5.583.622a26.46 26.46 0 0 0 6.01-.622l-1.101-3.612 1.098.35 1.223 3.916s-2.847 1.022-7.211.96a28.036 28.036 0 0 1-6.761-.907l.644-3.468.05-.384Zm6.087 8.049c.54-.051.953-.502.953-1.04 0-.54-.413-.99-.953-1.041-.54.05-.953.501-.953 1.04 0 .54.413.99.953 1.04Z"/>
  <path fill="#fff" d="M13.18 19.244v-3.528h6.142v3.498c.33.056.652.118.961.19v-4.7H12.18v4.767c.324-.086.659-.162 1-.227Z"/>
  <path fill="#0060A9" d="M23.638 12.83c.048 0 .128.035.147-.019 0 .018.029.236.058.236a.096.096 0 0 1 .116.027c0 .063.07.107.07.182.077-.036.105.027.173.053-.02.1.128.164.09.28-.04.165-.07.331-.09.499-.039.083 0 .182-.077.274.029.224-.195.397-.02.605.04.036.02.063 0 .101.049.045.03.117.049.189-.077.074-.193.11-.224.208-.032.099-.126.146-.078.245-.147.155-.175.59-.204.751-.068 0-.107-.098-.174-.035-.108.017-.08.2-.205.172-.08.135-.241-.036-.342.09-.058 0 0-.298-.068-.262a.047.047 0 0 0-.034-.014.047.047 0 0 0-.033.014v.017c-.03-.027-.06-.018-.099 0-.097-.053 0-.224-.087-.325-.067-.054-.087.072-.157 0-.144-.092-.038-.244-.135-.363-.096-.12 0-.2-.127-.263-.03-.152.038.054.07-.099a.409.409 0 0 1 .038-.336 1.47 1.47 0 0 0 .077-.49c.068-.08 0-.152.068-.223.016-.189.059-.374.128-.552-.02-.072.048-.137.038-.209.077-.072 0-.343.068-.39-.039-.09.108-.162.067-.254a2.02 2.02 0 0 1 .109-.28c.147-.108 0-.225.147-.162a.298.298 0 0 1 .154.036c.02.054.048.045.09.054.04.009.115-.045.163 0 .08.099.068.263.241.271l-.007-.029Z"/>
  <path fill="#0060A9" d="M22.937 16.688c-.046 0-.049-.074-.051-.161a.93.93 0 0 0 0-.103.037.037 0 0 0-.042 0l-.02.036-.016-.016c-.022-.018-.042-.016-.076 0h-.02c-.06-.034-.058-.103-.058-.17a.209.209 0 0 0-.035-.159c-.017-.013-.034 0-.053 0a.089.089 0 0 1-.05.023.084.084 0 0 1-.055-.027.216.216 0 0 1-.093-.204.239.239 0 0 0-.047-.16.28.28 0 0 1-.046-.126.143.143 0 0 0-.078-.132v-.074c.01 0 .018.005.024.011h.015a.17.17 0 0 0 .014-.042.414.414 0 0 1 .042-.343c0-.038.02-.076.03-.114a.996.996 0 0 0 .048-.364.158.158 0 0 0 .034-.115.209.209 0 0 1 .032-.116c-.01-.136.007-.272.05-.403a2.65 2.65 0 0 0 .048-.163.19.19 0 0 1 .02-.116.208.208 0 0 0 .022-.09.322.322 0 0 0 .031-.201.292.292 0 0 1 .03-.181.152.152 0 0 1 .039-.13c.024-.038.049-.074.031-.112.022-.077.051-.152.088-.224l.022-.053a.137.137 0 0 0 .069-.128c0-.022 0-.051.036-.051.02.001.04.006.059.013.057 0 .114.012.164.038.012.034.024.036.051.04h.024l.057-.013a.14.14 0 0 1 .12 0 .584.584 0 0 1 .06.114c.032.078.061.145.162.152h.095a.03.03 0 0 0 .032-.015l.034.01a.624.624 0 0 0 .044.209.118.118 0 0 1 .132.04.105.105 0 0 0 .03.078.23.23 0 0 1 .036.076h.03a.158.158 0 0 1 .085.034.255.255 0 0 0 .053.031h.015v.011a.15.15 0 0 0 .042.112c.043.048.06.112.046.173a.843.843 0 0 0-.054.272c-.004.076-.016.15-.034.224a.33.33 0 0 0-.027.108.31.31 0 0 1-.051.163.57.57 0 0 1-.046.25.296.296 0 0 0 .021.34.08.08 0 0 1 .02.097.17.17 0 0 1 .037.118.396.396 0 0 0 0 .074.63.63 0 0 1-.09.065.279.279 0 0 0-.133.134.398.398 0 0 1-.039.07c-.036.051-.07.1-.039.163a1.304 1.304 0 0 0-.186.622c0 .047 0 .09-.02.12v.017h-.016a.18.18 0 0 1-.076-.036.105.105 0 0 0-.051-.023.053.053 0 0 0-.034.016c-.042 0-.06.043-.079.08-.02.039-.049.101-.124.092a.115.115 0 0 1-.108.054.35.35 0 0 1-.07 0 .355.355 0 0 0-.069 0 .098.098 0 0 0-.09.042l.002.043Zm-.068-.298c.039 0 .041.056.044.14a.444.444 0 0 0 0 .12.146.146 0 0 1 .11-.043.408.408 0 0 1 .073 0h.066a.086.086 0 0 0 .083-.047v-.01h.012c.054 0 .071-.019.095-.072.025-.054.044-.088.1-.101a.081.081 0 0 1 .057-.022.15.15 0 0 1 .073.029l.042.024a.45.45 0 0 1 .014-.1c.01-.22.073-.436.186-.631a.19.19 0 0 1 .046-.186.416.416 0 0 0 .037-.06.308.308 0 0 1 .147-.152.948.948 0 0 0 .078-.056v-.07a.139.139 0 0 0-.032-.103v-.02c0-.007.015-.04 0-.065a.327.327 0 0 1-.03-.371.552.552 0 0 0 .045-.244.281.281 0 0 0 .049-.154.331.331 0 0 1 .029-.114c.017-.074.027-.149.032-.224a.858.858 0 0 1 .056-.282.158.158 0 0 0-.044-.143.212.212 0 0 1-.049-.121l-.049-.031c-.034-.023-.058-.039-.1-.018h-.027v-.005a.155.155 0 0 0-.034-.083.138.138 0 0 1-.034-.094.086.086 0 0 0-.09-.018.022.022 0 0 1-.023-.01.528.528 0 0 1-.056-.198h-.129c-.128 0-.162-.091-.196-.174a.52.52 0 0 0-.054-.103c-.022-.013-.05 0-.085 0a.234.234 0 0 1-.069.014h-.026a.082.082 0 0 1-.079-.056.286.286 0 0 0-.141-.032.195.195 0 0 0-.05-.013v.018a.17.17 0 0 1-.077.152l-.022.05a1.326 1.326 0 0 0-.083.223.15.15 0 0 1-.037.136.122.122 0 0 0-.034.112c-.027.016-.025.094-.025.161a.35.35 0 0 1-.036.224.208.208 0 0 1-.025.098.177.177 0 0 0-.017.099c-.014.058-.034.114-.051.17a.994.994 0 0 0-.076.376.163.163 0 0 0-.03.103.185.185 0 0 1-.036.125.977.977 0 0 1-.051.371l-.056.139a.387.387 0 0 0-.037.322c0 .036-.02.074-.051.074h-.022v.018a.175.175 0 0 1 .088.152.23.23 0 0 0 .039.11.292.292 0 0 1 .053.179.181.181 0 0 0 .081.179s.02.018.03.018c.01 0 .017 0 .026-.016a.089.089 0 0 1 .054-.023.08.08 0 0 1 .047.018c.04.055.057.121.046.186 0 .058 0 .11.034.134a.13.13 0 0 1 .088 0c.024-.02.06-.02.083 0l.02-.009Z"/>
  <path fill="#9BCD65" d="M16.039 7.91c.105-.027.115.101.172.138.271.075.24.379.331.573.048.037.039.083.096.11.02 0 .02-.037.048-.037.02.083.175 0 .137.11-.098.14.134.194.029.325.153.073 0 .24.057.377-.019.075 0 .14-.019.212-.02.073.058 1.371.087 1.44.028.229-.039.47.088.702-.05.12.058.267-.029.379.012.122.012.246 0 .368.028.065.04.134.039.203-.031 0-.031-.036-.039-.045-.07.11.106.176.077.285.02.046.048.12.106.1v.028c-.02 0-.03.02-.03.03.003.06.02.12.049.174l-.038.084c-.039.083.057.174 0 .268a.03.03 0 0 0-.03.027c0 .055.04.11.04.167l-.097.212c-.067.074-.098-.075-.175 0-.077.076.039.174-.029.256-.067.083-.134.048-.213.03-.048.046.029.21-.115.137-.03.028-.058.028-.077 0a2.95 2.95 0 0 0-.293-.498c-.096 0-.076-.155-.172-.082a.983.983 0 0 0-.418-.176 1.272 1.272 0 0 1-.115-.277c-.077-.14-.029-.304-.125-.425 0-.018.02-.027.039-.036-.058-.176-.029-.368-.067-.535 0-.38-.156-.702-.195-1.06-.028-.03-.048-.067-.019-.103-.086-.186-.175-1.6-.24-1.78a3.791 3.791 0 0 0-.096-.508c-.029-.279-.24-.555-.24-.841-.086-.119 0-.258-.096-.368.077-.094-.03-.149-.04-.229 0-.018-.03-.027 0-.036.029-.01.088.027.117-.028.192-.038.406.092.59-.011.147 0 .185.212.338.13.041-.018.09-.027.109 0a.434.434 0 0 0 .153.121c.05-.02-.02-.048 0-.075.137-.082.24.066.302.148l.003.016Z"/>
  <path fill="#9BCD65" d="M16.531 14.584a.066.066 0 0 1-.05-.03 2.48 2.48 0 0 1-.058-.114 2.309 2.309 0 0 0-.227-.375c-.05 0-.072-.039-.09-.066-.016-.028-.023-.037-.033-.037a.055.055 0 0 0-.034.016.957.957 0 0 0-.41-.171 1.116 1.116 0 0 1-.12-.245v-.025a.532.532 0 0 1-.053-.206.39.39 0 0 0-.07-.214v-.02a.053.053 0 0 1 .034-.047 1.215 1.215 0 0 1-.039-.292 1.34 1.34 0 0 0-.024-.229 2.809 2.809 0 0 0-.104-.603 3.463 3.463 0 0 1-.091-.457.084.084 0 0 1-.022-.112 7.175 7.175 0 0 1-.143-1.051c-.033-.332-.065-.645-.089-.723a2.025 2.025 0 0 0-.06-.345l-.039-.164a1.463 1.463 0 0 0-.11-.377c-.069-.145-.11-.3-.123-.457a.32.32 0 0 1-.044-.19.25.25 0 0 0-.048-.174v-.023c.043-.05.02-.087 0-.13a.183.183 0 0 1-.036-.075.03.03 0 0 1 0-.03s0-.014.017-.018h.033c.027 0 .051 0 .068-.023a.828.828 0 0 1 .258.011c.056.01.114.017.171.019a.32.32 0 0 0 .16-.037.245.245 0 0 1 .16.085c.037.031.07.063.112.063a.126.126 0 0 0 .06-.016.155.155 0 0 1 .07-.02.07.07 0 0 1 .063.036c.017.058.075.083.137.108a.044.044 0 0 1 0-.057.175.175 0 0 1 .094-.03c.104 0 .184.105.241.17h.02c.06 0 .089.045.113.088a.21.21 0 0 0 .043.055c.208.057.242.247.292.414a1.3 1.3 0 0 0 .046.162.205.205 0 0 1 .043.055.1.1 0 0 0 .037.046.053.053 0 0 1 .046-.03H16.7v-.014c0 .023.022.028.06.028.039 0 .058 0 .073.025a.072.072 0 0 1 0 .068c-.041.06-.015.099.017.144.031.046.067.096.024.163.08.05.063.128.046.203a.266.266 0 0 0 0 .174v.01a.491.491 0 0 0 0 .103.36.36 0 0 1 0 .11c0 .08.06 1.37.086 1.428.005.08.005.16 0 .24a.871.871 0 0 0 .078.457.283.283 0 0 0 0 .162.29.29 0 0 1-.025.215c.013.12.013.241 0 .361a.29.29 0 0 1 .034.146v.078h-.02a.042.042 0 0 1-.035-.018c0 .03.014.06.043.098a.175.175 0 0 1 .05.14c.015.038.04.089.07.089h.034l-.024.07h-.014a.268.268 0 0 0 .041.165l-.048.1a.196.196 0 0 0 .012.104.194.194 0 0 1 0 .155v.016h-.015v.011a.158.158 0 0 0 .017.085.23.23 0 0 1 .022.082l-.101.229a.071.071 0 0 1-.051.025.11.11 0 0 1-.058-.025c-.022-.019-.039-.03-.065-.012a.153.153 0 0 0 0 .121.14.14 0 0 1-.022.138.17.17 0 0 1-.123.052.374.374 0 0 1-.099-.016.153.153 0 0 0 0 .062c0 .039 0 .094-.058.094a.123.123 0 0 1-.055-.016.076.076 0 0 1-.063.034Zm-.313-.556c.094.122.175.252.241.389.02.034.038.073.058.112.02.039.029.014.048 0h.012c.015.01.033.015.05.016.015 0 .02-.014.023-.062a.13.13 0 0 1 .024-.091l.026.007c.03.008.062.013.094.016a.135.135 0 0 0 .097-.041.115.115 0 0 0 0-.11.175.175 0 0 1 .014-.144.08.08 0 0 1 .05-.02.112.112 0 0 1 .066.027c.02.016.036.027.055 0l.097-.206a.253.253 0 0 0-.02-.066.177.177 0 0 1-.019-.098s0-.042.036-.044a.191.191 0 0 0 0-.121.187.187 0 0 1 0-.135v-.011l.032-.064a.308.308 0 0 1-.041-.14v-.034c0-.016.008-.031.021-.041-.048 0-.072-.069-.089-.11v-.03a.157.157 0 0 0-.043-.118.143.143 0 0 1-.034-.172l.012-.02.017.018a.27.27 0 0 0-.031-.137 1.643 1.643 0 0 0 0-.366.233.233 0 0 0 .021-.194.343.343 0 0 1 0-.171.912.912 0 0 1-.077-.458 1.893 1.893 0 0 0 0-.228c-.034-.1-.087-1.43-.087-1.444a.402.402 0 0 0 0-.106.528.528 0 0 1 0-.105.284.284 0 0 1 0-.19c.02-.089.027-.139-.045-.173h-.022l.014-.016c.046-.055.02-.092 0-.137a.145.145 0 0 1-.019-.183V8.79c0-.004-.026 0-.043 0-.017 0-.073 0-.09-.034a.097.097 0 0 1-.021.023.134.134 0 0 1-.066-.066.126.126 0 0 0-.036-.046 1.154 1.154 0 0 1-.084-.21c-.039-.165-.08-.339-.27-.389A.229.229 0 0 1 16.133 8c-.026-.044-.05-.083-.103-.069h-.015V7.92c-.038-.058-.116-.165-.205-.165a.116.116 0 0 0-.075.016v.014a.041.041 0 0 1 0 .036.052.052 0 0 1-.028.025.238.238 0 0 1-.164-.13.03.03 0 0 0-.03-.014.137.137 0 0 0-.052.016.171.171 0 0 1-.078.021.218.218 0 0 1-.137-.075.207.207 0 0 0-.13-.073.358.358 0 0 1-.174.038 1.121 1.121 0 0 1-.176-.018.762.762 0 0 0-.241-.014.076.076 0 0 1-.068.037h-.043a.188.188 0 0 0 .029.064c.042.044.048.11.014.16.037.055.054.12.049.185a.278.278 0 0 0 .04.174c.01.158.052.313.121.457.055.124.093.253.114.386 0 .05.024.105.036.162.03.114.051.229.062.345.024.078.053.38.09.727a6.9 6.9 0 0 0 .142 1.05s-.03.033.017.077c.019.154.05.307.091.457.057.199.09.402.102.608.015.075.024.152.026.228 0 .101.014.202.041.3v.014h-.014c-.012 0-.024 0-.027.018a.44.44 0 0 1 .073.228.49.49 0 0 0 .05.195v.03c.027.08.063.156.109.228.148.027.288.084.41.169a.08.08 0 0 1 .043-.014c.032 0 .048.028.063.053.014.025.036.052.067.05l.056.043Z"/>
  <path fill="#999899" d="M25.966 16.845c0 .055-.115 0-.077.071a.177.177 0 0 1 .128-.006.136.136 0 0 1 .086.078c0 .066.116.066.164.105 0 .048 0 .088.07.104.08.131.1.283.057.426-.108.199-.447.748-.466.965-.068.016-.137.314-.166.362a.223.223 0 0 1-.116.199c0 .072.145.199-.038.199-.108.072-.137-.121-.24-.016-.02.048-.09.04-.128.08-.038-.016.214.08.166.071a.442.442 0 0 1-.3-.04c-.051.048.028.048-.03.048a.521.521 0 0 0-.156-.177c-.048.082-.125-.04-.204.018-.058-.026.06-.29 0-.299-.06-.008-.048.048-.067.082-.058-.018.086 0 .029 0-.058 0-.068-.098-.097-.137 0-.072-.057-.088-.127-.122s-.144 0-.156-.071c.05-.088-.02-.217.031-.305.05-.087.272-.16.281-.235.01-.073-.262.154-.3.098.12-.094.23-.197.33-.306 0-.056-.107-.104-.049-.168a1.1 1.1 0 0 0 .24-.627c.068-.185.058-.362.24-.499.07-.032 0-.072.09-.048.077.106-.02-.063.077.016.098.016.24 0 .281.082.04 0 .048.032.07.056a.415.415 0 0 1 .22.023c.042-.04.119-.023.176-.023l-.019-.005Z"/>
  <path fill="#FFD520" d="M8.99 7.2a.144.144 0 0 1 .134-.018.928.928 0 0 0 .257.162c.038-.011.047-.056.047-.091.106.064.21.242.363.162.095.142.304.133.455.171.17.125.327.262.472.411.221.24.41.506.561.791.059.223.905 1.525.971 1.74.052.124.097.25.135.378.085.107.019.26.103.376-.056.035-.028.1-.018.162a.37.37 0 0 0 .077.358c.236.457.79 1.333 1.047 1.777 0 .127.123.19.113.296-.047 0-.075.044-.075.091s0 .098.038.134c-.029.162-.2.062-.257.188a.634.634 0 0 0-.236.072l-.028-.018a.775.775 0 0 1-.323.044c-.088 0-.097.154-.21.118-.085.107-.22 0-.304.08-.144-.116-.295 0-.448-.053.028-.163-.236-.018-.144-.198-.038-.098-.151-.142-.189-.251 0-.027.028-.036.038-.063a.62.62 0 0 1-.163-.26h-.028c-.248-.324-.639-1.248-.915-1.555-.103-.198-.103-.413-.207-.582 0-.091-.078-.171-.078-.252-.094-.026-.019-.126-.113-.162 0-.026 0-.044-.02-.062-.077 0 .02-.082-.058-.1.021-.027 0-.044 0-.062 0-.018-.047.027-.057-.018 0 0 0-.071-.037-.071h.047c-.038-.047-.047-.118-.104-.136.038-.109-.047-.189-.019-.277-.028-.018-.037-.045-.078-.036 0-.222-.855-1.556-.893-1.778a6.67 6.67 0 0 1-.304-.666 3.34 3.34 0 0 1-.236-.42c-.078-.092-.087-.234-.182-.316.038-.098-.094-.151-.028-.251 0-.027-.056-.045-.028-.08.033.013.07.013.104 0 .075-.118.235-.045.332-.036a.078.078 0 0 0 .038.054.09.09 0 0 0 .068.009c.047-.027.076-.08.132-.045.03.089.106.16.125.242l.113.027.01.013Z"/>
  <path fill="#FFD520" d="M12.3 14.584a.212.212 0 0 0-.143-.049.653.653 0 0 0-.093 0 .76.76 0 0 1-.102 0 .289.289 0 0 1-.11-.02h-.012v-.013a.07.07 0 0 0 0-.05c0-.015-.04-.02-.066-.024-.026-.004-.067 0-.084-.033a.103.103 0 0 1 0-.089.31.31 0 0 0-.085-.106.39.39 0 0 1-.105-.138.121.121 0 0 1 .024-.038.049.049 0 0 0 .012-.018.645.645 0 0 1-.157-.249h-.026a5.496 5.496 0 0 1-.407-.702 4.966 4.966 0 0 0-.524-.86 1.368 1.368 0 0 1-.097-.297 1.066 1.066 0 0 0-.107-.287.424.424 0 0 0-.038-.118.384.384 0 0 1-.038-.122.088.088 0 0 1-.057-.087c0-.03 0-.058-.048-.07h-.017V11.2c0-.013 0-.025-.012-.038a.046.046 0 0 1-.03-.016.054.054 0 0 1 0-.046c0-.025 0-.029-.015-.034h-.026l.014-.02V11a.08.08 0 0 1-.023 0s-.024 0-.029-.029v-.047c0-.01 0 0 0 0v-.033h.021a.286.286 0 0 1-.021-.036c-.017-.033-.031-.062-.062-.07H9.82v-.016a.227.227 0 0 0 0-.145.238.238 0 0 1-.014-.122l-.014-.013c-.014-.014-.022-.018-.038-.014h-.022v-.022c0-.117-.264-.586-.502-1.002a4.95 4.95 0 0 1-.402-.77 2.208 2.208 0 0 0-.133-.272 1.928 1.928 0 0 1-.171-.387.973.973 0 0 1-.138-.244 1.604 1.604 0 0 0-.093-.178.555.555 0 0 1-.076-.142.42.42 0 0 0-.102-.167.118.118 0 0 0-.022-.104.13.13 0 0 1 0-.145v-.015a.051.051 0 0 1-.012-.073c.029.01.06.01.088 0a.163.163 0 0 1 .146-.067.783.783 0 0 1 .123.015l.079.014h.014a.06.06 0 0 0 .028.043c.015.01.035.013.053.008a.135.135 0 0 0 .03-.022.12.12 0 0 1 .075-.036.08.08 0 0 1 .047.016c.015.04.036.08.062.115a.5.5 0 0 1 .06.118l.097.022a.159.159 0 0 1 .145-.015c.069.064.15.116.238.153.024-.011.029-.053.029-.071v-.031l.026.018a.535.535 0 0 1 .093.073c.057.051.116.107.185.107a.137.137 0 0 0 .07-.02h.013v.013c.083.09.204.141.331.142.043 0 .081.011.119.02.147.106.284.223.412.349l.071.067c.06.082.124.157.19.237.152.158.277.336.371.53.153.32.327.631.524.93.169.262.322.533.459.811.033.072.061.147.083.222.014.05.031.098.05.147a.333.333 0 0 1 .055.193.331.331 0 0 0 .05.183v.013h-.014c-.036.022-.031.056-.02.109v.038a.364.364 0 0 0 .072.344c.147.293.435.762.69 1.178.14.222.274.444.366.606a.264.264 0 0 0 .06.147.23.23 0 0 1 .057.151v.016h-.017a.064.064 0 0 0-.054.041.058.058 0 0 0 .018.063c.01.022.016.047.017.071 0 .021.006.042.017.06-.017.1-.083.113-.145.125-.062.01-.09.017-.114.068a.348.348 0 0 0-.157.045.581.581 0 0 1-.067.026l-.029-.02h-.028a.86.86 0 0 1-.238.043h-.06c-.028 0-.047.029-.069.053a.136.136 0 0 1-.109.069h-.026a.163.163 0 0 1-.129.051h-.088a.116.116 0 0 0-.085.029l-.046.02Zm-.155-.091a.259.259 0 0 1 .154.046.168.168 0 0 1 .098-.026h.045c.053 0 .105 0 .15-.045.052.016.079-.013.11-.05a.145.145 0 0 1 .095-.067h.057a.891.891 0 0 0 .238-.04h.042l.029.017.055-.024a.438.438 0 0 1 .162-.045.178.178 0 0 1 .135-.08c.057-.01.102-.02.117-.088a.173.173 0 0 1-.017-.07.108.108 0 0 0-.017-.06.103.103 0 0 1 .079-.104.212.212 0 0 0-.045-.135.31.31 0 0 1-.064-.16c-.093-.16-.224-.376-.364-.605a25.36 25.36 0 0 1-.69-1.175.384.384 0 0 1-.079-.369v-.033c0-.045-.021-.098.02-.131a.406.406 0 0 1-.046-.187.302.302 0 0 0-.05-.178 1.61 1.61 0 0 1-.05-.15 1.841 1.841 0 0 0-.083-.223 8.367 8.367 0 0 0-.474-.811 7.745 7.745 0 0 1-.526-.94 2.125 2.125 0 0 0-.37-.547 3.215 3.215 0 0 1-.193-.237l-.067-.063a3.444 3.444 0 0 0-.407-.344l-.102-.018a.509.509 0 0 1-.347-.144.206.206 0 0 1-.072.015.343.343 0 0 1-.212-.117l-.059-.051a.087.087 0 0 1-.06.075.9.9 0 0 1-.264-.162.12.12 0 0 0-.111.018l-.134-.031a.409.409 0 0 0-.06-.116.575.575 0 0 1-.063-.118c-.027-.015-.046 0-.072.02a.237.237 0 0 1-.038.027.079.079 0 0 1-.035 0 .099.099 0 0 1-.093-.069l-.072-.013a.563.563 0 0 0-.116-.016.126.126 0 0 0-.12.058.168.168 0 0 1-.1 0 .058.058 0 0 0 .015.018c.012.01.02.025.022.04-.031.044 0 .077 0 .117a.156.156 0 0 1 .026.12c.046.05.08.109.102.172a.552.552 0 0 0 .071.137c.038.058.07.12.096.183a.98.98 0 0 0 .138.24c.041.133.098.262.17.384.051.09.097.184.137.28.109.264.242.519.397.762.197.32.358.658.48 1.009.02.004.037.013.05.027l.02.013a.208.208 0 0 0 0 .115c.019.048.024.1.014.15.03.018.054.046.066.08a.294.294 0 0 0 .031.053l.02.022H9.88a.127.127 0 0 1 0 .062.037.037 0 0 1 .024 0s.021 0 .03.022a.066.066 0 0 1 .015.053.051.051 0 0 1 .021.067v.02c0 .002 0 0 .017 0a.07.07 0 0 1 .017.051.103.103 0 0 1 .054.091c0 .034 0 .054.046.063h.014v.013a.312.312 0 0 0 .035.12.48.48 0 0 1 .041.124c.05.093.087.191.107.294.034.118.084.231.15.337.205.272.38.561.526.865.115.23.246.452.392.666h.031a.628.628 0 0 0 .16.254.29.29 0 0 1-.022.037l-.017.02a.405.405 0 0 0 .096.123.336.336 0 0 1 .095.124c-.02.04-.017.058 0 .064.017.007.028.016.055.02a.13.13 0 0 1 .09.036.082.082 0 0 1 .014.06.255.255 0 0 0 .083.013.721.721 0 0 0 .098 0 .67.67 0 0 1 .093.045Z"/>
  <path fill="#F9A13A" d="M20.84 9.578c.113 0 .094.115.15.175.234.124.17.423.208.646.038.038.028.086.066.126.028 0 .04-.04.068-.03 0 .088.168.03.112.145-.112.117.094.213-.019.328.134.108-.056.251-.018.407-.028.067-.019.146-.056.213a1.134 1.134 0 0 0-.038.239c0 .25-.115.464-.04.717-.065.125.019.3-.084.395 0 .127-.038.26-.056.378a.76.76 0 0 1 0 .213c-.028 0-.019-.04-.038-.05-.086.098.075.203.028.31.02.049.02.125.085.125v.029c-.02 0-.028 0-.038.019a.425.425 0 0 0 .019.184l-.056.077c-.047.079.028.193-.028.28a.028.028 0 0 0-.028.002.029.029 0 0 0-.012.026c-.026.05.02.117 0 .175l-.122.203c-.075.067-.084-.095-.16-.038-.076.096 0 .184-.076.26a.202.202 0 0 1-.209 0c-.075.039-.018.223-.15.125a.046.046 0 0 1-.077-.02 2.591 2.591 0 0 0-.199-.559c-.084 0-.037-.175-.14-.115a.83.83 0 0 0-.377-.239 1.005 1.005 0 0 1-.068-.301c-.056-.153.028-.319-.047-.452 0-.02.019-.03.037-.041-.018-.182.047-.376.038-.56.058-.385-.028-.753 0-1.129a.08.08 0 0 1 0-.108c-.047-.2-.019-.413-.047-.617.014-.18.014-.36 0-.54.019-.29-.124-.61-.075-.91-.056-.133.038-.27-.028-.394.084-.079 0-.156 0-.24 0-.018-.021-.028 0-.047.038.019.084.048.113-.012.198 0 .379.175.575.098.143.029.134.251.305.194.037 0 .084 0 .103.028.019.03.068.115.124.144.047 0-.019-.048.019-.067.15-.067.234.108.264.203l-.028.005Z"/>
  <path fill="#F9A13A" d="M20.404 15.285a.118.118 0 0 1-.059-.026.058.058 0 0 1-.032 0 .065.065 0 0 1-.056-.04l-.013-.057a2.484 2.484 0 0 0-.183-.485c-.038 0-.052-.052-.06-.083-.01-.03-.017-.043-.028-.043a.065.065 0 0 0-.027 0 .827.827 0 0 0-.356-.238 1.044 1.044 0 0 1-.065-.3.549.549 0 0 1-.018-.225.391.391 0 0 0-.027-.224.057.057 0 0 1 .036-.05 1.513 1.513 0 0 1 .018-.286 1.51 1.51 0 0 0 .02-.26c.02-.209.02-.42 0-.63a3.982 3.982 0 0 1 0-.49.118.118 0 0 1-.025-.07.1.1 0 0 1 .014-.05 1.807 1.807 0 0 1-.03-.345 2.033 2.033 0 0 0-.013-.262c.012-.12.012-.242 0-.363v-.174a1.82 1.82 0 0 0-.04-.405 1.55 1.55 0 0 1-.034-.498.404.404 0 0 1 0-.2.332.332 0 0 0-.016-.189V9.28c.043-.04.03-.078 0-.126a.22.22 0 0 1-.025-.126.04.04 0 0 1 0-.05h.018c.015.01.032.016.05.019 0 0 .02 0 .031-.024a.694.694 0 0 1 .225.06.62.62 0 0 0 .226.057.272.272 0 0 0 .126-.038.208.208 0 0 1 .13.114c.032.045.06.086.107.086h.045c.06-.017.103 0 .121.038 0 .055.05.095.1.122a.043.043 0 0 1-.007-.034.04.04 0 0 1 .02-.026.214.214 0 0 1 .072-.017c.115 0 .174.146.203.217.072 0 .092.057.11.107.007.026.018.05.034.072.176.098.183.288.192.477 0 .059.005.118.013.176a.17.17 0 0 1 .032.064.3.3 0 0 0 .02.048.054.054 0 0 1 .054-.017h.011v.003c0 .024.023.03.057.043.034.012.05.014.06.04a.09.09 0 0 1 0 .072c-.044.05-.026.09 0 .145a.157.157 0 0 1 0 .17c.066.066.034.145 0 .221a.312.312 0 0 0-.03.179v.012a.374.374 0 0 0-.021.09.395.395 0 0 1-.034.12.635.635 0 0 1-.016.085.504.504 0 0 0-.02.158 1.78 1.78 0 0 1-.032.257.972.972 0 0 0 0 .463.38.38 0 0 0-.024.176.298.298 0 0 1-.057.22c0 .092-.022.188-.038.28 0 .03 0 .058-.016.087a.4.4 0 0 1 0 .145v.083h-.016a.041.041 0 0 1-.038-.03c-.016.033 0 .069.023.119a.208.208 0 0 1 .024.155v.03c0 .048.02.077.055.077h.024l-.024.071h-.03v.031a.311.311 0 0 0 .018.141l-.065.093a.221.221 0 0 0 0 .11.25.25 0 0 1-.018.162s-.016 0-.016.012a.11.11 0 0 0 0 .076.226.226 0 0 1 0 .095l-.124.21a.063.063 0 0 1-.045.02.074.074 0 0 1-.056-.039c-.018-.021-.032-.038-.054-.019a.186.186 0 0 0-.068.17.17.17 0 0 1-.043.135.158.158 0 0 1-.092.031.28.28 0 0 1-.117-.033.129.129 0 0 0-.032.071c0 .034-.009.07-.05.07Zm-.057-.069c.027.022.04.027.047.027.007 0 .019-.017.028-.055a.133.133 0 0 1 .054-.098c.035.019.073.03.112.033.026 0 .05-.007.072-.021a.142.142 0 0 0 .03-.11.22.22 0 0 1 .04-.148c.05-.042.08 0 .102.022.022.021.022.029.031.029a.035.035 0 0 0 .02 0l.118-.2a.16.16 0 0 0 0-.072.161.161 0 0 1 0-.098c0-.012.005-.024.013-.032a.04.04 0 0 1 .032-.011.237.237 0 0 0 0-.126.22.22 0 0 1 0-.143l.045-.062a.393.393 0 0 1-.018-.148v-.04a.068.068 0 0 1 .027-.032c-.034-.016-.045-.06-.054-.093a.214.214 0 0 0 0-.035v-.012a.165.165 0 0 0-.023-.131c-.025-.058-.054-.122 0-.184a.02.02 0 0 1 .014.014v-.019a.412.412 0 0 0 0-.138c0-.029 0-.06.015-.088.016-.095.034-.193.041-.286a.26.26 0 0 0 .05-.198.432.432 0 0 1 .024-.186 1.071 1.071 0 0 1 0-.477c.016-.078.027-.158.032-.238a.579.579 0 0 1 .02-.17c0-.028.014-.057.018-.083a.306.306 0 0 0 .032-.112.46.46 0 0 1 .02-.093.36.36 0 0 1 .034-.195c.034-.086.052-.143 0-.194l-.014-.011.014-.015c.045-.047.027-.09 0-.143-.027-.052-.05-.117 0-.18v-.04c0-.006-.023-.016-.04-.02-.019-.005-.064-.02-.075-.058h-.016a.108.108 0 0 1-.03.02h-.01a.169.169 0 0 1-.036-.07.111.111 0 0 0-.027-.055 1.588 1.588 0 0 1-.016-.183c0-.177-.016-.36-.176-.448a.244.244 0 0 1-.043-.084c-.02-.057-.036-.09-.09-.083V9.63c-.036-.095-.09-.208-.176-.208a.123.123 0 0 0-.056.015v.012a.045.045 0 0 1 0 .038c0 .014-.023.017-.027.019-.081-.043-.124-.098-.126-.155-.014-.022-.043-.026-.08-.017a.164.164 0 0 1-.055 0c-.066 0-.1-.052-.133-.102a.195.195 0 0 0-.106-.098.309.309 0 0 1-.104.02.657.657 0 0 1-.225-.06.668.668 0 0 0-.212-.058.063.063 0 0 1-.056.034.13.13 0 0 1-.052-.015.049.049 0 0 1 0 .022c0 .027.005.054.015.078a.137.137 0 0 1 0 .155.373.373 0 0 1 0 .198.37.37 0 0 0 0 .186v.012a1.51 1.51 0 0 0 .034.491c.028.135.042.272.04.41v.172c.013.122.013.245 0 .367.011.087.015.175.014.262a1.66 1.66 0 0 0 .032.35.038.038 0 0 0 0 .032.07.07 0 0 0 .02.05c-.01.165-.01.33 0 .496.02.21.02.421 0 .631.001.089-.006.178-.02.265a1.147 1.147 0 0 0-.016.29.06.06 0 0 0-.027.02.45.45 0 0 1 .027.238.522.522 0 0 0 .016.212c.006.098.026.193.058.284a.88.88 0 0 1 .357.238h.031c.036 0 .05.039.059.067.009.029.02.057.043.062.077.162.137.332.177.508l.014.052c0 .02.02.02.025.02a.04.04 0 0 0 .025 0l.067-.008Z"/>
  <path fill="#ED1B2E" d="M4.268 10.941c.472.421.917.93 1.408 1.36.206.237.429.457.667.66.26.225.492.484.688.769a.503.503 0 0 0 .15.102.596.596 0 0 0-.074.198c.027.019.018.065.055.065.037 0 .064-.046.092-.056l-.028-.14c.055 0 .046.084.094.112.388.424.75.866 1.12 1.305.14.188.316.367.458.537.167.228.35.444.546.647.075.114-.028.216 0 .337-.074.105-.083.216-.166.312 0 .093-.039.111-.112.188-.027 0-.055-.02-.092-.012-.036.059.065.133-.018.18 0 .065.083.132.046.188l-.092-.028c0 .065-.03.102-.085.149l-.185.232c-.065-.046-.11.05-.166.04-.194.037-.316-.142-.458-.256a.213.213 0 0 0-.103-.102c-.019 0-.028.028-.037.037a.324.324 0 0 0-.23-.168l.019.075a11.527 11.527 0 0 0-.592-.64 2.612 2.612 0 0 0-.35-.365c0-.086-.122-.114-.15-.198-.149-.027-.176-.206-.286-.272-.186-.232-.418-.423-.622-.658-.323-.281-.61-.618-.917-.93-.202-.16-.36-.377-.546-.537 0-.084-.11-.112-.092-.205a.672.672 0 0 0-.277-.233c-.399-.465-1.816-1.455-2.176-1.934a1.473 1.473 0 0 0-.39-.405c-.073-.093-.26-.112-.23-.244 0-.065-.054-.075-.082-.103-.027-.027.028-.058.055-.046a.304.304 0 0 0-.11-.244c.055-.068.018-.189.128-.217.065-.048-.027-.207.113-.17.036-.17.25-.037.268-.216 0-.046-.121-.093-.018-.102.036.065.1 0 .147.019.036-.077.149.018.149-.096.064-.065.194.047.229-.074.064 0 .082-.084.156-.065.057-.077.176.046.25-.056.289-.095 1.399.853 1.575 1.042.12.056.168.158.287.232l-.016-.014Z"/>
  <path fill="#ED1B2E" d="M8.527 18.075a.49.49 0 0 1-.32-.179c-.03-.027-.06-.058-.092-.083a.21.21 0 0 0-.087-.093s0 .012-.014.017v.016l-.016.014-.011-.019a.316.316 0 0 0-.204-.16l.014.049-.03.016c-.17-.197-.357-.398-.59-.634a1.124 1.124 0 0 0-.208-.232 1.538 1.538 0 0 1-.144-.137c0-.04-.032-.062-.067-.092a.267.267 0 0 1-.078-.09.31.31 0 0 1-.176-.156.344.344 0 0 0-.105-.116 3.344 3.344 0 0 0-.348-.375c-.089-.088-.183-.178-.27-.28a8.522 8.522 0 0 1-.615-.61 12.851 12.851 0 0 0-.3-.314c-.11-.09-.212-.19-.306-.297a3.248 3.248 0 0 0-.23-.232c0-.03-.017-.053-.04-.08a.142.142 0 0 1-.053-.116l-.025-.028a.55.55 0 0 0-.24-.195 9.627 9.627 0 0 0-.995-.87 8.8 8.8 0 0 1-1.176-1.06 1.041 1.041 0 0 0-.289-.314l-.135-.12a.38.38 0 0 0-.107-.082c-.073-.041-.149-.086-.128-.178 0-.035-.023-.049-.048-.065l-.03-.023a.07.07 0 0 1 .055-.067.277.277 0 0 0-.1-.209L1 10.67l.014-.014a.203.203 0 0 0 .032-.086c.013-.053.027-.113.103-.134a.126.126 0 0 0 .018-.077c0-.041 0-.1.064-.1h.023c.024-.06.082-.1.146-.099.062-.011.11-.018.117-.097 0 0-.016-.03-.027-.042-.012-.012-.035-.032-.028-.05.007-.02.03-.024.053-.026h.011a.041.041 0 0 0 .037.023h.084a.086.086 0 0 1 .078-.033h.02c.028 0 .042 0 .042-.044.02-.02.046-.03.073-.027h.088a.048.048 0 0 0 .037-.011.049.049 0 0 0 .017-.036v-.011h.014a.087.087 0 0 0 .057-.03.107.107 0 0 1 .094-.037.077.077 0 0 1 .062-.026h.116a.08.08 0 0 0 .071-.037.176.176 0 0 1 .05 0c.353 0 1.373.878 1.535 1.05a.514.514 0 0 1 .151.115.63.63 0 0 0 .135.107c.216.192.426.405.627.611.25.255.506.517.78.746.183.208.38.402.59.581l.076.065c.057.06.12.118.179.174.197.174.37.374.514.595l.023.019a.325.325 0 0 0 .117.078h.02v.019a.555.555 0 0 0-.07.18.166.166 0 0 1 .018.035c0 .019 0 .021.018.021a.055.055 0 0 0 .041-.028l.023-.02-.03-.149h.021c.044 0 .057.037.069.065a.12.12 0 0 0 .032.051c.32.348.627.713.915 1.068.064.076.128.155.194.232.085.115.183.231.28.335l.173.2.144.183c.12.165.253.32.398.463a.234.234 0 0 1 .014.21.335.335 0 0 0-.016.135.664.664 0 0 0-.07.139.597.597 0 0 1-.092.167.232.232 0 0 1-.096.171l-.026.026a.102.102 0 0 1-.036 0 .138.138 0 0 0-.044 0v.058c0 .025.03.078-.018.113.007.02.015.04.025.058.02.04.046.086.016.13l-.08-.026a.192.192 0 0 1-.091.14l-.176.259h-.014c-.028-.021-.053 0-.08.011a.128.128 0 0 1-.069.028.205.205 0 0 1-.06-.016Zm-.387-.285.09.08c.073.094.18.154.297.17a.168.168 0 0 0 .048 0c.016 0 .034 0 .055-.02a.132.132 0 0 1 .07-.031.063.063 0 0 1 .035 0l.174-.232c.055-.046.089-.078.08-.136v-.028l.105.032c0-.023 0-.048-.023-.083a.272.272 0 0 1-.032-.081c.034-.019.028-.04.014-.079a.1.1 0 0 1 0-.095.169.169 0 0 1 .068 0h.021l.016-.016c.057-.058.078-.076.085-.155a.526.526 0 0 0 .089-.16.819.819 0 0 1 .07-.141.37.37 0 0 1 .021-.144.201.201 0 0 0 0-.18 3.77 3.77 0 0 1-.4-.464 3.655 3.655 0 0 0-.144-.185 5.64 5.64 0 0 0-.172-.197c-.096-.109-.194-.232-.281-.336-.064-.076-.128-.155-.195-.231-.295-.355-.601-.72-.915-1.066a.12.12 0 0 1-.043-.065s0-.02-.014-.028l.023.118h-.014s-.013 0-.023.021a.091.091 0 0 1-.066.037h-.014c-.027 0-.038-.025-.045-.044a.09.09 0 0 0-.014-.025v-.012a.61.61 0 0 1 .066-.185.4.4 0 0 1-.107-.076l-.03-.026a2.815 2.815 0 0 0-.512-.59 6.373 6.373 0 0 1-.179-.174l-.073-.065a5.447 5.447 0 0 1-.593-.582 11.92 11.92 0 0 1-.78-.745c-.201-.207-.41-.42-.622-.61a.62.62 0 0 1-.14-.11.486.486 0 0 0-.141-.11c-.19-.201-1.19-1.04-1.515-1.04h-.034a.118.118 0 0 1-.096.047.465.465 0 0 1-.06 0h-.048a.048.048 0 0 0-.043.018.075.075 0 0 0-.073.028.135.135 0 0 1-.067.037.08.08 0 0 1-.087.06h-.087a.068.068 0 0 0-.045.014.065.065 0 0 1-.021.054.064.064 0 0 1-.055.016h-.02c-.028 0-.044 0-.053.023v.011h-.012a.114.114 0 0 0-.045 0 .321.321 0 0 1-.048 0 .066.066 0 0 1-.06-.03s0 .012.014.014c.014.003.046.044.039.074 0 .102-.083.114-.144.126-.062.011-.108.018-.124.09v.016h-.048c-.027 0-.03.014-.032.065a.126.126 0 0 1-.032.106c-.057.014-.069.058-.08.112a.28.28 0 0 1-.03.083c.048.068.07.151.06.234v.023h-.023a.028.028 0 0 0-.032.023l.018.012a.111.111 0 0 1 .064.097c-.016.07.032.102.11.146.044.02.084.05.117.086.03.029.062.056.096.08.119.087.219.197.293.325.36.378.753.724 1.173 1.033.35.268.683.559.995.871a.61.61 0 0 1 .252.204l.027.035c0 .039.016.065.044.095a.156.156 0 0 1 .05.1c.08.071.158.152.229.23.097.114.201.22.313.318.103.104.206.21.302.315.197.209.398.424.613.612.09.1.181.19.273.278.125.116.241.243.347.377a.419.419 0 0 1 .113.125c.045.067.087.128.164.144a.21.21 0 0 0 .071.085.197.197 0 0 1 .078.11c.043.045.09.088.137.13.081.066.152.144.21.23.213.214.387.401.545.582v-.03h.023a.325.325 0 0 1 .229.155.048.048 0 0 1 .036-.023.23.23 0 0 1 .124.123Z"/>
</svg>
