<svg xmlns="http://www.w3.org/2000/svg" width="68" height="24" fill="none" viewBox="0 0 68 24">
  <path fill="#fff" d="M.394 0A.392.392 0 0 0 0 .393v.245c0 .218.175.394.394.394h67.188a.393.393 0 0 0 .394-.394V.393A.392.392 0 0 0 67.582 0H.394Zm.582 4.631c-.03 2.773-.049 5.545-.07 8.319-.017 1.33.355 2.698 1.17 3.688.923 1.166 2.265 1.849 3.638 2.015 1.765.224 3.69-.094 5.113-1.366 1.09-.923 1.721-2.428 1.733-3.95.038-2.822.047-5.878.082-8.702h-2.627s-.053 5.597-.12 8.293c-.012 1.044-.482 2.143-1.355 2.603-1.336.756-3.153.648-4.242-.584-.56-.622-.727-1.537-.715-2.394A1228.7 1228.7 0 0 1 3.6 4.637L.976 4.63Zm23.378.246s-5.63-.003-8.447.003c-.531-.022-.996.488-.968 1.09-.02 2.97-.04 5.943-.046 8.916-.019 1.106.364 2.252 1.16 2.94.93.822 2.16.986 3.307 1.017 1.622.01 3.244.024 4.864.041l.024-2.57c-1.682-.028-3.366-.04-5.049-.069-.523-.02-1.177-.102-1.446-.686-.316-.774-.154-1.65-.192-2.472l6.133.053.047-2.506-6.132-.07.023-3.126 6.72.015.002-2.576Zm11.197.11s-3.305.012-4.957 0c-.628 0-1.26.052-1.87.226-1.39.34-2.438 1.741-2.53 3.327-.294 2.966-.147 8.656-.147 8.656-.026.578-.015 1.368.592 1.565.672.176 1.37.053 2.053.084l.054-5.674 6.126.09.02-2.528-6.129-.078c.023-.85-.103-1.77.25-2.558.363-.623 1.1-.62 1.692-.63 1.61.015 4.83.055 4.83.055l.016-2.536Zm4.997.066c-.536.004-1.203-.006-1.49.745-.295.726-4.368 12.954-4.368 12.954h2.6L40.48 9.3l1.744 4.508h-1.397l-.89 2.573 3.204-.006.958 2.374 2.909.004C45.343 14.491 41.93 5.796 41.93 5.796c-.37-.745-.847-.747-1.383-.743Zm14.355.588-1.102.458-.003 2.432-1.827-.003.001.93 1.826-.002c.003 2.3-.005 4.6.004 6.899.009.831.194 1.812.895 2.255.788.51 1.742.309 2.602.218l-.201-.959c-.547.054-1.139.191-1.651-.103-.47-.31-.547-.984-.546-1.537l.002-6.769 2.061-.004-.004-.924-2.059-.004.002-2.887Zm12.275 2.886-1.133.008-3.023 8.65-3.026-8.636-1.15-.018 3.722 10.222.921-.021 3.689-10.205Zm-18.215 8.609v1.613h1.57v-1.613h-1.57ZM.418 22.968a.394.394 0 0 0-.395.394v.245c0 .218.176.393.395.393h67.187a.393.393 0 0 0 .395-.393v-.245a.394.394 0 0 0-.395-.394H.418Z"/>
</svg>
