<svg xmlns="http://www.w3.org/2000/svg" width="32" height="32" fill="none" viewBox="0 0 32 32">
  <path fill="#fff" d="M4.493 22.796 3.69 19.53c-.013-.061.012-.123.074-.148l.766-.32c.518.887 1.408 1.787 2 2.563.013.025.026.05.026.087a46.787 46.787 0 0 0-.136 2.661 23.08 23.08 0 0 1 1.52-.9.132.132 0 0 1 .147.025c.828.937 1.693 1.775 2.582 2.65-.42-1.134-.815-2.132-1.247-3.254-.025-.061 0-.123.061-.16.667-.345 1.298-.653 1.977-.998a107.98 107.98 0 0 0 2.532 1.86c.05.038.062.087.05.136l-.939 3.032 2.841-1.824a.134.134 0 0 1 .136 0l2.83 1.824-.94-3.032c-.012-.049 0-.11.05-.135.333-.234 1.73-1.245 2.532-1.86.68.344 1.31.652 1.977.997.062.025.086.099.062.16a147.52 147.52 0 0 0-1.248 3.254c.89-.888 1.754-1.726 2.582-2.65.037-.05.099-.05.148-.024.544.295 1.013.566 1.52.9-.013-.9-.075-1.788-.136-2.662 0-.025.012-.062.024-.087.593-.776 1.483-1.676 2.002-2.563l.766.32c.061.025.086.087.074.148l-.803 3.266s1.408-2.699 2.125-4.757c1.21-3.512 1.037-4.374 1.037-4.436a20.3 20.3 0 0 1-.593 1.442c0-.407-.074-1.281-.593-2.49v-.036c.198-.912.457-2.699.457-2.699s-.765 1.023-1.235 1.553a.06.06 0 0 1-.086 0c-.346-.357-.89-.789-1.298-1.121-.457-.358-1.124-.74-1.618-1.01-.024-.013-.037-.025-.037-.05-.037-.826-.086-1.651-.123-2.477a90.475 90.475 0 0 1-1.162 1.873c-.012.025-.05.037-.074.025a21.411 21.411 0 0 0-2.125-.678 38.364 38.364 0 0 0-2.174-.468c-.025 0-.037-.025-.05-.05-.185-.64-.432-1.528-.617-2.18-.309.677-.63 1.318-.951 1.983a.068.068 0 0 1-.062.037 24.852 24.852 0 0 0-2.347-.061c-.766 0-1.582 0-2.36.061a.068.068 0 0 1-.062-.037 48.879 48.879 0 0 1-.95-1.984c-.186.666-.433 1.54-.618 2.181a.097.097 0 0 1-.05.05c-.667.123-1.482.295-2.174.468-.68.173-1.495.444-2.125.678-.025.012-.062 0-.074-.025A154.11 154.11 0 0 1 6.42 6.715c-.037.826-.087 1.651-.124 2.477 0 .025-.012.037-.037.05-.494.258-1.174.64-1.618 1.01-.408.332-.951.751-1.297 1.121a.06.06 0 0 1-.087 0c-.47-.53-1.235-1.553-1.235-1.553s.26 1.8.457 2.699v.037c-.482 1.146-.58 2.009-.593 2.427a28.378 28.378 0 0 1-.568-1.392c0 .062-.173.924 1.037 4.436.73 2.07 2.138 4.769 2.138 4.769ZM2.28 14.848c.26-.234.482-.345.482-.345l.84 2.772s.111-1.885.185-2.797c0-.037.037-.074.087-.061.482.074 1.433.382 1.433.382s-1.075-2.009-1.161-2.206c0-.012-.013-.025 0-.037.123-.74.383-1.442.556-2.181.42.16.815.345 1.223.517.123.05.234.111.358.16a.068.068 0 0 1 .037.062 112.31 112.31 0 0 0-.037 2.884c.383-.801.778-1.602 1.161-2.39.012-.026.05-.038.074-.026.618.235 1.248.469 1.878.69-.321-.628-.692-1.54-1.038-2.193-.012-.024-.012-.05 0-.062.111-.172.223-.32.321-.468.371-.505.742-.949 1.137-1.466.494.185 1.038.443 1.507.678.124.061.223.11.321.16.025.012.037.037.037.074-.173.764-.383 1.897-.568 2.637.667-.641 1.285-1.306 1.927-1.947.025-.025.05-.025.074-.013.766.395 1.508.826 2.249 1.245-.37-.776-.741-1.54-1.15-2.292a.065.065 0 0 1 .026-.086c.568-.395 1.149-.777 1.73-1.159.58.382 1.16.764 1.729 1.159.024.012.037.05.024.086-.407.752-.778 1.528-1.149 2.292.754-.419 1.495-.838 2.249-1.245.024-.012.05-.012.074.013.642.653 1.272 1.318 1.927 1.947-.185-.74-.383-1.873-.568-2.637-.012-.025.012-.062.037-.074.086-.05 1.322-.653 1.816-.838a21.3 21.3 0 0 1 1.458 1.934c.012.025.012.038 0 .062-.346.69-.717 1.565-1.038 2.194.63-.222 1.248-.444 1.878-.69a.06.06 0 0 1 .074.024c.395.801.778 1.59 1.161 2.39 0-.837-.012-2.008-.037-2.883 0-.025.012-.05.037-.061.124-.05 1.161-.518 1.581-.678.173.74.433 1.442.556 2.18v.038c-.086.197-1.161 2.206-1.161 2.206s.964-.308 1.433-.382c.037-.013.074.024.087.061.074.912.185 2.797.185 2.797l.84-2.772s.222.11.482.345c.173.16.271.271.32.357-.37.826-.864 1.8-1.383 2.502a7.056 7.056 0 0 1-.852.948 4.503 4.503 0 0 1-.803.567c-.568.32-1.235.616-1.532.752a.122.122 0 0 1-.173-.086l-.408-2.305-1.284 3.093c-.013.037-.05.062-.075.074-.333.099-2.087.604-2.977.764-.111.025-2.36.296-3.162.358a.136.136 0 0 1-.124-.074c-.408-1.023-1.21-2.995-1.21-2.995s-.803 1.972-1.211 2.995c-.025.049-.074.086-.124.074a83.221 83.221 0 0 1-3.162-.358c-.89-.16-2.644-.665-2.978-.764a.111.111 0 0 1-.074-.074L7.15 17.584l-.408 2.304a.122.122 0 0 1-.173.086c-.37-.16-1.42-.64-1.915-.974-.47-.32-.902-.776-1.285-1.281-.53-.715-1.025-1.7-1.396-2.526a2.98 2.98 0 0 1 .31-.345Z"/>
</svg>
