<svg xmlns="http://www.w3.org/2000/svg" width="32" height="32" fill="none" viewBox="0 0 32 32">
  <path fill="#FF6900" d="M6.007 16.63c0-3.31 1.619-6.246 4.106-8.067l-.66-2.246c-3.407 2.174-5.665 5.98-5.665 10.313 0 4.589 2.532 8.583 6.272 10.672l.764-2.128a9.99 9.99 0 0 1-4.817-8.544Zm16.54-10.306-.66 2.245c2.487 1.821 4.106 4.758 4.106 8.068 0 3.616-1.932 6.788-4.817 8.544l.764 2.127c3.74-2.088 6.272-6.083 6.272-10.671 0-4.34-2.265-8.146-5.665-10.313Z"/>
  <path fill="#fff" d="M12.293 25.461h1.54l1.795-8.048V1.291l-5.43 2.317 4.47 15.215-2.375 6.638Zm7.407 0-2.375-6.638 4.471-15.215-5.43-2.317v16.122l1.794 8.048h1.54Zm-8.621 3.401.815-2.291h8.211l.816 2.29H11.08Zm6.363-3.401L16 18.986l-1.443 6.475h2.885Z"/>
</svg>
