<svg xmlns="http://www.w3.org/2000/svg" width="32" height="32" fill="none" viewBox="0 0 32 32">
  <path fill="#fff" fill-rule="evenodd" d="M13.995 2.742c.759-.542 2.092-.94 3.79-.638 2.952.526 8.019 2.774 8.702 16.477h-4.152v-.012c.002-.356.056-8.087-2.249-12.338-.967-1.783-1.991-2.983-3.654-3.46-.86-.246-1.674-.242-2.409.023h-.004c-.036.012-.056-.028-.024-.052Zm10.368 14 .714.538-.321-.867.65-.538h-.843l-.317-.863-.2.863h-.84l.715.534-.205.871.646-.538Z" clip-rule="evenodd"/>
  <path fill="#fff" d="M10.032 14H7.803c1.281-5.986 3.385-8.636 4.28-9.531.956-.956 1.936-1.538 3.064-1.554a4.022 4.022 0 0 1 2.157.614c.056.036.036.076-.016.076l-.181-.008c-1.775-.048-3.385.968-4.911 3.778-1.293 2.381-1.855 5.1-2.164 6.625ZM26.18 26.245l-.104.74h-.125l.104-.74h-.28l.016-.116h.69l-.016.116h-.285Zm.707.506-.217-.393-.089.626h-.128l.12-.851h.12l.238.446.373-.446h.117l-.12.851h-.13l.09-.626-.33.393h-.044ZM7.682 14.823l-.265 1.814c-.056.382-.076.555-.072.715 0 .82.554 1.325 1.457 1.325.566 0 1.036-.16 1.325-.462.23-.24.366-.582.454-1.152l.33-2.244h-1.01l-.309 2.103c-.048.318-.12.506-.249.635a.747.747 0 0 1-.514.197c-.305 0-.482-.177-.482-.478 0-.1.012-.225.029-.362l.309-2.091H7.682Zm6.03-.001-.124.851h-1.133l-.08.546h1.08l-.128.867H12.25l-.093.635h1.129l-.125.859h-2.14l.554-3.758h2.136Zm2.575.855.128-.855h-2.064l-.55 3.758h1.008l.2-1.373h.997l.124-.86h-.996l.1-.67h1.053Z"/>
  <path fill="#fff" fill-rule="evenodd" d="m19.002 14.822.94 3.758h-.952l-.156-.606h-1.51l-.277.606h-1.028l1.77-3.758h1.213Zm-1.273 2.293h.896l-.301-1.233h-.012l-.583 1.233Z" clip-rule="evenodd"/>
  <path fill="#fff" d="m6.608 28.96.418-2.831H6.022l-.554 3.762H7.62l.137-.931H6.608Zm4.232-2.827-.124.851H9.584l-.08.55h1.076l-.125.864h-1.08l-.092.634h1.132l-.128.86h-2.14l.553-3.759h2.14Zm14.445.851.124-.85h-2.14l-.55 3.757h2.136l.128-.86h-1.132l.093-.633h1.08l.124-.864h-1.076l.08-.55h1.133Zm-6.089.964.27-1.815h1.003l-.309 2.092a3.288 3.288 0 0 0-.028.361c0 .301.176.478.482.478a.748.748 0 0 0 .514-.197c.128-.128.2-.317.249-.634l.309-2.104h1.008l-.342 2.244c-.088.57-.224.912-.453 1.153-.29.3-.751.461-1.313.461-.904 0-1.458-.505-1.458-1.325-.004-.16.008-.333.068-.714Zm-1.549.578h-.807l.113-.787h1.758c-.064 1.345-.855 2.26-1.955 2.26-.506 0-1.028-.208-1.357-.537-.317-.318-.466-.731-.466-1.285 0-1.237.92-2.152 2.144-2.152.357 0 .667.104.968.313.164.112.26.2.438.393l-.691.619c-.25-.281-.49-.41-.791-.41-.297 0-.53.092-.71.281a1.42 1.42 0 0 0-.378.928c0 .542.397.947.927.947.362 0 .61-.172.807-.57Zm-3.876-2.393h-1.213l-1.77 3.758h1.027l1.265-2.698h.008l.302 1.204h.847l-.707.583.229.911h.952l-.94-3.758Zm10.233-5.388.197-1.341h-3.955l-.197 1.34h1.193l-.675 4.566h1.586l.675-4.565h1.176Zm2.366-1.341-.317 2.156h2.056l.317-2.156H30l-.867 5.906h-1.578l.353-2.385h-2.056L25.5 25.31h-1.594l.871-5.906h1.594ZM4.518 21.159l-.896-1.755H2l1.65 3.26-.393 2.646h1.578l.39-2.654 2.409-3.252H5.823l-1.305 1.755Z"/>
  <path fill="#fff" fill-rule="evenodd" d="M12.681 20.11c.526.534.807 1.297.807 2.12 0 .8-.361 1.674-.943 2.257-.643.65-1.494.98-2.582.98-1.675 0-2.907-1.25-2.907-2.952a3.31 3.31 0 0 1 1.983-2.999c.418-.172.96-.28 1.466-.28h.056c.916.031 1.578.3 2.12.874Zm-4.043 2.385c0 .86.646 1.526 1.498 1.526.98 0 1.766-.823 1.766-1.839 0-.839-.654-1.485-1.497-1.485h-.028a1.786 1.786 0 0 0-1.74 1.798Z" clip-rule="evenodd"/>
  <path fill="#fff" d="m14.609 19.4-.418 2.855c-.092.598-.12.87-.112 1.12 0 1.284.871 2.083 2.293 2.083.887 0 1.618-.253 2.072-.722.36-.382.578-.916.714-1.811l.518-3.525h-1.59l-.486 3.304c-.072.498-.189.795-.39.996-.192.192-.49.309-.798.309-.482 0-.76-.281-.76-.75a4.6 4.6 0 0 1 .045-.57l.486-3.29h-1.574Z"/>
</svg>
