<svg xmlns="http://www.w3.org/2000/svg" width="32" height="32" fill="none" viewBox="0 0 32 32">
  <path fill="#F2365A" d="M24.106 6.227a4.198 4.198 0 0 1-.081 1.765 12.266 12.266 0 0 1 4.285 9.337c0 6.794-5.505 12.31-12.31 12.31-6.794 0-12.31-5.504-12.31-12.31 0-5.818 4.041-10.695 9.465-11.973a16.062 16.062 0 0 1 1.811-1.742C7.86 4.148 2.25 10.083 2.25 17.33c0 7.595 6.155 13.75 13.75 13.75s13.75-6.155 13.75-13.75a13.7 13.7 0 0 0-5.644-11.102Z"/>
  <path fill="#5EC4E7" d="M13.91 24.053c-.337-1.3-.43-2.717-.198-4.134.743-4.517 4.227-7.839 8.698-8.721l-.987-1.046c-3.484 1.127-6.236 3.461-7.49 6.62l-.244-.615c.894-2.579 2.195-4.297 2.775-4.983a3.694 3.694 0 0 1-1.045-2.578c0-1.324.697-2.485 1.742-3.147a3.063 3.063 0 0 0 2.706 4.506 3.063 3.063 0 0 0 3.066-3.066 3.07 3.07 0 0 0-2.985-3.066L20.552 2l-.035.012c-5.83 1.742-10.033 7.223-10.033 13.506 0 3.902 1.37 7.432 3.066 9.395.139-.302.278-.627.36-.86Zm1.985-8.013a5.846 5.846 0 0 0-.894 1.591c.21.813.314 1.661.314 2.532 0 4.204-3.658 8.036-4.216 8.466 1.15.5 2.404.824 3.705.952 1.126-.975 3.437-4.064 3.437-7.142 0-1.01-.162-1.986-.453-2.892l.21-.197a9.726 9.726 0 0 1 1.08 4.494c0 .836-.035 3.055-1.87 5.737a12.341 12.341 0 0 0 5.18-1.73c.313-5.052-2.637-9.57-6.493-11.81Z"/>
</svg>
