<svg xmlns="http://www.w3.org/2000/svg" width="32" height="32" fill="none" viewBox="0 0 32 32">
  <path fill="#fff" d="M25.73 28.447a.782.782 0 0 0-.255-.305.938.938 0 0 0-.382-.146 2.657 2.657 0 0 0-.441-.028h-.744c-.414 0-.413.334-.413.506v2.477h.56v-2.463h.627c.198 0 .283.012.32.021.073.02.134.064.18.128.048.067.07.147.07.245 0 .133-.038.232-.118.303-.082.073-.277.11-.546.11-.246 0-.398.206-.421.41l-.012.106.529.003c.42 0 .72-.093.889-.277a.955.955 0 0 0 .251-.667.954.954 0 0 0-.094-.423Zm-3.084-.048v1.274c0 .23-.02.399-.06.502a.418.418 0 0 1-.19.217.793.793 0 0 1-.385.079.793.793 0 0 1-.384-.08.418.418 0 0 1-.19-.216c-.04-.103-.06-.272-.06-.502V28.4c0-.234-.208-.427-.463-.431h-.098v1.707c0 .308.039.556.114.737.08.19.213.338.399.438.14.076.314.123.52.14.049.004.16.006.16.006h.004c.002 0 .112-.002.161-.007a1.3 1.3 0 0 0 .52-.139c.185-.1.32-.248.398-.438.076-.181.114-.43.114-.737v-1.707h-.097c-.255.004-.463.197-.463.431Zm-4.199.008a1.598 1.598 0 0 0-.394 1.09c0 .25.05.482.146.69.098.206.228.369.387.483.16.116.363.196.6.237.172.033.425.044.753.044h.589v-.52h-.643c-.307 0-.512-.015-.627-.046a.784.784 0 0 1-.44-.324 1.002 1.002 0 0 1-.166-.584c0-.316.093-.555.283-.732.18-.165.478-.216.882-.222h.279c.234 0 .428-.208.432-.463v-.096h-.708c-.663 0-1.12.157-1.373.443Zm-1.222 2.022c-.215-.03-.768-.162-.953-.617.37-.014.638-.105.793-.275a.955.955 0 0 0 .252-.667.956.956 0 0 0-.094-.423.783.783 0 0 0-.255-.305.938.938 0 0 0-.382-.146 2.657 2.657 0 0 0-.441-.028H15.4c-.413 0-.412.334-.412.506v2.477h.56v-2.463h.627c.198 0 .283.012.319.021.074.02.135.064.18.128a.406.406 0 0 1 .072.245c0 .133-.04.23-.119.303-.169.155-.976.126-.976.126-.077.6.366 1.64 1.778 1.64h.31l.02-.064s-.313-.112-.534-.458Zm-3.997-1.941h1.47v-.52H13.08c-.414 0-.413.334-.413.506v1.97c0 .173 0 .507.413.507h.148l1.471-.002v-.52h-1.47v-.782h1.47v-.518h-1.47v-.641Zm-1.123-.346a.937.937 0 0 0-.382-.146 2.659 2.659 0 0 0-.441-.028h-.744c-.414 0-.413.334-.413.506v2.477h.56v-2.463h.627c.198 0 .283.012.32.021.074.02.135.064.18.128.048.067.07.147.07.245 0 .133-.038.232-.117.303-.082.073-.278.11-.547.11-.246 0-.398.206-.42.41l-.013.106.53.003c.42 0 .719-.093.888-.277a.955.955 0 0 0 .251-.667.954.954 0 0 0-.094-.423.782.782 0 0 0-.255-.305Zm-2.829.257v1.274c0 .23-.02.399-.06.502a.418.418 0 0 1-.19.217.793.793 0 0 1-.385.079.792.792 0 0 1-.384-.08.418.418 0 0 1-.19-.216c-.04-.103-.06-.272-.06-.502V28.4c0-.234-.208-.427-.463-.431h-.097v1.707c0 .308.038.556.114.737.079.19.213.338.398.438.14.076.315.123.52.14.05.004.16.006.16.006h.004c.002 0 .112-.002.161-.007a1.3 1.3 0 0 0 .52-.139c.185-.1.32-.248.398-.438.076-.181.114-.43.114-.737v-1.707H9.74c-.255.004-.463.197-.463.431Zm-2.032 1.618c0 .15.02.983-1.23.983-.26 0-.982-.076-.982-.076v-.515s.95.085 1.214.04c.314-.055.371-.313.36-.418-.012-.125-.09-.232-.492-.44l-.434-.222c-.395-.203-.68-.35-.68-.73 0-.487.373-.714 1.175-.714.272 0 .983.077.983.077v.514s-.876-.06-.983-.06c-.383 0-.517.028-.549.126-.018.058.035.126.118.177.224.16.734.392.734.392.558.279.766.514.766.866Zm19.046-1.953h.188v.515h.106v-.515h.188v-.096h-.482v.096Zm1.042-.096-.187.488-.186-.488h-.114v.61h.107v-.366l.14.367h.107l.14-.367v.367h.107v-.611h-.114ZM13.08 1s-1.386 2.361-1.32 7.023c.067 4.661 1.7 8.327 3.63 8.327s3.562-3.666 3.63-8.327C19.086 3.36 17.7 1 17.7 1h-.793s1.512 2.68 1.228 7.018c-.284 4.337-1.468 6.497-2.745 6.497-1.277 0-2.461-2.16-2.745-6.497C12.362 3.68 13.873 1 13.873 1h-.792Zm5.79 2.682c.464 1.768.459 2.693.459 2.693 1.888 2.867-1.257 7.944-1.82 8.81-.04.06-.04.066-.04.066s.02-.017.052-.056c6.341-7.693 1.35-11.513 1.35-11.513Zm-5.61 11.513c.032.039.052.056.052.056s0-.007-.04-.066c-.564-.866-3.709-5.943-1.82-8.81 0 0-.006-.925.458-2.693 0 0-4.992 3.82 1.35 11.513Zm2.06 4.102a.776.776 0 0 0 .07.063.761.761 0 0 0 .072-.063c.272-.279.42-.932-.071-1.736-.492.804-.343 1.457-.071 1.736Zm6.301 4.372c-1.709-2.213-4.725-2.608-6.23-3.16-1.505.552-4.521.947-6.23 3.16 1.409-2.868 3.73-3.445 5.171-3.872-.436-.611-.287-1.48.885-2.49a4.49 4.49 0 0 0-.711-.73.607.607 0 0 1-.1-.091c.008 0 .047.019.124.067.329.208.614.411.86.61.247-.199.533-.402.861-.61a.576.576 0 0 1 .124-.067.607.607 0 0 1-.1.09c-.3.251-.532.496-.71.731 1.172 1.01 1.32 1.879.884 2.49 1.442.427 3.763 1.004 5.172 3.872Zm-8.842 1.976a.789.789 0 0 1-.58.19c-.187-.016-.346-.108-.486-.279l-.656-.807.325-.265.603.741c.104.13.168.173.273.185a.355.355 0 0 0 .258-.088.356.356 0 0 0 .14-.235c.01-.105-.02-.177-.125-.305l-.602-.742.325-.264.656.807c.139.172.196.346.175.533a.776.776 0 0 1-.306.529Zm2.039-2.267-.81.164.057.277.74-.15.079.385-.74.15.022.111c.03.147.072.162.203.135l.64-.13.08.39-.658.134a.872.872 0 0 1-.171.019.507.507 0 0 1-.271-.07c-.115-.071-.19-.192-.224-.36l-.21-1.034a.167.167 0 0 1 .021-.128.167.167 0 0 1 .11-.07l1.053-.213.079.39Zm1.758.297-.029.11.73.189-.098.38-.73-.19-.17.662-.242-.063a.166.166 0 0 1-.105-.075.167.167 0 0 1-.015-.129l.265-1.022c.086-.334.33-.467.685-.375l.65.168-.1.385-.631-.164c-.13-.033-.173-.02-.21.124Zm2.623.777-.497 1.712-.343-.314.072-.25-.31-.232.25-.179.144.109.165-.555-.955.617-.392-.221 1.498-.97c.058-.037.137-.07.237.007l.064.05c.101.077.087.166.067.226Zm-.784 2.06-.216.266c-.618-.768-1.668-1.297-2.808-1.297s-2.19.529-2.808 1.297l-.216-.266c.68-.813 1.795-1.363 3.024-1.363s2.344.55 3.024 1.363Zm1.866-2.302-.222.275a6.048 6.048 0 0 0-.353-.33 6.595 6.595 0 0 0-4.315-1.583c-1.6 0-3.133.562-4.315 1.583a6.08 6.08 0 0 0-.353.33l-.223-.275c.11-.11.226-.218.346-.321a6.947 6.947 0 0 1 4.545-1.669c1.685 0 3.299.593 4.545 1.669.12.103.235.21.345.321Z"/>
</svg>
