<svg xmlns="http://www.w3.org/2000/svg" width="32" height="32" fill="none" viewBox="0 0 32 32">
  <path fill="#D70077" d="M3.751 15.68c0 7.014 5.664 12.68 12.625 12.68C23.336 28.36 29 22.67 29 15.68 29 8.689 23.359 3 16.376 3 9.416 3 3.75 8.689 3.75 15.68Zm3.276-.092c0-5.917 4.89-10.692 10.941-10.692 6.05 0 10.941 4.798 10.941 10.692 0 5.895-4.913 10.693-10.941 10.693-6.028 0-10.941-4.775-10.941-10.693Z"/>
  <path fill="#D09EBC" d="M17.968 4.896c-2.82 0-5.414 1.051-7.347 2.765 1.91-1.348 4.89-2.148 7.46-1.92 5.687.549 11.306 5.415 10.782 10.967a9.15 9.15 0 0 0 .069-1.12c-.023-5.917-4.913-10.692-10.964-10.692ZM13.6 17.005c.956.023 1.98.137 3.026.343.273.068.546.114.819.205a.851.851 0 0 0-.137.16 9.037 9.037 0 0 0-.841-.251 11.212 11.212 0 0 0-2.798-.366c-.023-.023-.046-.068-.068-.091Zm4.186.64c-.046.068-.091.114-.137.182a8.7 8.7 0 0 1 .82.32c2.001.891 3.48 2.216 3.98 3.61.023.091.068.183.091.274.023.069.023.114.046.183 0 .023 0 .046.022.091 0 .046.023.114.023.16v.64c0 .023 0 .046-.023.068v.023c0 .023 0 .046-.023.069v.023c0 .022-.022.045-.022.068 0 .023 0 .046-.023.069v.023c0 .022 0 .022-.023.045v.023c-.023.046-.023.091-.045.137 0 .023-.023.046-.023.069-.25.594-.75 1.165-1.433 1.668-.432.296-.978.57-1.638.822-4.708 1.805-10.1 1.325-13.352 0C2.751 24.887 2 24.179 2 24.179c4.709 5.254 14.626 6.054 19.312 3.175 1.433-.868 2.138-1.805 2.434-2.696 0-.023.022-.045.022-.045.91-2.742-1.933-5.735-5.982-6.968Zm-9.053 2.17c.41-1.69 2.252-2.65 4.686-2.719-.046-.023-.069-.068-.114-.114-2.661 0-4.8.8-5.71 2.102.41 1.05.933 2.01 1.593 2.878-.387-.753-.614-1.507-.455-2.147Z"/>
  <path fill="#D09EBC" d="M22.631 22.488a1.23 1.23 0 0 0 1.228-1.234c0-.681-.55-1.234-1.228-1.234-.678 0-1.228.553-1.228 1.234 0 .682.55 1.234 1.228 1.234Z"/>
  <path fill="#D70077" d="M22.631 22.465a.98.98 0 0 0 .978-.982.98.98 0 0 0-.978-.983.98.98 0 0 0-.978.983.98.98 0 0 0 .978.982Zm-4.208-6.488c-.114-.229-.205-.412-.387-.617-.25-.297-.5-.434-.705-.571a3.777 3.777 0 0 0-1.023-.412c.295.023.682.092 1.114.297.227.115.41.229.569.343 0-.045-.137-.73-.091-1.12 0-.09.023-.16.023-.16a5.38 5.38 0 0 1 .09-.456c.114-.434.364-1.12.455-1.53.046-.207.091-.39.091-.778 0-.182-.09-.457-.159-.8-.068-.296-.136-.57-.227-.776l-.205-.343c-.068.092-.114.16-.273.274-.296.206-1.206-.068-1.729-.525-.796.297-1.433.8-1.706 1.074.82.023.433.868.433.868.136-.046.409-.091.545-.114a5.154 5.154 0 0 1-.227 3.175c-.591 1.508-1.388 1.965-1.774 2.194.022.16.068.64.432 1.05.227.275.5.389.637.457.341-.228.478-.25.819-.502.227-.16.364-.229.591-.366.023-.023.068-.023.091-.023a.64.64 0 0 1 .296 0c.09.023.136.069.227.137.205.183.319.275.432.435.228.32.296.64.319.822.068-.16.227-.434.546-.663a1.73 1.73 0 0 1 1.16-.297c-.091-.456-.25-.8-.364-1.073Zm2.98-8.567c-.273-.046-.614.182-.637.205-.068.069-.068.114-.091.228-.068.183-.182.297-.319.457-.113.137-.295.275-.819.594-.545.32-.614.297-.841.48-.137.092-.228.206-.319.297.046.183.114.343.137.526.023.114.045.228.068.32.319-.183.546-.366.683-.526.454-.525 1.41-1.416 1.546-1.508.296-.205.296-.046.478-.251.045-.046.41-.366.296-.411-.228-.069.364-.32-.182-.412Z"/>
  <path fill="#D70077" d="m14.42 10.95.272-.136s.114-.777-.455-.64c-.159.114-.295.183-.409.251-.205.091-.227.069-.705.206-.41.137-.773.274-.955.342-.592.229-.728.343-.979.274-.09-.022-.204-.068-.386-.068-.182-.023-.387-.023-.455.091-.068.092-.023.206 0 .32.023.046.09.343.318.389.023 0 .25.023.182-.046-.068-.091-.114-.114-.045-.16.09 0 .25-.023.432-.046.227-.023.387-.091.455-.114.364-.069.728-.023 1.296-.114.592-.091.524-.183.82-.297.159-.069.409-.137.613-.252Zm.636-2.193c.41-.16.637-.434.683-.73.09-.024.273-.07.432-.23.273-.25.25-.593.273-.662 0 .092-.023.16.046.297.022.023.022.046.045.069.023.068.045.114.09.137h.024c0 .091.022.16.045.251.023.069.091.274.023.503-.068.183-.182.274-.273.365.387.343.75.549.978.571.341.046.5-.32.5-.32-.045-.114-.273-.274-.227-.32.046-.045.136-.022.182-.022.16 0 1.183-1.394.591-2.17-.204-.252-.773-.389-1.091-.275a.68.68 0 0 0-.228.092c-.023 0-.045-.023-.068-.023-.046-.023-.091 0-.16.046-.113 0-.227 0-.318.068-.341.16-.364.526-.728 1.028-.25.366-.546.571-.728.708-.25.183-.728.503-1.455.64.136.069 1.046.114 1.364-.023Zm4.094 10.715c-.022-.32-.067-.434-.045-.708 0-.206-.023-.434-.09-.891-.046-.388-.16-.685-.183-.8h-.045c-.455.069-1.183.526-1.297 1.12.319.228.569.64.614.822a2.794 2.794 0 0 0 0 .983c.046.32.16.594.228.776.273.595.273.777.341 1.097.046.251.046.457.068.594.069 0 .137 0 .25.023.114.023.16.046.228.069.09.022.227.045.432-.046a1.004 1.004 0 0 1-.136-.229 1.467 1.467 0 0 1-.114-.48c-.091-.845-.205-1.485-.25-2.33Z"/>
  <path fill="#D70077" d="M18.741 22.556a.726.726 0 0 0-.113.32c-.023.092-.046.32.068.457.045.046.114.092.295.137.387.092.524.046.82.137.227.046.159.092.454.16.41.114.592.069.706.023.068-.023.204-.068.227-.183.023-.068-.023-.16-.205-.32-.295-.25-.386-.205-.637-.41-.295-.23-.364-.435-.523-.412-.068 0-.16.069-.227.114-.091.069-.091.114-.16.16-.113.092-.25.069-.295.069-.273 0-.41-.229-.41-.252Zm-5.641-5.94c-.068.16-.25.595-.5.823a3.918 3.918 0 0 0-.82-.8 2.453 2.453 0 0 0-.25-.137c-.25-.114-.363-.068-.59-.16-.16-.068-.547-.457-.979-.41-.318.022-.614.365-.569.388.182.09.296.137.5.25 1.002.55 1.98 2.011 2.07 2.08.274.205.706.343 1.024.183a.622.622 0 0 0 .25-.229c.183-.228.592-.617 1.092-1.005-.477-.114-1.046-.526-1.228-.983Z"/>
  <path fill="#D70077" d="M10.53 15.908c0-.114.045-.137.068-.228.046-.16.023-.366-.068-.48a.314.314 0 0 0-.091-.069c-.091-.045-.182 0-.273.023-.273.114-.318.183-.432.206-.091.023-.25.023-.478-.16a1.22 1.22 0 0 0-.614.16c-.25.16-.523.457-.455.617.023.068.114.091.273.137.273.068.387 0 .591.091.069.023.205-.045.319.069 0-.046 0-.206.09-.32.092-.137.251-.183.342-.206h.023a.635.635 0 0 1 .364 0c.045.023.159.046.25.137.09.092.114.206.114.183 0-.046-.023-.091-.023-.16Z"/>
  <path fill="#D09EBC" d="m18.56 6.655-.137-.068a.426.426 0 0 0-.296 0c.023 0 .182 0 .273.114.046.046.046.091.068.137a.419.419 0 0 0-.273-.046c-.182 0-.295.115-.34.138.022 0 .409-.092.59.137a.44.44 0 0 1 .092.182c0 .092 0 .206-.091.275-.023 0-.046.022-.091.045-.069.023-.091 0-.114 0-.023.023-.023.069 0 .183.023.183 0 .229 0 .251-.023.046-.023.137-.068.137-.023 0-.046 0-.182-.045-.023 0-.046-.023-.046 0-.023.023-.045.091-.023.114.046.069.228 0 .228.046 0 .022-.023.045-.023.045-.09.069-.205 0-.227.046-.023.023.068.069.068.114 0 .092-.16.206-.341.206-.091 0-.137-.023-.16 0-.022.046.137.16.228.251.205.229-.137.411-.273.457.296.046.455-.228.478-.297v-.023c-.023-.068-.137-.16-.182-.228-.046-.046-.069-.069-.046-.092.046-.045.137-.022.182-.022.16-.046 1.07-1.28.705-2.057Zm0 2.948c.454-.389.727-.32 1.455-.823.341-.228.523-.343.66-.548.16-.252.16-.457.364-.594.227-.137.477-.114.523-.092.023 0 .045 0 .068.023 0-.045-.045-.091-.227-.137-.273-.046-.614.183-.637.206-.068.068-.068.114-.091.228-.068.183-.182.297-.319.457-.113.137-.295.274-.819.594-.545.32-.614.297-.841.48-.137.091-.228.206-.319.297 0 .023.023.046.023.091a.433.433 0 0 1 .16-.182Zm.75.068c-.205.183-.478.411-.75.686.022.045.022.09.045.16.318-.183.546-.366.682-.526.25-.274.614-.64.933-.96-.228.115-.523.32-.91.64Zm-4.39-1.142c1.092-.503 1.41-1.622 1.456-1.805a.522.522 0 0 0 .204-.069.509.509 0 0 0 .228-.205c0 .091.045.16.09.16.046 0 .115-.069.115-.183.022.023.068.023.113.023.114 0 .16-.092.273-.16a.528.528 0 0 1 .319-.092.88.88 0 0 0-.341.046.68.68 0 0 0-.228.091c-.023 0-.045-.022-.068-.022-.046-.023-.091 0-.16.045-.113 0-.227 0-.318.069-.341.16-.364.525-.728 1.028-.25.366-.546.571-.727.708-.25.183-.706.48-1.41.617.295 0 .727-.023 1.182-.251Zm1.683.731c-.227-.114-.478-.251-.66-.411-.796.297-1.432.8-1.705 1.073.295 0 .432.115.477.275h.023c.023-.183.068-.32.136-.412.25-.41.797-.48 1.16-.525h.57Zm-2.366.914c-.159.114-.295.183-.409.251-.205.091-.227.069-.705.206-.41.137-.773.274-.955.342-.592.229-.728.343-.979.275-.09-.023-.204-.069-.386-.069-.182-.023-.387-.023-.455.091-.068.092-.023.206 0 .32.023.046.09.343.318.389 0 0 .182.023.182-.023-.09-.023-.25-.092-.318-.229-.046-.068-.069-.205-.023-.274.091-.114.341 0 .682.023.25 0 .41-.069.728-.16.978-.32 1.115-.183 1.684-.434.227-.114.568-.297.932-.64-.045-.091-.16-.114-.296-.068Zm2.662-1.417c.068-.205.023-.617-.182-.845.023.091.068.274 0 .457a.705.705 0 0 1-.273.343c.25.182.41.205.455.045Zm.136 1.348c.978 1.622.546 1.622.205 1.417.137.182.341.502.455.96.136.57.09 1.302.045 1.553-.136 0-.841-.389-1-.846.182.732.864 1.257 1.046 1.371-1.115-.137-1.41-.183-1.433-.16a3.04 3.04 0 0 1 1.092.297c.227.115.41.229.568.343 0-.046-.136-.731-.09-1.12 0-.09.022-.16.022-.16.023-.136.046-.274.091-.456.114-.434.364-1.12.455-1.531.046-.206.091-.388.091-.777 0-.183-.09-.457-.16-.8-.067-.296-.136-.57-.227-.776a.455.455 0 0 0-.09-.137c0 .045.022.137.045.228.068.366.114.64-.023.777-.205.206-1.023-.16-1.092-.183Zm-1.797.595a5.264 5.264 0 0 1-.227 3.152c-.591 1.508-1.388 1.965-1.774 2.193 0 .023.295.092 1-.342.57-.343 1.047-.983 1.115-1.051-.387.091-.591-.206-.569-.229.364-.411.956-1.188.683-1.873 0-.023.068.137.16.297.113.205.226.365.34.457-.455-.869-.432-1.325-.728-2.605Zm3.776 7.173c-.045-.388-.159-.685-.182-.8h-.045a1.869 1.869 0 0 0-.432.137h.023c.113.115.477.503.545 1.006.023.16.069.205-.022.388-.069.137-.114.16-.182.32-.091.206.068.343.113.434.364.594.455 1.85.342 2.399a.522.522 0 0 0 .022.365.642.642 0 0 0 .432.366c-.045-.046-.068-.114-.113-.206a1.466 1.466 0 0 1-.114-.48c-.068-.845-.16-1.485-.227-2.33-.023-.32-.069-.434-.046-.708-.023-.229-.068-.457-.114-.891Z"/>
  <path fill="#D09EBC" d="M18.036 15.383a2.737 2.737 0 0 0-.478-.434c.069.068.137.182.205.297 0 0 .046.068.068.16.069.137.205.41.228.776a2.21 2.21 0 0 1-.228 1.074 1.67 1.67 0 0 1 .979-.183A4.607 4.607 0 0 0 18.4 16c-.09-.252-.182-.434-.364-.617Zm-9.394 0c-.023.023-.046.045-.091.045l-.023.023c-.023.023-.045.023-.068.046l-.023.023-.068.068-.068.069-.023.023c-.023.023-.023.045-.046.045l-.022.023c-.023.023-.023.046-.023.069.227-.252.432-.32.546-.343.387-.114.842.023.864.023.091.023.137.046.205.046.182 0 .228-.115.5-.183.114-.023.205-.046.25 0 .023.023.046.046.069.137 0-.114-.023-.229-.091-.297-.023-.023-.046-.046-.091-.069-.091-.045-.182 0-.273.023-.273.114-.319.183-.432.206-.068.023-.137.023-.25-.023a.85.85 0 0 1-.228-.137c-.136.023-.364.046-.614.183Zm12.306 7.95c-.296-.251-.387-.205-.637-.41-.205-.16-.296-.298-.387-.366h-.136c-.046 0-.16.022-.182.09-.023.07.045.115.045.138.068.091.137.069.25.114.16.069.273.229.387.389.046.068.068.114.137.16a.656.656 0 0 0 .227.137.5.5 0 0 0 .319 0c.045-.023.09-.023.09-.069 0 0 .023-.023 0-.091 0 0-.045-.046-.113-.092Z"/>
  <path fill="#D70077" d="M13.1 16.616c-.068.16-.25.595-.5.823a3.918 3.918 0 0 0-.82-.8 2.453 2.453 0 0 0-.25-.137c-.25-.114-.363-.068-.59-.16-.16-.068-.547-.457-.979-.41-.318.022-.614.365-.569.388.182.09.296.137.5.25 1.002.55 1.98 2.011 2.07 2.08.274.205.706.343 1.024.183a.622.622 0 0 0 .25-.229c.183-.228.592-.617 1.092-1.005-.477-.114-1.046-.526-1.228-.983Z"/>
  <path fill="#D09EBC" d="M11.758 16.64a2.472 2.472 0 0 0-.25-.138c-.25-.114-.364-.068-.591-.16-.069-.023-.182-.114-.319-.205.045.045.114.137.205.228.5.503.887.503 1.228.868.182.183.319.434.455.823.068-.274.341-.709.455-.868a1.14 1.14 0 0 0 .16-.526c-.07.16-.251.594-.501.823a3.664 3.664 0 0 0-.842-.846Zm3.844.16a.474.474 0 0 0 .137-.092c.022 0 .045-.023.068-.023h.068a.462.462 0 0 1 .25 0c.023-.069.046-.114.046-.183.068-.228.114-.457.182-.685.114-.297.182-.571.182-.571-.25.708-.956 1.507-1.046 1.622.045-.023.09-.046.113-.069Z"/>
</svg>
