<svg xmlns="http://www.w3.org/2000/svg" width="32" height="32" fill="none" viewBox="0 0 32 32">
  <g clip-path="url(#a)">
    <path fill="#45BAD3" d="m7.9 8.76 2.013.697-5.068 2.163 2.163 6.323-1.74-.68-2.208-6.445L7.9 8.761Zm7.398 15.28 1.528-1.786-7.79 1.619-1.831-5.355-1.09 1.255 1.967 5.749 7.216-1.483Zm-9.5-.046 1.18 3.464 3.585-.741 1.21-1.422-4.039.832L6.66 22.98l-.862 1.014ZM4.422 8.428.988 9.895l1.21 3.555 1.376.5-1.164-3.42 3.585-1.527-1.573-.575Z"/>
    <path fill="#B23A62" d="m10.593 7.051-.272-1.12 3.373-1.436 3.298.983.303 1.286-3.54-1.06-3.162 1.347Zm19.076 11.92-1.422-.514 1.21 3.177-4.145.862 2.057.741L31 22.481l-1.331-3.51Zm-3.843-6.882.969-.666-1.301-3.419-3.298-.983-1.18.832 3.616 1.074 1.194 3.162ZM15.54 8.277l.454.136-.333.454c-.045.075-.166.302.212.59.12.09.318.211.62.302.288.09 1.71.545 2.178.696.484.151.802.166 1.226.106.317-.03.499-.182.56-.272.075-.091.287-.47.287-.47l.454.137 1.936.575 1.452 3.796 1.21-.832-1.588-4.13-3.767-1.119L18.96 9.29l-1.165-.348-.378-1.603-3.646-1.09-3.872 1.665.332 1.406 3.646-1.543 1.664.5Zm10.998 7.125-1.8-.696 2.087 5.476-9.046 1.89 2.435.954 8.562-1.77-2.238-5.854Z"/>
    <path fill="#45BAD3" d="m21.198 9.956-.318.544s-.151.258-.409.363c-.257.106-.514.197-.877.197-.378 0-.741-.06-1.074-.166-.333-.106-1.815-.575-2.178-.696-.378-.091-.787-.318-.983-.56-.212-.242-.258-.439-.258-.605 0-.182.076-.318.182-.439l.272-.317.454.136s-.287.393-.333.454c-.045.075-.166.302.212.59.121.09.318.211.62.302.288.09 1.71.545 2.178.696.485.151.802.166 1.226.106.317-.03.499-.182.56-.272.075-.091.287-.47.287-.47l.439.137Zm-2.618 6.096 7.73 2.798-.257-.65-7.29-2.632c.075-.318.06-.65-.031-.968a2.686 2.686 0 0 0-.5-.938 3.485 3.485 0 0 0-.862-.757 5.05 5.05 0 0 0-1.15-.544 5.779 5.779 0 0 0-2.541-.227c-.408.06-.801.166-1.15.318a3.42 3.42 0 0 0-.877.56l-5.476-1.967-.726.318 5.824 2.087a1.97 1.97 0 0 0-.333.832c-.045.348 0 .711.136 1.059.152.363.394.726.742 1.044.363.332.817.62 1.361.847.56.227 1.135.348 1.71.393a5.37 5.37 0 0 0 1.648-.136c.5-.121.938-.333 1.301-.59.333-.257.575-.53.742-.847Z"/>
    <path fill="#B23A62" d="M18.248 15.628c-.121.318-.348.605-.65.847-.303.242-.697.424-1.135.545a4.525 4.525 0 0 1-1.452.136 4.766 4.766 0 0 1-1.513-.333 4.106 4.106 0 0 1-1.21-.74c-.303-.288-.53-.606-.65-.924a1.884 1.884 0 0 1-.107-.953c.06-.302.197-.59.424-.847.212-.257.5-.454.817-.605a3.876 3.876 0 0 1 1.028-.317 4.718 4.718 0 0 1 1.135-.046c.393.03.787.106 1.18.242.393.136.741.303 1.044.5.302.211.56.453.756.71.197.273.348.56.409.863.06.287.045.62-.076.922Z"/>
  </g>
  <defs>
    <clipPath id="a">
      <path fill="#fff" d="M1 1h30v30H1z"/>
    </clipPath>
  </defs>
</svg>
