<svg xmlns="http://www.w3.org/2000/svg" width="32" height="32" fill="none" viewBox="0 0 32 32">
  <g clip-path="url(#a)">
    <path fill="#11A63C" d="M3.751 16.238c0 6.983 5.664 12.624 12.625 12.624 6.96 0 12.624-5.664 12.624-12.624 0-6.96-5.641-12.624-12.624-12.624-6.983 0-12.625 5.664-12.625 12.624Zm3.253-.091c0-5.891 4.913-10.645 10.964-10.645 6.05 0 10.941 4.776 10.941 10.645s-4.89 10.645-10.941 10.645c-6.05 0-10.964-4.754-10.964-10.645Z"/>
    <path fill="#C5D97F" d="M17.126 18.012c-.022 0-.045 0-.068-.023-.16-.045-.296-.068-.455-.113-4.117-.865-7.734-.069-9.007 1.751a10.137 10.137 0 0 0 1.546 2.843c-.386-.75-.591-1.5-.432-2.138.569-2.32 3.867-3.298 7.734-2.343.227.046.432.114.637.182 0 0 .023-.045.023-.09 0 0 .022-.046.022-.069Z"/>
    <path fill="#C5D97F" d="M17.377 18.08c0 .023-.023.069-.023.069.16.113.318.181.477.295.205.091.433.16.615.25 2.001.888 3.48 2.207 3.98 3.594.023.091.069.182.091.273.023.069.023.114.046.182 0 .023 0 .046.023.091 0 .046.022.114.022.16v.636c0 .023 0 .046-.023.069v.022c0 .023 0 .046-.022.069v.022c0 .023-.023.046-.023.069 0 .022 0 .045-.023.068v.023c0 .022 0 .022-.023.045v.023c-.022.045-.022.09-.045.136 0 .023-.023.046-.023.069-.25.591-.75 1.16-1.433 1.66-.432.296-.978.569-1.637.819-4.709 1.797-10.1 1.32-13.353 0C2.751 25.404 2 24.7 2 24.7c4.709 5.231 14.626 6.027 19.312 3.161 1.433-.864 2.138-1.797 2.434-2.684 0-.023.022-.045.022-.045.933-2.82-2.115-5.892-6.391-7.052Zm.591-12.578c-2.82 0-5.414 1.046-7.347 2.752 1.91-1.342 4.89-2.138 7.46-1.91 5.687.545 11.306 5.39 10.782 10.918a9.07 9.07 0 0 0 .069-1.115c-.023-5.891-4.913-10.645-10.964-10.645Z"/>
    <path fill="#C5D97F" d="M22.881 21.538a1.228 1.228 0 1 0 0-2.457 1.228 1.228 0 0 0 0 2.457Z"/>
    <path fill="#11A63C" d="M22.881 21.515a.978.978 0 1 0 0-1.956.978.978 0 0 0 0 1.956Z"/>
    <path fill="#C5D97F" d="M14.283 16.283c-.023.046-.045.091-.09.114a2.2 2.2 0 0 0-.797-.41c-.023 0-.046-.022-.046-.022-.113-.023-.318-.068-.887-.114-.955-.068-1.114-.045-1.319-.205-.227-.182-.182-.386-.41-.5-.25-.136-.545-.068-.727 0-.091-.045-.432-.227-.82-.114-.25.091-.59.342-.545.569.023.114.16.227.273.25.136.046.25 0 .318-.023.182-.045.455-.022.933.364.045.023.114.023.205.046.159.023.273 0 .364-.023a5.16 5.16 0 0 1 1.046.387c1.433.66 2.252 1.228 2.252 1.228.09.068.273.205.546.182.045 0 .068 0 .09-.023.251-.068.114-.068.433-.318.114-.091.091-.068.364-.273.136-.091.478-.341.569-.41a5.2 5.2 0 0 1 .591.615c.205.25.341.477.455.682a1.68 1.68 0 0 1 .569-1 1.94 1.94 0 0 1 .728-.365c-.137.046-.41.182-.637.478-.25.318-.319.637-.364.773.318.228.568.273.841.637a.476.476 0 0 0 .091.137c.16.318.228.932.228 1.023.023.273.227.569.614 1.138.591.864.91.932.91 1.342v.068a.735.735 0 0 0 0 .318c0 .114 0 .182.045.228.023.045.068.068.114.09.136.07.296.137.546.16h.182c.068 0 .114.023.136.046.069.022.341.09.66.045.227-.023.387-.045.432-.16.046-.067 0-.158 0-.158-.045-.091-.136-.137-.273-.205 0 0-.227-.114-.477-.273-.137-.091-.25-.205-.319-.25-.068-.046-.09-.091-.136-.114l-.16-.16c-.045-.022-.045-.022-.09-.067-.046-.023-.069-.069-.114-.091a3.51 3.51 0 0 0-.16-.205c-.136-.25-.523-1.365-.636-1.66-.273-.774-.319-1.138-.342-1.297v-.16c0-.068 0-.227-.045-.454a1.508 1.508 0 0 0-.341-.637c-.137-.16-.205-.273-.25-.341l-.137-.228c-.182-.296-.273-.523-.523-.978a7.55 7.55 0 0 0-.205-.387 1.945 1.945 0 0 1-.09-.614c0-.41.113-.773.158-.978.046-.182.137-.364.182-.66 0-.045.023-.113.046-.227.023-.137.045-.296.045-.5 0 .272.023.295.182.409a.77.77 0 0 0 .182.068c.182.228.387.432.614.683.455.477.706.682.706.682.159.16.25.205.318.341.16.25.09.341.25.592.16.295.5.545.683.477.068-.023.09-.068.113-.114.091-.159.046-.386-.045-.523-.091-.113-.16-.136-.319-.227-.159-.114-.25-.25-.432-.546-.227-.364-.387-.637-.41-.728-.227-.432-.204-.546-.386-.819a2.71 2.71 0 0 0-.364-.432c-.09.023-.227.046-.387.136a1.008 1.008 0 0 0-.318.273c0-.022 0-.295.25-.477a.516.516 0 0 1 .569-.023 2.84 2.84 0 0 1-.341-.432c-.342-.546-.319-.887-.66-1.274-.091-.09-.227-.227-.455-.364.023 0 .091-.045.136-.16a.524.524 0 0 0 .069-.204c.023 0 .09-.023.114-.068 0-.023.022-.023 0-.114 0-.136-.046-.159-.023-.227 0-.023.023-.046.045-.069a.908.908 0 0 1 .16-.159c.068-.045.113-.182.045-.591.023-.023.045-.023.045-.046.091-.159-.204-.523-.477-.728-.341-.25-.796-.34-1.16-.227-.182.046-.341.16-.341.182 0 .023.09-.023.181.023.046.022.069.068.091.09a.786.786 0 0 0-.272.069c-.137.068-.205.182-.25.227a.296.296 0 0 1 .204-.068c.046 0 .068.023.091.046-.091.113-.114.227-.136.295-.046.182-.046.41.022.524 0 0 .023.045.023.09 0 .069-.023.114-.023.137-.068.16-.09.227-.136.273.023.091.136.387.432.591.341.228.728.182.728.205 0 .023-.5.137-.978-.114a1.25 1.25 0 0 1-.546-.568c-.137.09-.273.159-.41.25-.819.41-1.615.5-2.206.5.023.091.046.16.091.25.114.25.273.433.387.546a1.301 1.301 0 0 1-.364-.25 1.532 1.532 0 0 1-.273-.386c-.114.022-.296.068-.5.068-.183 0-.32 0-.456-.023-.318-.023-.34-.068-.546-.09-.181 0-.204.022-.59.067-.228.023-.388.046-.729.069-.523.045-.591.022-.705 0-.045-.023-.205-.069-.387-.137-.204-.09-.204-.09-.25-.09-.296 0-.455.477-.5.545-.046.114-.046.16-.023.182.046.068.25.046.364-.046.045-.045.045-.068.09-.068.07 0 .115.091.206.16.182.136.432.09.455.09.045 0 .136-.045.227-.113.546.113.955.204 1.251.295.25.069.455.114.728.114.318 0 .5-.09.75-.16a2.756 2.756 0 0 1 1.252-.022l.204.137a.674.674 0 0 1 .296-.16.512.512 0 0 1 .364.046c.16.227.478.728.569 1.433a3.026 3.026 0 0 1-.228 1.66 1.81 1.81 0 0 1 1.001-.181c.887.09 1.365.841 1.41.955-.113-.137-.546-.614-1.228-.705-.114-.023-.75-.091-1.115.25-.159.136-.25.318-.25.318-.09.16-.09.25-.114.364-.045.16-.204.341-.614.523.114.137.228.296.387.433.273.273.569.477.796.637-.182-.046-.546-.137-.864-.433a3.174 3.174 0 0 0-.296-.455Z"/>
    <path fill="#11A63C" d="M17.217 8.004c-.227 0-.409.068-.5.113.114-.045.182-.022.227 0 .023 0 .091.023.091.069 0 .022-.045.022-.09.068a.35.35 0 0 0-.16.16c-.136.204-.045.5-.023.545 0 0 .023.046.023.068a.288.288 0 0 1 .023.137s0 .068.023.159c.045.182.182.227.159.318 0 .091-.137.091-.16.182-.022.069.023.182.25.387.07.023.16.068.297.091.159.023.318.023.318.023s0 .023-.068.023c.023 0 .068 0 .114-.023.068-.023.204-.068.204-.114 0-.045-.204-.068-.204-.09 0-.024.113-.046.181-.046.069 0 .091 0 .16-.023.045 0 .09-.023.09-.046 0-.022-.113 0-.181-.045 0 0-.091-.068-.069-.137 0-.09.114-.159.183-.136.022 0 .068.023.068.045 0 .046-.046.091-.046.114 0 .023.046 0 .091 0 .046 0 .069-.023.069-.023.045-.045-.091-.182-.046-.295 0-.023.023-.046.046-.069 0-.022.022-.045.068-.068l.045-.045.046-.046c0-.023-.205.023-.273-.068-.023-.045 0-.114 0-.136.023-.046.045-.046.045-.091.023-.091-.113-.16-.113-.273 0 0 0-.091.045-.137.114-.114.364.023.41-.023.068-.09-.273-.614-.842-.796a1.7 1.7 0 0 0-.75-.023c.067 0 .318-.022.545.137a.522.522 0 0 1 .16.182c-.069-.023-.228-.091-.456-.068Zm-8.325 3.207c.068 0 .137-.046.205-.091.045-.045.045-.068.09-.068.07 0 .115.09.206.159.182.136.432.091.455.091.045 0 .136-.045.227-.114.546.114.955.205 1.251.296.25.068.455.114.728.114.318 0 .5-.091.75-.16a2.757 2.757 0 0 1 1.252-.022l.204.136a.673.673 0 0 1 .296-.16c.182-.045.319.024.364.046.068.091.16.228.25.41.091.023.432.09.683.41.204.272.25.545.25.659a2.615 2.615 0 0 0-.228-.182c-.09-.068-.182-.091-.25-.114.205.25.228.41.205.523-.023.114-.137.205-.091.273.045.046.136 0 .25.046.114.045.16.16.182.25-.09.023-.205.046-.341.114-.228.136-.319.341-.364.432.114-.046.25-.091.455-.091.41-.023.705.137.887.228.637.34.955.932 1.069 1.16a7.43 7.43 0 0 0-.205-1.115c-.159-.591-.386-1.046-.318-1.092.068-.045.455.569.546.5.023-.022.023-.113 0-.159 0-.41-.25-.546-.364-.978a2.052 2.052 0 0 1-.023-.864c.023.273.091.455.16.568.09.16.181.25.272.455.046.137.069.273.069.364.068-.113.136-.273.181-.477.137-.478.091-.865.069-1.07-.046-.363-.091-.318-.114-.636-.023-.182-.023-.319-.114-.432-.068-.091-.136-.114-.204-.16-.069-.022-.137-.045-.228-.068a1.535 1.535 0 0 1-.841-.136c-.023 0-.046-.023-.046-.023a5.831 5.831 0 0 0-.614-.114c-.387.091-.683.205-.91.273-.819.273-1.115.319-1.41.228a.459.459 0 0 1-.182-.091c.022.045.022.09.045.113.114.25.273.433.387.546a1.786 1.786 0 0 1-.364-.227c-.046 0-.091-.023-.114-.023 0 0-.705-.136-1.387-.068-.205.023-.16.023-.478.068-1.046.136-1.57.205-2.002-.046-.113-.068-.295-.227-.477-.159a.507.507 0 0 0-.228.205c-.023.045-.09.136-.09.273Zm9.44-.136c.16.318.182.568.182.75 0 .296-.091.978-.046 1.024.023 0 .023.022.023.022.114.023.5.16.728.546.091.16.114.296.136.41.387.386.592.568.592.568.16.16.25.205.318.342.16.25.091.34.25.591.114.205.342.41.524.478.068-.068.113-.137.113-.228 0-.068-.09-.182-.09-.182-.114-.113-.137-.113-.137-.113-.091-.023-.16.068-.227.045-.069-.023-.091-.114-.114-.182-.046-.182-.16-.364-.228-.546-.09-.318-.273-.295-.477-.773-.228-.523-.205-.82-.524-1.046-.136-.114-.273-.16-.34-.228 0 0-.023 0-.023.023a.99.99 0 0 0-.319.273c0-.046.023-.296.25-.478a.683.683 0 0 1 .182-.091 2.592 2.592 0 0 1-.34-.432c-.251-.455-.32-.887-.388-.865-.022-.022-.045 0-.045.091Z"/>
    <path fill="#11A63C" d="M22.13 22.994c.023.09 0 .136-.022.159-.114.136-.478.045-.66-.16-.068-.068-.045-.068-.09-.159-.183-.273-.547-.455-.82-.5-.045 0-.09-.023-.159-.068-.068-.091-.068-.228-.045-.319-.046-.023-.091-.068-.137-.09a6.24 6.24 0 0 0-.523-1.297c-.068-.137-.5-1.001-.523-1.456 0-.023.023-.341-.023-.728-.045-.227-.068-.318-.136-.387-.023-.022-.114-.136-.433-.25-.386-.136-.523-.114-.568-.205-.046-.09.045-.272.523-.66-.136-.227-.296-.454-.432-.682-.091-.159-.205-.318-.296-.477 0-.023 0-.069-.023-.114a.47.47 0 0 0-.045-.137s-.046-.113-.114-.204c-.136-.16-.546-.592-1.205-.683-.046 0-.16-.022-.296-.022-.068 0-.5.045-.75.386-.228.319-.183.728-.046 1.001.227.455.568.5 1.114 1.046.273.296.455.57.569.774.068-.091.25-.5.705-.728.273-.136.546-.136.683-.136h.022c-.022 0-.045.022-.068.022a2.066 2.066 0 0 0-.614.455c-.25.319-.319.637-.364.774.318.227.569.273.841.636a.494.494 0 0 0 .091.137c.16.318.228.933.228 1.023.023.273.227.57.614 1.138.591.864.91.933.91 1.342v.068a.731.731 0 0 0 0 .319c0 .113 0 .181.046.227.022.045.068.068.113.091.137.068.296.137.546.16h.182c.068 0 .114.022.137.045.068.023.34.09.66.045.272-.022.386-.045.431-.159.046-.068.023-.16-.022-.227Z"/>
    <path fill="#11A63C" d="M16.035 16.988c-.137-.045-.41-.113-.66-.34a1.213 1.213 0 0 1-.364-.501.786.786 0 0 1-.068-.273c-.069.045-.16.114-.296.182a.787.787 0 0 1-.273.068c.091.114.205.25.341.387.273.273.569.477.796.637-.182-.046-.546-.137-.864-.432l-.136-.137c-.137.137-.114.182-.296.341-.683-.682-1.229-.819-1.615-.819-.228 0-1.024.046-1.365-.159a.484.484 0 0 1-.227-.204c-.069-.114-.046-.205-.114-.342a.386.386 0 0 0-.137-.136s.114.159.046.273c-.068.09-.205.09-.273.09-.273 0-.319-.159-.569-.159a1.44 1.44 0 0 0-.296.091c-.34.091-.386.114-.477.137-.068 0-.296 0-.341-.091-.046-.091.113-.25.204-.341a.89.89 0 0 1 .205-.16c-.25.092-.569.342-.523.57.023.113.16.227.273.25.136.045.25 0 .318-.023.182-.046.455-.023.933.364.045.022.114.022.205.045.159.023.273 0 .364-.023.454.114.818.273 1.046.387 1.433.66 2.252 1.228 2.252 1.228.09.069.273.205.546.182.045 0 .068 0 .09-.022.25-.069.114-.069.433-.319.114-.09.09-.068.364-.273.045-.182.386-.41.478-.478Z"/>
  </g>
  <defs>
    <clipPath id="a">
      <path fill="#fff" d="M2 3h27v27H2z"/>
    </clipPath>
  </defs>
</svg>
