<svg xmlns="http://www.w3.org/2000/svg" width="32" height="32" fill="none" viewBox="0 0 32 32">
  <g clip-path="url(#a)">
    <path fill="#5BD75B" d="M6.799 27.79h19.64v1.204H6.8V27.79Z"/>
    <path fill="#009E4C" d="m4.87 23.655 1.925 5.339.004-1.204-1.925-5.455-.004 1.32Z"/>
    <path fill="#42C6EB" d="m28.114 22.885-17.355 3.616.003-1.19 17.355-3.616-.003 1.19Z"/>
    <path fill="#007DC6" d="m4.017 18.83 6.745 7.67v-1.203l-6.744-7.672-.001 1.204Z"/>
    <path fill="#FF8C00" d="m29.24 16.851-15.894 5.933.005-1.192 15.894-5.934-.004 1.193Z"/>
    <path fill="#FF4136" d="m3.268 14.557 10.084 8.227-.002-1.2-10.084-8.228.002 1.2Z"/>
    <path fill="#6F4AF4" d="m27.471 14.395-11.806 5.619-12-6.803-.397.145 10.082 8.225 15.89-5.923-1.769-1.263ZM24.85 26.159 9.943 27.286 5.5 22.336h-.63L6.8 27.79h19.64l-1.59-1.632Zm-14.087-.861-6.745-7.672.532-.07 7.91 6.44 13.703-3.73 1.952 1.429-17.352 3.603Z"/>
    <path fill="#8D70F6" d="M15.998 17.41v1.166l14-7.697V9.713l-14 7.698Z"/>
    <path fill="#6F4AF4" d="M10.312 9.306c.8-1.181 3.037-1.87 5.687-1.87 2.65 0 4.887.689 5.686 1.87h.274c-.348-1.563-2.875-2.63-5.96-2.63-3.086 0-5.613 1.067-5.96 2.63h.273Zm17.502.798-1.415.76h-3.493c-.354 1.905-3.78 3.342-6.907 3.342-3.127 0-6.554-1.437-6.908-3.341H5.598l-1.415-.76H9.09c.408 1.872 3.307 3.326 6.908 3.315 3.638-.012 6.499-1.443 6.907-3.316h4.909Zm-17.372.76h11.113c.195-.234.333-.488.404-.76h-11.92c.07.272.209.526.403.76ZM2 9.715v1.165l14 7.696v-1.165l-4.667-2.566L2 9.713Zm3.674-.408H4.182l11.817-6.393 11.817 6.393h-1.493L15.999 3.674 5.674 9.306Z"/>
    <path fill="#fff" d="m15.998 16.454-11.816-6.35h4.909c.408 1.873 3.307 3.327 6.907 3.316 3.64-.012 6.5-1.443 6.908-3.316h4.908l-11.816 6.35Zm5.96-6.35c-.4 1.542-2.938 2.517-5.96 2.517-3.02 0-5.56-.976-5.96-2.517h11.92Zm-11.92-.799c.348-1.562 2.875-2.63 5.96-2.63 3.086 0 5.613 1.068 5.96 2.63h-11.92Zm5.96-6.392 11.818 6.392h-4.91C22.578 7.401 19.63 5.9 15.998 5.9c-3.631 0-6.58 1.502-6.907 3.406H4.18l11.817-6.392Zm0-.913L2 9.713l13.998 7.698 13.999-7.698L15.998 2Z"/>
  </g>
  <defs>
    <clipPath id="a">
      <path fill="#fff" d="M2 2h28v27H2z"/>
    </clipPath>
  </defs>
</svg>
