<svg width="84" height="26" viewBox="0 0 84 26" fill="none" xmlns="http://www.w3.org/2000/svg">
<g clip-path="url(#clip0_13464_18142)">
<path fill-rule="evenodd" clip-rule="evenodd" d="M3.10456 18.0452C3.35067 19.1901 3.51463 19.8591 3.51463 19.8591C3.51463 19.8591 8.03945 23.2142 12.9999 25.5527C17.9604 23.2142 22.4852 19.8591 22.4852 19.8591C22.4852 19.8591 22.6492 19.1901 22.8953 18.0452C23.3053 15.8264 24.1387 11.2978 24.1925 10.934C24.5052 8.85 24.7857 6.56471 24.9539 4.26649L12.9999 0.449219L1.0459 4.26649C1.21572 6.58575 1.49976 8.89183 1.81597 10.9912C2.17921 13.041 2.94547 17.3216 3.10456 18.0452ZM3.24531 10.757C3.61414 12.8381 4.36875 17.0506 4.51905 17.7342L4.52051 17.7409L4.5205 17.7409C4.63483 18.2728 4.73099 18.6996 4.80046 19.0011C4.8955 19.0688 5.00552 19.1465 5.12949 19.2332C5.61898 19.5758 6.3246 20.058 7.18286 20.6123C8.75664 21.6288 10.8233 22.8743 12.9999 23.9451C15.1766 22.8743 17.2432 21.6288 18.817 20.6123C19.6752 20.058 20.3809 19.5758 20.8704 19.2332C20.9943 19.1465 21.1043 19.0688 21.1994 19.0011C21.268 18.7034 21.3625 18.2837 21.4749 17.7613C21.6799 16.6522 21.9884 14.9781 22.2528 13.5332C22.3859 12.8061 22.5077 12.138 22.5995 11.6294C22.6454 11.3749 22.6836 11.1617 22.7118 11.0015C22.726 10.9213 22.7374 10.8559 22.7459 10.8059C22.7501 10.7809 22.7535 10.761 22.756 10.7457L22.7589 10.7279C22.7595 10.7242 22.7597 10.7224 22.7598 10.7221L22.7602 10.7191C23.0171 9.00751 23.2509 7.16438 23.4173 5.29612L12.9999 1.96954L2.58255 5.29612C2.75013 7.17821 2.98621 9.03478 3.24531 10.757Z" fill="white"/>
</g>
<path d="M35.9853 9.19843C35.9853 10.1554 35.8357 10.6041 35.4171 11.0527C35.0582 11.4115 34.4899 11.6209 33.8918 11.6209C33.2937 11.6209 32.7254 11.4115 32.3665 11.0527C31.9179 10.6041 31.7684 10.1554 31.7983 9.19843V4.35352H30.0039V9.67694C30.0039 10.7835 30.3329 11.6508 30.9908 12.3087C31.7385 13.0564 32.6656 13.3854 33.8619 13.3854C35.0582 13.3854 35.9853 13.0265 36.733 12.3087C37.3909 11.6508 37.7199 10.7835 37.7199 9.67694V4.35352H35.9554L35.9853 9.19843ZM39.2451 5.01147V10.6938C39.2451 12.6377 40.5012 13.3256 42.0564 13.3256H45.4059V11.6807H42.1461C41.3087 11.6807 40.9797 11.4414 40.9797 10.5143V9.64703H45.0471V8.03206H40.9797V5.99839H45.4059V4.35352H39.8732C39.5143 4.35352 39.2451 4.59277 39.2451 5.01147ZM52.464 9.64703V8.03206H48.3966V7.19467C48.3966 6.26755 48.7256 6.0283 49.563 6.0283H52.8229V4.38342H49.4733C47.9181 4.38342 46.662 5.07128 46.662 7.01523V12.6975C46.662 13.1162 46.9312 13.3555 47.32 13.3555H48.4265V9.67694H52.464V9.64703ZM57.3089 4.95165C57.1893 4.65258 57.0397 4.35352 56.5014 4.35352H56.0827C55.5743 4.35352 55.3948 4.62268 55.2752 4.95165L52.3144 13.3555H54.0789L56.292 7.10495L57.4584 10.0358H56.5612L55.9631 11.6807H58.1164L58.7743 13.3256H60.6585L57.3089 4.95165Z" fill="white"/>
<path d="M35.5658 19.6163H37.7306V23.2243C37.2399 23.5707 36.6626 23.8594 36.0276 24.0325C35.3926 24.2346 34.7287 24.3212 34.0937 24.3212C33.1701 24.3212 32.3619 24.1191 31.6403 23.7439C30.9186 23.3687 30.3414 22.8202 29.9373 22.1275C29.5332 21.4348 29.3022 20.6554 29.3022 19.7895C29.3022 18.9236 29.5043 18.1442 29.9373 17.4515C30.3414 16.7588 30.9186 16.2392 31.6691 15.8351C32.4196 15.4599 33.2278 15.2578 34.1514 15.2578C34.9596 15.2578 35.6813 15.4021 36.3451 15.6619C36.9801 15.9217 37.5286 16.3258 37.9615 16.8453L36.4029 18.2597C35.8256 17.6247 35.104 17.2783 34.2958 17.2783C33.5453 17.2783 32.9391 17.5092 32.5062 17.9711C32.0444 18.404 31.8134 19.0102 31.8134 19.7606C31.8134 20.2513 31.9289 20.6843 32.1309 21.0595C32.333 21.4348 32.6216 21.7234 32.9969 21.9543C33.3721 22.1564 33.8051 22.2718 34.2669 22.2718C34.7287 22.2718 35.1906 22.1852 35.5947 21.9832V19.6163H35.5658ZM45.2353 22.445H41.5696L40.8768 24.148H38.3656L42.2046 15.4599H44.6292L48.4681 24.148H45.8992L45.2353 22.445ZM44.5137 20.6266L43.388 17.8556L42.2623 20.6266H44.5137ZM57.1563 24.148L57.1274 19.5297L54.9049 23.2821H53.808L51.5855 19.6452V24.1191H49.3052V15.431H51.3257L54.3853 20.4534L57.3583 15.431H59.3788L59.4077 24.1191H57.1563V24.148ZM61.2839 15.4599H63.7373V24.148H61.2839V15.4599ZM73.8687 15.4599V24.148H71.8482L68.0093 19.5009V24.148H65.6135V15.4599H67.634L71.473 20.107V15.4599H73.8687ZM81.5755 19.6163H83.7403V23.2243C83.2496 23.5707 82.6723 23.8594 82.0373 24.0325C81.4023 24.2346 80.7384 24.3212 80.1034 24.3212C79.1797 24.3212 78.3715 24.1191 77.6499 23.7439C76.9283 23.3687 76.351 22.8202 75.9469 22.1275C75.5428 21.4348 75.3119 20.6554 75.3119 19.7895C75.3119 18.9236 75.514 18.1442 75.9469 17.4515C76.351 16.7588 76.9283 16.2392 77.6788 15.8351C78.4293 15.4599 79.2375 15.2578 80.19 15.2578C80.9982 15.2578 81.7198 15.4021 82.3837 15.6619C83.0187 15.9217 83.5671 16.3258 84.0001 16.8453L82.4414 18.2597C81.8641 17.6247 81.1425 17.2783 80.3343 17.2783C79.5838 17.2783 78.9777 17.5092 78.5447 17.9711C78.0829 18.404 77.852 19.0102 77.852 19.7606C77.852 20.2513 77.9674 20.6843 78.1695 21.0595C78.3715 21.4348 78.6602 21.7234 79.0354 21.9543C79.4106 22.1564 79.8436 22.2718 80.3054 22.2718C80.7673 22.2718 81.2291 22.1852 81.6332 21.9832V19.6163H81.5755Z" fill="white" fill-opacity="0.8"/>
<defs>
<clipPath id="clip0_13464_18142">
<rect width="25.1034" height="25.1034" fill="white" transform="translate(0 0.449219)"/>
</clipPath>
</defs>
</svg>
