<svg xmlns="http://www.w3.org/2000/svg" width="32" height="32" fill="none" viewBox="0 0 32 32">
  <path fill="#009E4C" d="M28.809 16.232 21.063 29.46l1.191.006L30 16.238l-1.191-.006Z"/>
  <path fill="#5BD75B" d="M22.245 3h-1.182l7.755 13.233H30L22.245 3Z"/>
  <path fill="#007DC6" d="M25.04 16.232 17.296 29.46l1.192.006 7.745-13.227-1.191-.006Z"/>
  <path fill="#42C6EB" d="M18.478 3h-1.183l7.755 13.233h1.182L18.478 3Z"/>
  <path fill="#643EF1" d="m25.05 16.232-5.372-9.165a9.136 9.136 0 0 0-.877-.236l5.51 9.401-5.51 9.401a8.91 8.91 0 0 0 .877-.235l5.372-9.166Z"/>
  <path fill="#FF4136" d="M21.273 16.232 13.528 29.46l1.19.006 7.746-13.227-1.191-.006Z"/>
  <path fill="#FF8C00" d="M14.71 3h-1.183l7.755 13.233h1.182L14.71 3Z"/>
  <path fill="#643EF1" d="m21.282 16.232-5.586-9.531a9.208 9.208 0 0 0-.675.11l5.522 9.421-5.522 9.422c.222.046.448.081.675.11l5.586-9.532Z"/>
  <path fill="#CCCBFF" d="M17.515 16.232 9.762 29.46l1.189.006 7.75-13.227-1.186-.006Z"/>
  <path fill="#fff" d="M10.942 3h-1.18l7.762 13.233h1.177L10.941 3Z"/>
  <path fill="#6400EF" d="M7.49 16.232c0-3.702 2.045-6.914 5.037-8.518L9.762 3 2 16.232l7.762 13.233 2.765-4.714c-2.992-1.605-5.036-4.816-5.036-8.519Z"/>
  <path fill="#897FFF" d="M12.527 7.714c-2.992 1.604-5.036 4.816-5.036 8.518 0 3.703 2.044 6.915 5.036 8.519l4.997-8.519-4.997-8.518Zm13.705 8.518-4.972 8.485c2.958-1.616 4.972-4.808 4.972-8.485ZM21.26 7.748l4.972 8.484c0-3.676-2.014-6.868-4.972-8.484Zm-2.459-.917a9.181 9.181 0 0 0-1.94-.207h-.027l5.63 9.608-5.63 9.608h.027c.666 0 1.314-.071 1.94-.207l5.51-9.4L18.8 6.83Zm1.742 9.401-5.522 9.422a9.117 9.117 0 0 1-1.568-.471l5.248-8.95-5.248-8.95a9.123 9.123 0 0 1 1.568-.473l5.522 9.422Z"/>
</svg>
