<svg xmlns="http://www.w3.org/2000/svg" width="32" height="32" fill="none" viewBox="0 0 32 32">
  <path fill="#fff" d="m23.077 14.264-1.634-.28-2.204 1.698-.93 2.48-.323.144-1.256 2.124-.367.145-2.233 2.227h.378l-.04.124-.209.062.92.454-.104.226h-1.426l-1.434-.143.68-.785.23-.063 1.414-2.289.503-.277 1.068-1.946-.168-.103.36-1.5-2.207.238-.188-.144-1.389.392-.586-.144-1.086-1.048-.277.304-.147-.04.125-.275-.354.048-.882-.083-.46-.267.315-.476 1.361-.246.86.061.147.165.617.163.367.333.528-.186-.04-.207 3.76-1.416h.462l.123-.288 1.154-1.128-1.985-2.262-1.049-.63-.983.135v-.205l.21-.124-.505-.124-.208.288h-.209l-.085-.454.588-.289.879.042.713.165 2.221.744 1.718.948.418.082.168-.536.62-.754.814.126.567.462-.134.497-.233.41.043.084-.07.15.157.104.121-.01.035.053.13-.006-.006.093.17-.006.028.055.229.042.127.638.42.186.082.206.692.742-.063.62-1.048.474ZM10.06 20.449c0-.716.59-1.298 1.32-1.298.73 0 1.318.582 1.318 1.298 0 .718-.589 1.299-1.319 1.299a1.31 1.31 0 0 1-1.32-1.299ZM22.52 5.14C19.026 3.155 3.003 12.2 3.003 16.176c0 3.97 15.97 13.106 19.468 11.118 3.492-1.986 3.544-20.164.05-22.153Zm-.407 7.051-.385-.522-.151.326.41.568.442.032-.096-.372-.22-.032Z"/>
  <path fill="url(#a)" d="M17.47 26.855a5.842 5.842 0 0 1-1.76.959 8.083 8.083 0 0 1-2.019.447c.13.255.358.48.489.607 1.205.16 2.442.192 3.68 0a13.846 13.846 0 0 0 4.625-1.566c0-.16.032-.32.032-.511v-.416c-1.758.48-3.42.64-5.048.48Zm7.457-3.004c.684-.799 1.27-1.661 1.694-2.588-.195-1.917-.554-3.355-1.075-4.378l-5.374.096a23.67 23.67 0 0 1-1.986 2.652 22.06 22.06 0 0 1-2.248 2.365l1.596 4.601c1.629.16 3.29 0 5.016-.511.88-.703 1.694-1.438 2.377-2.237ZM13.431 28.23c-1.205-.224-2.215-.575-3.095-1.119-.911-.575-1.726-1.31-2.507-2.3a6.684 6.684 0 0 1-1.433-.32c-.163-.064-.326-.127-.489-.223A12.28 12.28 0 0 0 8.22 26.44a12.647 12.647 0 0 0 5.601 2.365c-.13-.064-.325-.256-.39-.575Zm9.314-2.013c.066.16-.032.83-.065.926 0 0 1.857-1.246 2.67-2.076a13.327 13.327 0 0 0 2.704-4.122l-1.205.447c-1.205 2.14-2.443 3.483-4.104 4.825Zm6.123-11.855a12.167 12.167 0 0 0-.88-3.1 2.848 2.848 0 0 0-.78-.127 6.457 6.457 0 0 0-.782-.064c.358 2.205.163 4.122-.62 5.72.522 1.022.88 2.46 1.076 4.313l1.27-.415c.749-1.981 1.042-4.122.716-6.327Zm-25.501-1.15c-.326 1.342-.359 2.045-.359 2.045.098-.32.489-.895.489-.895l-.13-1.15Zm6.807-5.432c.26.575.52 1.182.847 1.821 2.507-.064 4.69.192 6.546.767l3.876-2.94c-.098-.799-.359-1.502-.782-2.109-.424-.607-1.01-1.118-1.726-1.566a12.757 12.757 0 0 0-3.322-.351c-.521.032-2.736.128-4.56.959-.13.191-1.303 1.725-1.4 1.949.13.447.293.926.52 1.47Zm10.715-2.62c.423.638.716 1.373.814 2.236.88.48 1.726.959 2.508 1.534a16.575 16.575 0 0 1 2.084 1.885c.326 0 .652 0 .945.032.195.032.423.064.619.096-.945-1.981-2.345-3.707-4.104-4.985a12.715 12.715 0 0 0-4.071-2.013c.488.352.88.767 1.205 1.214ZM9.392 6.18l1.238-1.662s-1.564.735-2.736 1.662c-.358.288-.684.575-1.01.895.326-.16.619-.288.945-.416a7.314 7.314 0 0 1 1.563-.48Zm2.638 15.401c.098 0 .228.032.326.032 1.075.128 2.182.224 3.387.224.814-.767 1.563-1.534 2.247-2.364a28.214 28.214 0 0 0 1.954-2.652 60.414 60.414 0 0 0-1.205-3.196 63.196 63.196 0 0 0-1.237-2.972c-1.824-.607-4.006-.862-6.547-.766-.879.798-1.66 1.63-2.312 2.46a16.858 16.858 0 0 0-1.661 2.524c0 .384.065.767.13 1.15.065.416.196.831.293 1.215.13.511.391 1.086.684 1.693.326.64.717 1.342 1.173 2.045l1.074.288c-.162-.224-.293-.511-.293-.799 0-.735.62-1.31 1.336-1.31.716 0 1.303.575 1.303 1.31 0 .48-.261.863-.652 1.119Zm-4.234 2.972c.13-.607.293-1.182.489-1.757.195-.575.456-1.119.749-1.662a28.548 28.548 0 0 1-1.173-2.077 10.463 10.463 0 0 1-.716-1.757c-.098-.416-.228-.831-.293-1.246-.066-.384-.13-.767-.13-1.15l-2.736-.8c-.62.767-.978 1.47-.978 2.077-.032.608.033 1.215.13 1.854A12.293 12.293 0 0 0 5.322 23.5c.326.351.716.575 1.172.735.391.16.847.255 1.303.32Z" opacity=".5"/>
  <path fill="#fff" d="m12.113 4.55 1.182-.875c-.766.142-1.534.407-1.534.407L11.027 3l.21 1.282s-.79.308-1.45.682l1.473-.096-.048 1.854.591-1.707 1.599.888-1.29-1.352Zm-2.9.744a9.85 9.85 0 0 0-1.192.81l-.963-.751.566 1.07c-.4.33-.706.612-1.059.959l1.249-.49.505 1.614.006-1.645 1.64.312-1.512-.801.76-1.078ZM5.846 8.868l.346-1.049c-.306.347-.753.932-.753.932l-.912-.368.674.712s-.405.615-.629 1.018l.887-.689.806 1.177-.408-1.315 1.402-.115-1.413-.303Z"/>
  <defs>
    <radialGradient id="a" cx="0" cy="0" r="1" gradientTransform="matrix(32.5691 0 0 31.9535 -2.659 4.643)" gradientUnits="userSpaceOnUse">
      <stop stop-color="#0071A8"/>
      <stop offset=".06" stop-color="#0071A8"/>
      <stop offset=".7" stop-color="#B3C7DF"/>
      <stop offset=".82" stop-color="#fff"/>
      <stop offset="1" stop-color="#fff"/>
    </radialGradient>
  </defs>
</svg>
