<svg xmlns="http://www.w3.org/2000/svg" width="32" height="32" fill="none" viewBox="0 0 32 32">
  <path fill="#fff" d="M11.571 6.51c0 .235.02.47.054.697l3.544-1.521.335 5.294c.188.02.376.034.57.034a4.507 4.507 0 1 0-4.503-4.504ZM5.174 19.552a11.758 11.758 0 0 0 1.72 3.724 9.74 9.74 0 0 1-.647-3.496 9.66 9.66 0 0 1 3.09-7.092l-.176-1.273a10.741 10.741 0 0 0-3.987 8.137Zm21.764 0a11.759 11.759 0 0 1-1.72 3.724 9.74 9.74 0 0 0 .647-3.496 9.66 9.66 0 0 0-3.09-7.092l.175-1.273a10.742 10.742 0 0 1 3.988 8.137Z"/>
  <path fill="#fff" d="m22.39 6.105-.05 1.223a11.83 11.83 0 0 1 5.536 10.024c0 4.186-2.173 7.863-5.452 9.968l.31 1.074c3.727-2.265 6.218-6.362 6.218-11.042a12.91 12.91 0 0 0-6.561-11.247ZM9.671 27.32a11.828 11.828 0 0 1-5.452-9.968A11.83 11.83 0 0 1 9.756 7.328l-.051-1.223a12.91 12.91 0 0 0-6.562 11.247c0 4.68 2.49 8.777 6.217 11.042l.311-1.074Zm.599 1.684c2.42.845 3.857.984 5.79.996 1.935-.012 3.37-.15 5.791-.996l-.648-1.854c-1.043.383-2.919.626-5.061.626h-.15c-2.178-.011-4.066-.278-5.062-.672l-.66 1.9Zm8.35-.463a67.57 67.57 0 0 0 2.56-.348c-.823.29-1.657.521-2.514.672a15.09 15.09 0 0 1-2.605.243c-.88 0-1.75-.093-2.606-.243-.857-.15-1.69-.382-2.513-.672.857.116 1.714.255 2.56.336.856.093 1.702.15 2.559.15.857 0 1.702-.057 2.559-.138ZM11.434 7.963l2.96 17.25c.444-.037.918-.047 1.41-.056l-1.318-18.41-3.052 1.216Zm3.015 12.555c-.093-.687-.176-1.383-.27-2.07l-.268-2.069-.241-2.079-.223-2.06a105.197 105.197 0 0 1-.38-4.166c.232 1.383.436 2.756.621 4.13.102.695.195 1.382.288 2.069l.25 2.069.25 2.07c.075.686.158 1.382.223 2.078.149 1.373.279 2.765.38 4.148a146.654 146.654 0 0 1-.63-4.12Zm-2.879 5.887c0 .3 1.79.547 4.078.577l.078-1.153c-2.33.025-4.156.274-4.156.576Zm6.626.517c1.47-.097 2.476-.291 2.476-.517 0-.215-.928-.403-2.301-.502l-.175 1.019Zm-.745-15.565L16.343 26.95l.07.023c.41 0 .794-.008 1.172-.023l3.16-18.462a5.087 5.087 0 0 1-3.294 2.87Zm-.016 11.307c.063-.613.134-1.234.205-1.855l.22-1.856.243-1.863c.079-.614.165-1.235.252-1.856.18-1.235.362-2.469.582-3.696-.087 1.25-.205 2.485-.33 3.727-.063.63-.142 1.243-.213 1.864l-.212 1.863-.236 1.856c-.094.613-.165 1.234-.26 1.848a95.677 95.677 0 0 1-.589 3.703 152.3 152.3 0 0 1 .338-3.735Z"/>
</svg>
