<svg width="40" height="40" viewBox="0 0 40 40" xmlns="http://www.w3.org/2000/svg"><title>ABD00156-2892-4E00-8B7F-84BA0E5F30AE</title><g fill="none" fill-rule="evenodd"><path fill="none" d="M0 0h40v40H0z"/><path d="M20 0C8.957 0 0 8.956 0 20s8.956 20 20 20 20-8.956 20-20S31.044 0 20 0m.01 8.79h.808V5.547a3.377 3.377 0 0 1 2.559 3.268 3.375 3.375 0 0 1-3.369 3.378c-1.171 0-2.238-.6-2.852-1.592a3.168 3.168 0 0 1 2.853-1.81m-.802-6.381v4.846c-2.253.388-3.969 2.343-3.969 4.695 0 .412.067.803.161 1.181a6.377 6.377 0 0 1-1.78-4.411c0-3.25 2.441-5.915 5.588-6.311M2.178 19.999c0-7.826 5.083-14.487 12.111-16.872a8.007 8.007 0 0 0-2.286 5.593c0 4.09 3.089 7.43 7.047 7.912.312.066.634.1.96.1h.042c-1.63.944-3.098 2.162-4.237 3.551l-.407.5.393.51c1.762 2.277.95 9.202-2.613 15.164C6.736 33.783 2.178 27.411 2.178 20m15.262.917c1.384-1.54 3.236-2.824 5.22-3.638-.794 5.357-2.5 9.892-5.537 14.398.77-2.352 1.19-4.667 1.19-6.67 0-1.634-.296-3.032-.873-4.09M20 37.817c-1.733 0-3.4-.255-4.988-.717 2.801-3.274 4.908-6.481 6.438-9.845 1.606 3.004 2.74 6.273 3.43 9.878a17.943 17.943 0 0 1-4.88.684m6.43-1.21c-.818-4.137-2.197-7.85-4.181-11.241 1.11-2.896 1.827-5.933 2.215-9.244l.142-1.214c-1.82.387-3.401.42-4.407.35-1.455-.114-2.816-1.134-3.226-2.485a4.972 4.972 0 0 0 3.037 1.03 4.993 4.993 0 0 0 4.988-4.989c0-2.47-1.814-4.52-4.18-4.907V2.201C30.26 2.636 37.813 10.45 37.813 20c0 7.557-4.732 14.029-11.383 16.608" fill="#009FE3" fill-rule="nonzero"/></g></svg>