<svg
  xmlns="http://www.w3.org/2000/svg"
  fill="none"
  viewBox="0 0 24 24"
  class="pk-svg__icon pk-svg__icon--product"
  part="svg"
>
  <path
    fill="#B3BBC4"
    d="M15.828 1.686l1.829 1.829s-.778 2.05 0 2.828 2.828 0 2.828 0l1.829 1.829c.777.777.777 2.05 0 2.828l-3.087 3.086-1.414-1.414L20.9 9.586l-.797-.796a4.013 4.013 0 01-3.86-1.033 4.013 4.013 0 01-1.033-3.86l-.796-.796-3.086 3.086-1.414-1.414L13 1.686a2.006 2.006 0 012.828 0zM8.85 5.836L1.687 13a1.997 1.997 0 00.007 2.821l1.829 1.829a1.997 1.997 0 012.821.007 2 2 0 010 2.828l1.829 1.829c.777.777 2.05.777 2.828 0l7.164-7.165-1.414-1.414L9.586 20.9l-.796-.796a4.013 4.013 0 00-1.033-3.861 3.992 3.992 0 00-3.853-1.04l-.804-.789 7.165-7.164L8.85 5.836z"
  >
  </path>
</svg>